<?xml version="1.0" encoding="utf-8"?>
<!-- Generator: Adobe Illustrator 22.1.0, SVG Export Plug-In . SVG Version: 6.00 Build 0)  -->
<svg version="1.1" id="Слой_1" xmlns="http://www.w3.org/2000/svg" xmlns:xlink="http://www.w3.org/1999/xlink" x="0px" y="0px"
	 viewBox="0 0 480 480" style="enable-background:new 0 0 480 480;" xml:space="preserve">
<style type="text/css">
	.st0{fill:#157CCC;}
	.st1{fill:#002E57;}
	.st2{fill:#EBBFC7;}
	.st3{fill:#3D599A;}
	.st4{fill:none;stroke:#EBBFC7;stroke-miterlimit:10;}
	.st5{fill:none;stroke:#002E57;stroke-miterlimit:10;}
	.st6{fill:none;stroke:#002E57;stroke-width:30;stroke-miterlimit:10;}
</style>
<g id="XMLID_1_">
	<g>
		<rect x="214.6" y="179.7" class="st0" width="19.2" height="12.8"/>
		<path class="st1" d="M432.5,453.9v7.8c0,3.5-2.9,6.4-6.4,6.4c-3.5,0-6.4-2.9-6.4-6.4v-0.8C424.2,458.9,428.5,456.6,432.5,453.9z"
			/>
		<path class="st1" d="M432.5,372v81.9c-4,2.7-8.3,5-12.8,7v-50.4h-12.8v51.3c0,1.3-0.4,2.6-1.1,3.6c-3,0.6-6.1,1.1-9.3,1.4
			c-1.5-1.2-2.4-3-2.4-5V404c0-3.5,2.9-6.4,6.4-6.4h19.2V372c0-10.6-8.6-19.2-19.2-19.2h-12.8c0,14.2-11.5,25.6-25.6,25.6
			c-14.2,0-25.6-11.5-25.6-25.6h-12.8c-10.6,0-19.2,8.6-19.2,19.2v25.6h19.2c3.5,0,6.4,2.9,6.4,6.4v57.7c0,2.2-1.1,4.2-2.9,5.3H320
			c-1.7-1.1-2.9-3.1-2.9-5.3v-51.3h-12.8v51.3c0,2.2-1.1,4.2-2.9,5.3h-7.1c-1.7-1.1-2.8-3.1-2.8-5.3V372c0-17.7,14.3-32,32-32h7.1
			c-8.1-8-13-18.7-13.4-30.1c-15.6-7.4-25.7-23.1-25.7-40.4v-32c0-7.1,5.7-12.8,12.8-12.8h96.1c17.7,0,32,14.4,32,32v12.8
			c-0.1,17.3-10.1,33-25.7,40.4c-0.5,11.4-5.3,22.1-13.4,30.1h7.1C418.1,339.9,432.5,354.3,432.5,372z M419.7,269.4v-12.8
			c0-10.6-8.6-19.2-19.2-19.2h-96.1v32c0,10.1,4.8,19.6,12.8,25.6v-25.6c0-3.5,2.9-6.4,6.4-6.4H362c3.5,0,6.4,2.9,6.4,6.4
			c0,3.5-2.9,6.4-6.4,6.4h-32v32c0,17.7,14.3,32,32,32c17.7,0,32-14.4,32-32v-32h-6.4c-3.5,0-6.4-2.9-6.4-6.4c0-3.5,2.9-6.4,6.4-6.4
			h12.8c3.5,0,6.4,2.9,6.4,6.4V295C414.9,289,419.7,279.5,419.7,269.4z M374.8,352.7h-25.6c0,7.1,5.7,12.8,12.8,12.8
			C369.1,365.5,374.8,359.8,374.8,352.7z"/>
		<path class="st1" d="M416.1,162c9.6,4.5,13.8,15.9,9.3,25.5c-4.5,9.6-15.9,13.8-25.5,9.3l-5.9-2.7v4.9c0,3.5-2.9,6.4-6.4,6.4
			s-6.4-2.9-6.4-6.4v-10.8l-132.8-61.7c-5.2-2.4-11.2-2.4-16.4,0L99.3,188.1v10.8c0,3.5-2.9,6.4-6.4,6.4s-6.4-2.9-6.4-6.4v-4.9
			l-5.9,2.7c-9.6,4.5-21.1,0.3-25.5-9.3c-4.5-9.6-0.3-21.1,9.3-25.5l162.3-75.4c8.6-4,18.6-4,27.2,0L416.1,162z M413.9,182.1
			c1.5-3.2,0.1-7-3.1-8.5L248.4,98.2c-5.2-2.4-11.2-2.4-16.4,0L69.8,173.6c-1.5,0.7-2.7,2-3.3,3.6h0c-0.6,1.6-0.5,3.4,0.2,4.9
			c0.7,1.6,2,2.7,3.6,3.3c1.6,0.6,3.4,0.5,4.9-0.2l151.5-70.4c8.6-4,18.6-4,27.2,0l151.5,70.4C408.5,186.7,412.4,185.3,413.9,182.1z
			"/>
		<path class="st2" d="M419.7,410.4v50.4c-4.5,1.9-9.1,3.4-13.9,4.4c0.7-1,1.1-2.3,1.1-3.6v-51.3H419.7z"/>
		<path class="st3" d="M419.7,372v25.6h-19.2c-3.5,0-6.4,2.9-6.4,6.4v57.7c0,2,0.9,3.8,2.4,5c-2.3,0.2-4.6,0.3-7,0.3h-62.4
			c1.7-1.1,2.9-3.1,2.9-5.3V404c0-3.5-2.9-6.4-6.4-6.4h-19.2V372c0-10.6,8.6-19.2,19.2-19.2h12.8c0,14.2,11.5,25.6,25.6,25.6
			c14.1,0,25.6-11.5,25.6-25.6h12.8C411.1,352.7,419.7,361.3,419.7,372z"/>
		<path class="st2" d="M419.7,256.6v12.8c0,10.1-4.8,19.6-12.8,25.6v-25.6c0-3.5-2.9-6.4-6.4-6.4h-12.8c-3.5,0-6.4,2.9-6.4,6.4
			c0,3.5,2.9,6.4,6.4,6.4h6.4v32c0,17.7-14.4,32-32,32c-17.7,0-32-14.4-32-32v-32h32c3.5,0,6.4-2.9,6.4-6.4c0-3.5-2.9-6.4-6.4-6.4
			h-38.5c-3.5,0-6.4,2.9-6.4,6.4V295c-8.1-6-12.8-15.5-12.8-25.6v-32h96.1C411.1,237.4,419.7,246,419.7,256.6z"/>
		<path class="st3" d="M410.7,173.6c3.2,1.5,4.6,5.3,3.1,8.5c-1.5,3.2-5.3,4.6-8.5,3.1l-151.5-70.4c-8.6-4-18.6-4-27.2,0L75.1,185.2
			c-1.5,0.7-3.3,0.8-4.9,0.2c-1.6-0.6-2.9-1.8-3.6-3.3c-0.7-1.5-0.8-3.3-0.2-4.9h0c0.6-1.6,1.8-2.9,3.3-3.6l162.3-75.4
			c5.2-2.4,11.2-2.4,16.4,0L410.7,173.6z"/>
		<path class="st1" d="M405.7,465.3c-1.2,1.7-3.1,2.8-5.3,2.8c-1.5,0-2.9-0.5-4-1.4C399.6,466.4,402.7,465.9,405.7,465.3z"/>
		<path class="st0" d="M349.2,352.7h25.6c0,7.1-5.7,12.8-12.8,12.8C354.9,365.5,349.2,359.8,349.2,352.7z"/>
		<path class="st1" d="M320,467h7.1c-1,0.7-2.2,1.1-3.6,1.1S321,467.7,320,467z"/>
		<path class="st2" d="M320,467h-18.5c1.7-1.1,2.9-3.1,2.9-5.3v-51.3h12.8v51.3C317.1,463.9,318.3,465.9,320,467z"/>
		<path class="st1" d="M294.4,467h7.1c-1,0.7-2.2,1.1-3.5,1.1S295.4,467.7,294.4,467z"/>
		<path class="st1" d="M278.7,410.4v51.3c0,2.2-1.1,4.2-2.9,5.3h-7.1c-1.7-1.1-2.9-3.1-2.9-5.3v-51.3c0-3.5-2.9-6.4-6.4-6.4H221
			c-3.5,0-6.4,2.9-6.4,6.4v51.3c0,2.2-1.1,4.2-2.9,5.3h-7.1c-1.7-1.1-2.9-3.1-2.9-5.3v-51.3c0-8.5,5.6-15.9,13.7-18.3
			c-4.7-5.7-7.3-12.8-7.3-20.1c0-17.7,14.3-32,32-32s32,14.3,32,32c0,7.4-2.6,14.5-7.3,20.1C273.1,394.5,278.7,401.9,278.7,410.4z
			 M259.5,372c0-10.6-8.6-19.2-19.2-19.2c-10.6,0-19.2,8.6-19.2,19.2s8.6,19.2,19.2,19.2C250.9,391.2,259.5,382.6,259.5,372z"/>
		<path class="st1" d="M278.7,173.3v51.3c0,3.5-2.9,6.4-6.4,6.4s-6.4-2.9-6.4-6.4v-19.2h-19.2v19.2c0,3.5-2.9,6.4-6.4,6.4
			c-3.5,0-6.4-2.9-6.4-6.4v-19.2h-19.2v19.2c0,3.5-2.9,6.4-6.4,6.4c-3.5,0-6.4-2.9-6.4-6.4v-51.3c0-3.5,2.9-6.4,6.4-6.4h64.1
			C275.8,166.9,278.7,169.8,278.7,173.3z M265.9,192.5v-12.8h-19.2v12.8H265.9z M233.8,192.5v-12.8h-19.2v12.8H233.8z"/>
		<path class="st1" d="M268.7,467h7.1c-1,0.7-2.2,1.1-3.5,1.1S269.7,467.7,268.7,467z"/>
		<path class="st0" d="M268.7,467h-57c1.7-1.1,2.9-3.1,2.9-5.3v-51.3c0-3.5,2.9-6.4,6.4-6.4h38.4c3.5,0,6.4,2.9,6.4,6.4v51.3
			C265.9,463.9,267,465.9,268.7,467z"/>
		<rect x="246.6" y="179.7" class="st0" width="19.2" height="12.8"/>
		<path class="st2" d="M240.2,352.7c10.6,0,19.2,8.6,19.2,19.2s-8.6,19.2-19.2,19.2c-10.6,0-19.2-8.6-19.2-19.2
			S229.6,352.7,240.2,352.7z"/>
		<path class="st1" d="M204.6,467h7.1c-1,0.7-2.2,1.1-3.6,1.1S205.7,467.7,204.6,467z"/>
		<path class="st1" d="M189,372v89.7c0,2.2-1.1,4.2-2.9,5.3H179c-1.7-1.1-2.9-3.1-2.9-5.3v-51.3h-12.8v51.3c0,2.2-1.1,4.2-2.9,5.3
			h-7.1c-1.7-1.1-2.9-3.1-2.9-5.3V404c0-3.5,2.9-6.4,6.4-6.4h19.2V372c0-10.6-8.6-19.2-19.2-19.2h-12.8v12.8c0,1.7-0.7,3.3-1.9,4.5
			l-17.3,17.4v29.4c0,3.5-2.9,6.4-6.4,6.4s-6.4-2.9-6.4-6.4v-29.4l-17.3-17.4c-1.2-1.2-1.9-2.8-1.9-4.5v-12.8H80
			c-10.6,0-19.2,8.6-19.2,19.2v25.6H80c3.5,0,6.4,2.9,6.4,6.4v57.7c0,1.9-0.9,3.7-2.2,4.8c-3.3-0.4-6.6-1-9.8-1.8
			c-0.5-0.9-0.8-2-0.8-3.1v-51.3H60.8V460c-4.5-2.1-8.8-4.6-12.8-7.5V372c0-17.7,14.3-32,32-32h7.1c-3.3-3.2-6.1-6.9-8.2-10.9h15.5
			c5.9,6.7,14.5,10.9,24.1,10.9s18.2-4.2,24.1-10.9H158c-2.1,4-4.9,7.7-8.2,10.9h7.1C174.6,339.9,189,354.3,189,372z M131.3,362.9
			v-10.2h-25.6v10.2l12.8,12.8L131.3,362.9z"/>
		<path class="st1" d="M176.4,329c-0.2-0.6-0.3-1.2-0.3-1.9v-44.9c0-31.9-25.8-57.7-57.7-57.7s-57.7,25.8-57.7,57.7v44.9
			c0,0.7-0.1,1.3-0.3,1.9c-0.8,2.6-3.2,4.5-6.1,4.5c-3.5,0-6.4-2.9-6.4-6.4v-44.9c0-38.9,31.6-70.4,70.5-70.5
			c38.9,0,70.4,31.6,70.5,70.5v44.9c0,3.5-2.9,6.4-6.4,6.4C179.7,333.5,177.3,331.6,176.4,329z"/>
		<path class="st1" d="M179,467h7.1c-1,0.7-2.2,1.1-3.5,1.1C181.3,468.1,180,467.7,179,467z"/>
		<path class="st2" d="M179,467h-18.5c1.7-1.1,2.9-3.1,2.9-5.3v-51.3h12.8v51.3C176.2,463.9,177.3,465.9,179,467z"/>
		<path class="st2" d="M176.4,329H158c3.5-6.4,5.3-13.7,5.3-21.1v-38.5c0-3.5-2.9-6.4-6.4-6.4h-12.8c-3.5,0-6.4,2.9-6.4,6.4
			c0,3.5,2.9,6.4,6.4,6.4h6.4v32c0,8.1-3,15.5-8,21.1H94.4c-5-5.6-8-13-8-21.1v-32h32c3.5,0,6.4-2.9,6.4-6.4c0-3.5-2.9-6.4-6.4-6.4
			H80c-3.5,0-6.4,2.9-6.4,6.4v38.5c0,7.4,1.9,14.7,5.3,21.1H60.5c0.2-0.6,0.3-1.2,0.3-1.9v-44.9c0-31.9,25.8-57.7,57.7-57.7
			s57.7,25.8,57.7,57.7v44.9C176.2,327.8,176.3,328.4,176.4,329z"/>
		<path class="st3" d="M176.2,372v25.6h-19.2c-3.5,0-6.4,2.9-6.4,6.4v57.7c0,2.2,1.1,4.2,2.9,5.3H93c-3,0-5.9-0.2-8.8-0.5
			c1.3-1.2,2.2-2.9,2.2-4.8V404c0-3.5-2.9-6.4-6.4-6.4H60.8V372c0-10.6,8.6-19.2,19.2-19.2h12.8v12.8c0,1.7,0.7,3.3,1.9,4.5
			l17.3,17.4v29.4c0,3.5,2.9,6.4,6.4,6.4s6.4-2.9,6.4-6.4v-29.4l17.3-17.4c1.2-1.2,1.9-2.8,1.9-4.5v-12.8h12.8
			C167.6,352.7,176.2,361.3,176.2,372z"/>
		<path class="st1" d="M163.4,269.4v38.5c0,7.4-1.9,14.7-5.3,21.1h-15.5c5-5.6,8-13,8-21.1v-32h-6.4c-3.5,0-6.4-2.9-6.4-6.4
			c0-3.5,2.9-6.4,6.4-6.4h12.8C160.5,263,163.4,265.9,163.4,269.4z"/>
		<path class="st1" d="M153.4,467h7.1c-1,0.7-2.2,1.1-3.6,1.1S154.4,467.7,153.4,467z"/>
		<path class="st2" d="M94.4,329h48.2c-5.9,6.7-14.5,10.9-24.1,10.9S100.3,335.7,94.4,329z"/>
		<polygon class="st2" points="131.3,352.7 131.3,362.9 118.5,375.7 105.7,362.9 105.7,352.7 		"/>
		<path class="st1" d="M118.5,263c3.5,0,6.4,2.9,6.4,6.4c0,3.5-2.9,6.4-6.4,6.4h-32v32c0,8.1,3,15.5,8,21.1H78.9
			c-3.4-6.4-5.3-13.7-5.3-21.1v-38.5c0-3.5,2.9-6.4,6.4-6.4H118.5z"/>
		<path class="st1" d="M84.2,466.5c-1.1,1-2.6,1.6-4.2,1.6c-2.4,0-4.5-1.3-5.6-3.3C77.6,465.5,80.9,466.1,84.2,466.5z"/>
		<path class="st2" d="M73.6,461.7c0,1.1,0.3,2.1,0.8,3.1c-4.7-1.2-9.3-2.8-13.6-4.8v-49.5h12.8V461.7z"/>
		<path class="st1" d="M60.8,460v1.7c0,3.5-2.9,6.4-6.4,6.4s-6.4-2.9-6.4-6.4v-9.2C52,455.4,56.3,457.9,60.8,460z"/>
	</g>
	<g>
		<line class="st4" x1="158" y1="329" x2="176.4" y2="329"/>
		<line class="st4" x1="94.4" y1="329" x2="142.6" y2="329"/>
		<line class="st4" x1="60.5" y1="329" x2="78.9" y2="329"/>
		<path class="st5" d="M186.1,467c1.7-1.1,2.9-3.1,2.9-5.3V372c0-17.7-14.4-32-32-32h-7.1c3.3-3.2,6.1-6.9,8.2-10.9
			c3.5-6.4,5.3-13.7,5.3-21.1v-38.5c0-3.5-2.9-6.4-6.4-6.4h-12.8c-3.5,0-6.4,2.9-6.4,6.4c0,3.5,2.9,6.4,6.4,6.4h6.4v32
			c0,8.1-3,15.5-8,21.1c-5.9,6.7-14.5,10.9-24.1,10.9s-18.2-4.2-24.1-10.9c-5-5.6-8-13-8-21.1v-32h32c3.5,0,6.4-2.9,6.4-6.4
			c0-3.5-2.9-6.4-6.4-6.4H80c-3.5,0-6.4,2.9-6.4,6.4v38.5c0,7.4,1.9,14.7,5.3,21.1c2.1,4,4.9,7.7,8.2,10.9H80c-17.7,0-32,14.3-32,32
			v80.5v9.2c0,3.5,2.9,6.4,6.4,6.4s6.4-2.9,6.4-6.4V460v-49.5h12.8v51.3c0,1.1,0.3,2.1,0.8,3.1c1.1,2,3.2,3.3,5.6,3.3
			c1.6,0,3.1-0.6,4.2-1.6c1.3-1.2,2.2-2.9,2.2-4.8V404c0-3.5-2.9-6.4-6.4-6.4H60.8V372c0-10.6,8.6-19.2,19.2-19.2h12.8v12.8
			c0,1.7,0.7,3.3,1.9,4.5l17.3,17.4v29.4c0,3.5,2.9,6.4,6.4,6.4s6.4-2.9,6.4-6.4v-29.4l17.3-17.4c1.2-1.2,1.9-2.8,1.9-4.5v-12.8
			h12.8c10.6,0,19.2,8.6,19.2,19.2v25.6h-19.2c-3.5,0-6.4,2.9-6.4,6.4v57.7c0,2.2,1.1,4.2,2.9,5.3c1,0.7,2.2,1.1,3.6,1.1
			s2.5-0.4,3.6-1.1c1.7-1.1,2.9-3.1,2.9-5.3v-51.3h12.8v51.3c0,2.2,1.1,4.2,2.9,5.3c1,0.7,2.2,1.1,3.6,1.1
			C183.9,468.1,185.1,467.7,186.1,467z"/>
		<path class="st5" d="M176.4,329c0.8,2.6,3.2,4.5,6.1,4.5c3.5,0,6.4-2.9,6.4-6.4v-44.9c-0.1-38.9-31.6-70.4-70.5-70.5
			c-38.9,0-70.4,31.6-70.5,70.5v44.9c0,3.5,2.9,6.4,6.4,6.4c2.9,0,5.3-1.9,6.1-4.5c0.2-0.6,0.3-1.2,0.3-1.9v-44.9
			c0-31.9,25.8-57.7,57.7-57.7s57.7,25.8,57.7,57.7v44.9C176.2,327.8,176.3,328.4,176.4,329z"/>
		<path class="st6" d="M396.5,466.7c-2.3,0.2-4.6,0.3-7,0.3h-62.4H320h-18.5h-7.1h-18.5h-7.1h-57h-7.1h-18.5H179h-18.5h-7.1H93
			c-3,0-5.9-0.2-8.8-0.5c-3.3-0.4-6.6-1-9.8-1.8c-4.7-1.2-9.3-2.8-13.6-4.8c-4.5-2.1-8.8-4.6-12.8-7.5c-19.6-14.1-32.5-37.1-32.5-63
			V93c0-42.6,34.9-77.5,77.5-77.5h296.5c42.6,0,77.5,34.9,77.5,77.5v296.5c0,26.8-13.7,50.5-34.5,64.4c-4,2.7-8.3,5-12.8,7
			c-4.5,1.9-9.1,3.4-13.9,4.4C402.7,465.9,399.6,466.4,396.5,466.7z"/>
	</g>
</g>
</svg>
