<?xml version="1.0" encoding="utf-8"?>
<!-- Generator: Adobe Illustrator 22.1.0, SVG Export Plug-In . SVG Version: 6.00 Build 0)  -->
<svg version="1.1" id="Слой_1" xmlns="http://www.w3.org/2000/svg" xmlns:xlink="http://www.w3.org/1999/xlink" x="0px" y="0px"
	 viewBox="0 0 512 512" style="enable-background:new 0 0 512 512;" xml:space="preserve">
<style type="text/css">
	.st0{fill:#2698D4;}
	.st1{fill:#EAF3FF;}
	.st2{fill:#FFFFFF;}
	.st3{fill:#C9F3FF;}
	.st4{fill:#26CFD4;}
	.st5{fill:#002E57;}
	.st6{fill:none;stroke:#002E57;stroke-width:24;stroke-miterlimit:10;}
	.st7{fill:none;stroke:#002E57;stroke-width:19;stroke-miterlimit:10;}
</style>
<path class="st0" d="M291.4,189.5v41.2c0,34.1-27.6,61.7-61.7,61.7h-7.3c-34.1,0-61.7-27.6-61.7-61.7v-41.2H291.4z"/>
<path class="st1" d="M226,292.5H212c-38.9,0-77.6,6.4-114.5,19.1c-31.4,10.7-52.4,40.2-52.4,73.4v96.7h181.1h-0.2H407v-95.4
	c0-33.8-21.9-63.7-54.1-73.9l-10.2-3.3c-34.5-11-70.5-16.5-106.7-16.5h-9.8"/>
<g>
	<path class="st2" d="M195.7,437.8l30.3-98.5l29.9,98.5l-9.1,43h-41.6L195.7,437.8z"/>
	<path class="st2" d="M226.2,298.6l20.3,20.3l-20.3,20.3l-20.3-20.3L226.2,298.6z"/>
	<path class="st2" d="M289.7,297.9l-29,29.2L226,292.5l-34.6,34.6l-29-29.2H289.7z"/>
	<path class="st2" d="M289.7,297.9l-42.9,182.9h11.5l80.2-96.5h-37.5l37.5-76.5L289.7,297.9z"/>
	<path class="st2" d="M162.4,297.9l42.9,182.9h-11.5l-80.7-97h37.7l-37.7-76.9L162.4,297.9z"/>
</g>
<path class="st3" d="M225.9,171.5h65.5v55.8h-47.6L226,209.5l-17.8,17.8h-47.6v-55.8h65.5"/>
<path class="st4" d="M317.5,82h-85.8c-39.2,0-71,31.8-71,71v18.4h101.7c30.4,0,55.1-24.7,55.1-55.1V82z"/>
<path class="st3" d="M142.5,94.4c0,28.2-22.9,51.1-51.1,51.1s-51.1-22.9-51.1-51.1c0-28.2,22.9-51.1,51.1-51.1
	S142.5,66.2,142.5,94.4z"/>
<path class="st5" d="M338.4,477.6c-2.4,0-4.8,1-6.5,2.7c-1.7,1.7-2.7,4.1-2.7,6.5s1,4.8,2.7,6.5c1.7,1.7,4.1,2.7,6.5,2.7
	c2.4,0,4.8-1,6.5-2.7c1.7-1.7,2.7-4.1,2.7-6.5s-1-4.8-2.7-6.5C343.2,478.5,340.8,477.6,338.4,477.6z"/>
<path class="st5" d="M82.2,153.9v41.4c0,5,4.1,9.1,9.1,9.1c5,0,9.1-4.1,9.1-9.1v-41.4c28.9-4.4,51.1-29.4,51.1-59.5
	c0-33.2-27-60.2-60.2-60.2s-60.2,27-60.2,60.2C31.1,124.5,53.4,149.5,82.2,153.9z M91.4,52.4c23.1,0,42,18.8,42,42s-18.8,42-42,42
	s-42-18.8-42-42S68.2,52.4,91.4,52.4z"/>
<path class="st5" d="M484.8,177.6l17.1-29.6c1.6-2.8,1.6-6.3,0-9.1l-19.7-34.1c-1.6-2.8-4.6-4.6-7.9-4.6h-35l-17.1-29.6
	c-2.5-4.4-8.1-5.9-12.5-3.3c-4.4,2.5-5.9,8.1-3.3,12.5l17.1,29.6l-14.4,25h-28.9l-14.4-25l17.1-29.6c2.5-4.4,1-9.9-3.3-12.5
	c-4.4-2.5-9.9-1-12.5,3.3l-17.1,29.6h-23.2V82c0-5-4.1-9.1-9.1-9.1h-85.8c-44.2,0-80.1,35.9-80.1,80.1v77.7
	c0,21.8,9.9,41.3,25.4,54.3c-28,2.7-55.6,8.7-82.4,17.9c-35,12-58.6,45-58.6,82v96.7c0,5,4.1,9.1,9.1,9.1h263.7c5,0,9.1-4.1,9.1-9.1
	c0-5-4.1-9.1-9.1-9.1h-31.7l68.5-82.4c2.3-2.7,2.7-6.5,1.2-9.7c-1.5-3.2-4.7-5.2-8.3-5.2h-22.9l27.6-56.3l6.8,2.2
	c28.6,9.1,47.7,35.3,47.7,65.2v86.2h-15.5c-5,0-9.1,4.1-9.1,9.1c0,5,4.1,9.1,9.1,9.1H407c5,0,9.1-4.1,9.1-9.1v-95.4
	c0-38-24.3-71.2-60.5-82.6l-10.2-3.3c-23.1-7.3-46.8-12.3-70.9-14.9c15.8-13,26-32.7,26-54.8v-59.3c0-1.1-0.2-2.1-0.5-3.1
	c15.6-11.3,25.9-29.4,26.6-50h23.3l17.1,29.6c1.6,2.8,4.6,4.6,7.9,4.6h39.4c3.3,0,6.3-1.7,7.9-4.6l17.1-29.6H469l14.4,25l-14.4,25
	h-34.2c-3.3,0-6.3,1.7-7.9,4.6l-17.1,29.6H381L363.9,173c-2.5-4.4-8.1-5.9-12.5-3.3c-4.4,2.5-5.9,8.1-3.3,12.5l16.6,28.8l-17.5,30.3
	c-1.6,2.8-1.6,6.3,0,9.1l19.7,34.1c1.6,2.8,4.6,4.6,7.9,4.6h39.4c3.2,0,6.2-1.7,7.8-4.4L440,255h34.3c3.3,0,6.3-1.7,7.9-4.6
	l19.7-34.1c1.6-2.8,1.6-6.3,0-9.1L484.8,177.6z M212.7,472.5l-7.8-33.4l21.1-68.6L247,440l-7.6,32.5H212.7z M159,379.8l-33-67.2
	c9.6-2.5,19.2-4.5,29-6.2L192,464.4l-59.5-71.5h18.2c3.2,0,6.1-1.6,7.7-4.3C160.2,385.9,160.4,382.6,159,379.8z M178.6,327.1
	l6.4,6.4c1.7,1.7,4,2.7,6.5,2.7h0c2.4,0,4.7-1,6.5-2.7l4.8-4.8l13,13l-19.1,62.2L178.6,327.1z M226.2,326.4l-10.6-10.6l10.4-10.4
	l10.6,10.6L226.2,326.4z M191.4,314.2l-11.1-11.1c7.8-0.7,15.7-1.2,23.5-1.4L191.4,314.2z M255.4,404.5l-19-62.6l13.1-13.1l4.7,4.7
	c1.7,1.7,4,2.7,6.5,2.7h0c2.4,0,4.7-1,6.5-2.7l6.4-6.4L255.4,404.5z M260.7,314.2l-12.2-12.2c7.6,0.3,15.3,0.8,22.8,1.6L260.7,314.2
	z M54.2,384.9c0-29.2,18.6-55.3,46.3-64.7c2.6-0.9,5.1-1.7,7.7-2.5l28,57h-23.1c-3.5,0-6.8,2-8.3,5.2c-1.5,3.2-1,7,1.2,9.7l69,82.9
	H54.2V384.9z M293.3,389.2c1.7,2.7,4.6,4.3,7.7,4.3h18l-59,71l36.9-157.3c9.6,1.7,19.2,3.9,28.7,6.4l-32.7,66.7
	C291.5,383.1,291.6,386.5,293.3,389.2z M229.7,283.3h-7.3c-27.1,0-49.5-20.6-52.3-47h38.1c2.4,0,4.7-1,6.5-2.7l11.3-11.3l11.3,11.3
	c1.7,1.7,4,2.7,6.5,2.7H282C279.1,262.7,256.8,283.3,229.7,283.3z M282.3,180.6v37.5h-34.7L232.5,203c-1.7-1.7-4-2.7-6.5-2.7
	s-4.7,1-6.5,2.7l-15.1,15.1h-34.7v-37.5H282.3z M308.3,116.4c0,25.3-20.6,46-46,46h-92.6V153c0-34.1,27.8-61.9,61.9-61.9h76.6V116.4
	z M409.1,270.9h-29l-14.4-25l14.4-25h29.8l14.4,24.9L409.1,270.9z M469,236.8h-28.9l-14.4-25l14.4-25H469l14.4,25L469,236.8z"/>
<path class="st6" d="M424,501H88.5c-42.3,0-77-34.6-77-77V88.5c0-42.3,34.7-77,77-77H424c42.4,0,77,34.7,77,77V424
	C501,466.4,466.4,501,424,501z"/>
<line class="st7" x1="269.5" y1="481.6" x2="407" y2="481.6"/>
</svg>
