<?xml version="1.0" encoding="utf-8"?>
<!-- Generator: Adobe Illustrator 22.1.0, SVG Export Plug-In . SVG Version: 6.00 Build 0)  -->
<svg version="1.1" id="Слой_1" xmlns="http://www.w3.org/2000/svg" xmlns:xlink="http://www.w3.org/1999/xlink" x="0px" y="0px"
	 viewBox="0 0 511 511" style="enable-background:new 0 0 511 511;" xml:space="preserve">
<style type="text/css">
	.st0{fill:#002E57;}
	.st1{fill:#154C6D;}
	.st2{fill:#9FECEA;}
	.st3{fill:#B8ECEA;}
	.st4{fill:none;stroke:#002E57;stroke-width:30;stroke-miterlimit:10;}
</style>
<path class="st0" d="M186,402.5c0-32.8-15.2-58.9-46.6-79.5c9.8-55.5,9.2-51.8,9.2-53.1c0-5.4-4.4-9.7-9.7-9.7H94.3
	c-6.1,0-10.8,5.5-9.6,11.6l9.1,51.2c-31,20.7-46.1,46.6-46.1,79.2c0,11.4-2.3,36.4,20.2,57.1c8.1,7.5,18.7,11.6,29.7,11.6h37.6
	c10.4,0,20.5-3.5,29.5-11.4C187.8,439.1,186,413.9,186,402.5z M135,273.1l-8.1,46h-20.7l-8.2-46H135z M155.7,450.3
	c-5.6,5-12.9,7.7-20.4,7.7H97.7c-7.8,0-15.2-2.9-21-8.2c-10.2-9.4-16-22.7-16-36.6c0-19.8-2.9-51.6,42-80.6h27.8
	c29,18.5,42.5,40.8,42.5,69.9C173,414.9,174.6,433.6,155.7,450.3z"/>
<polygon class="st1" points="135,273.1 127,319.1 106.3,319.1 98.1,273.1 "/>
<path class="st1" d="M155.7,450.3c-5.6,5-12.9,7.7-20.4,7.7H97.7c-7.8,0-15.2-2.9-21-8.2c-10.2-9.4-16-22.7-16-36.6
	c0-19.8-2.9-51.6,42-80.6h27.8c29,18.5,42.5,40.8,42.5,69.9C173,414.9,174.6,433.6,155.7,450.3z"/>
<path class="st0" d="M435.5,429.5c2.3-5.1,2.5-11.2,0-16.7c14.4,0,22.3-10.3,22.3-20.8c0-10.5-7.9-20.8-22.3-20.8
	c6-13.7-4.1-29.1-19-29.1h-13c47.9-29.3,54.5-96.5,13.1-134.6c-20.2-18.5-46.5-25.2-71.1-21.1c1-2.7,1.1-4.6,0.2-14.1
	c-0.3-3.6-3.5-6.2-7-5.8c-3.6,0.3-6.2,3.5-5.8,7c0.3,2.8,0.4,5.6,0.6,8.4c0,0.1-0.1,0.3-0.3,0.3h-52.8c-1-14.3-5.8-50.4-28.2-86.7
	c-1.9-3-5.8-4-8.9-2.1c-3,1.9-4,5.8-2.1,8.9c20.6,33.4,25.2,66.3,26.3,79.9h-64.5V59.1c8.7,7,16.6,14.7,23.7,23.1
	c2.3,2.7,6.4,3.1,9.1,0.8c2.7-2.3,3.1-6.4,0.8-9.1c-7-8.4-14.9-16.2-23.5-23.3c55.3,5.5,100.8,43.7,115.5,98.6
	c0.8,2.9,3.4,4.8,6.2,4.8c4.3,0,7.3-4,6.3-8.1c-8.7-32.4-27.3-60-53.7-79.7c-56.9-42.5-140.9-37.8-192.5,8.9
	c-2.6,2.4-2.8,6.5-0.5,9.1c2.4,2.6,6.5,2.8,9.1,0.5c20.6-18.6,46.5-30.1,75.9-33.6c-33,27.6-49.3,60.8-57.4,85
	c-6.8,20.4-8.8,37.4-9.4,46.2H59.7c-0.2,0-0.3-0.1-0.3-0.3c1.3-29.6,10.7-57,27.4-79.2c2.1-2.8,1.6-6.9-1.3-9
	c-2.8-2.1-6.9-1.6-9,1.3c-18.2,24.3-28.6,54.2-30,86.4c-0.3,7.5,5.8,13.8,13.2,13.8h130.2v47c0,8.2-6.7,14.9-14.9,14.9h-13
	c-3.6,0-6.5,2.9-6.5,6.5s2.9,6.5,6.5,6.5h13c15.4,0,27.8-12.5,27.8-27.9v-47h116.7c-12.8,6.8-24.1,17-32.4,30.5h-46
	c-11.5,0-20.8,9.3-20.8,20.8c0,10.4,7.7,19,17.6,20.5c-2.4,5.3-2.5,11.5-0.1,16.9h-25.5c-19.8,0-28.3,25.3-12.6,37.3
	c-10.4,13.5-0.8,33.4,16.5,33.4h3.7c-6,13.7,4.2,29.1,19.1,29.1h6.8c-2.3,5.2-2.4,11.3,0,16.7H227c-15,0-25.1,15.5-19.1,29.1
	c-12.6,0-21.3,9.8-21.3,20.8c0,11.5,9.3,20.8,20.8,20.8h226.1c11.5,0,20.8-9.3,20.8-20.8C454.4,439.4,446.1,430.5,435.5,429.5z
	 M189.9,182.2h-64.5c1.6-19.5,10.7-79.8,64.5-123.2V182.2z M437,383.7c4.6,0,8.3,3.7,8.3,8.3c0,4.6-3.7,8.3-8.3,8.3H325.2
	c-4.6,0-8.3-3.7-8.3-8.3c0-4.6,3.7-8.3,8.3-8.3H437z M416.5,354.6c4.6,0,8.3,3.7,8.3,8.3c0,4.6-3.7,8.3-8.3,8.3H304.7
	c-4.6,0-8.3-3.7-8.3-8.3c0-4.4,3.4-8,7.7-8.3C304,354.6,334.6,354.6,416.5,354.6z M306.1,400.3h-41.3c-4.6,0-8.3-3.7-8.3-8.3
	c0-4.6,3.7-8.3,8.3-8.3h41.3C303.8,388.9,303.8,395,306.1,400.3z M288.7,254.8C288.7,254.8,288.7,254.8,288.7,254.8
	c11.7-54.7,78.5-75.6,119.4-38c29.2,26.8,31.4,72.5,4.4,102c-35.9,39.1-100.7,27.4-120.3-22.3c0,0,0,0,0,0
	C287.2,283.9,285.6,269.4,288.7,254.8z M232.8,246.5c0-4.6,3.7-8.3,8.3-8.3h39.7c-2.2,5.3-3.8,10.9-4.8,16.6h-34.9
	C236.5,254.8,232.8,251,232.8,246.5z M275.8,283.9h-18.9c-4.6,0-8.3-3.7-8.3-8.3s3.7-8.3,8.3-8.3h17.8
	C274.5,272.3,274.8,278.1,275.8,283.9z M204.1,304.7c0-4.6,3.7-8.3,8.3-8.3h66.5c1.9,5.8,4.4,11.4,7.5,16.6h-74
	C207.8,313,204.1,309.3,204.1,304.7z M216.3,342.1c-4.6,0-8.3-3.7-8.3-8.3c0-4.6,3.7-8.3,8.3-8.3h79.2c5.8,6.6,12.4,12.2,19.6,16.6
	C249.7,342.1,216.3,342.1,216.3,342.1z M239,371.2c-4.6,0-8.3-3.7-8.3-8.3c0-4.4,3.4-8,7.7-8.3h47.2c-2.3,5.3-2.3,11.4,0,16.6H239z
	 M227,412.8h58.6c-2.2,5.1-2.4,11.2,0,16.6c-35.6,0-51.4,0-60,0C217.4,429.5,215.3,412.8,227,412.8z M302.7,458.6h-95.2
	c-4.6,0-8.3-3.7-8.3-8.3c0-4.6,3.7-8.3,8.3-8.3h95.2C300.4,447.3,300.4,453.4,302.7,458.6z M296.4,421.1c0-4.6,3.7-8.3,8.3-8.3
	h111.8c4.6,0,8.3,3.7,8.3,8.3c0,4.6-3.7,8.3-8.3,8.3H304.7C300.1,429.4,296.4,425.7,296.4,421.1z M433.6,458.6
	c-119.6,0-112.1,0-113.1-0.1c-4-0.6-7.1-4.1-7.1-8.2c0-4.6,3.8-8.3,8.3-8.3h111.8c4.6,0,8.3,3.7,8.3,8.3
	C441.9,454.8,438.2,458.6,433.6,458.6z"/>
<path class="st2" d="M280.8,238.1c-2.2,5.3-3.8,10.9-4.8,16.6h-34.9c-4.6,0-8.3-3.7-8.3-8.3c0-4.6,3.7-8.3,8.3-8.3H280.8z"/>
<path class="st2" d="M286.4,313h-74c-4.6,0-8.3-3.7-8.3-8.3c0-4.6,3.7-8.3,8.3-8.3h66.5C280.8,302.2,283.3,307.8,286.4,313z"/>
<path class="st2" d="M285.6,371.2H239c-4.6,0-8.3-3.7-8.3-8.3c0-4.4,3.4-8,7.7-8.3h47.2C283.3,359.9,283.3,366,285.6,371.2z"/>
<path class="st2" d="M285.6,429.4c-35.6,0-51.4,0-60,0c-8.2,0-10.3-16.6,1.3-16.6h58.6C283.4,417.9,283.2,424,285.6,429.4z"/>
<path class="st2" d="M441.9,450.2c0,4.6-3.7,8.3-8.3,8.3c-119.6,0-112.1,0-113.1-0.1c-4-0.6-7.1-4.1-7.1-8.2c0-4.6,3.8-8.3,8.3-8.3
	h111.8C438.2,441.9,441.9,445.7,441.9,450.2z"/>
<path class="st2" d="M445.3,392c0,4.6-3.7,8.3-8.3,8.3H325.2c-4.6,0-8.3-3.7-8.3-8.3c0-4.6,3.7-8.3,8.3-8.3H437
	C441.6,383.7,445.3,387.4,445.3,392z"/>
<path class="st3" d="M275.8,283.9h-18.9c-4.6,0-8.3-3.7-8.3-8.3s3.7-8.3,8.3-8.3h17.8C274.5,272.3,274.8,278.1,275.8,283.9z"/>
<path class="st3" d="M315,342.1c-65.3,0-98.8,0-98.8,0c-4.6,0-8.3-3.7-8.3-8.3c0-4.6,3.7-8.3,8.3-8.3h79.2
	C301.2,332.1,307.8,337.7,315,342.1z"/>
<path class="st3" d="M306.1,400.3h-41.3c-4.6,0-8.3-3.7-8.3-8.3c0-4.6,3.7-8.3,8.3-8.3h41.3C303.8,388.9,303.8,395,306.1,400.3z"/>
<path class="st3" d="M302.7,458.6h-95.2c-4.6,0-8.3-3.7-8.3-8.3c0-4.6,3.7-8.3,8.3-8.3h95.2C300.4,447.3,300.4,453.4,302.7,458.6z"
	/>
<path class="st3" d="M424.8,421.1c0,4.6-3.7,8.3-8.3,8.3H304.7c-4.6,0-8.3-3.7-8.3-8.3c0-4.6,3.7-8.3,8.3-8.3h111.8
	C421.1,412.8,424.8,416.5,424.8,421.1z"/>
<path class="st3" d="M424.8,362.9c0,4.6-3.7,8.3-8.3,8.3H304.7c-4.6,0-8.3-3.7-8.3-8.3c0-4.4,3.4-8,7.7-8.3c0,0,30.6,0,112.5,0
	C421.1,354.6,424.8,358.3,424.8,362.9z"/>
<path class="st3" d="M408.1,216.7c-40.9-37.5-107.7-16.7-119.4,38c0,0,0,0,0,0c-3.1,14.6-1.5,29.1,3.5,41.6c0,0,0,0,0,0
	c19.6,49.7,84.4,61.5,120.3,22.3C439.5,289.3,437.3,243.5,408.1,216.7z M348.7,331.5c-20.2-3.4-37.4-16.7-46-35.1c0,0,0,0,0,0
	c-5.9-12.5-7.6-27.3-4-41.6l0,0c11.3-45.3,67.3-62.9,102.4-31.3c2.6,2.3,2.8,6.3,0.5,8.8c-2.3,2.6-6.3,2.8-8.8,0.5
	c-27-24.3-70.1-12.5-81,22c0,0,0,0,0,0c-1.3,4-2.1,8.2-2.3,12.5c0,0,0,0,0,0c-0.6,9.7,1.9,20.1,7.5,29.1c0,0,0,0,0,0
	c5.6,9,14.1,16.2,24.4,20.2c40.9,15.9,81-25.4,64.1-65.8c-1.3-3.2,0.2-6.8,3.4-8.2c3.2-1.3,6.8,0.2,8.2,3.4
	C435.7,290.8,397.7,339.9,348.7,331.5z M338.1,293.6c0-2.4,2.1-5.3,4.5-5.3c1.4,0,2.5,1,3.7,2.3c2.1,2.1,5.1,5,11.5,5
	c4.2,0,11.1-1.3,11.1-9.8c0-12.1-15-11.1-23.6-18.4c0,0,0,0,0,0c-3.2-2.7-5.5-6.5-5.6-12.5c0,0,0,0,0,0c-0.4-8.4,4.3-15.3,13.3-17.5
	v-10.4c0-3.5,2.8-6.2,6.2-6.2s6.2,2.8,6.2,6.2v9.9c0.7,0,4.3,0.7,6.5,1.5c3,1.1,5.4,2.8,5.4,5.4c0,1.8-1.3,4.8-3.8,5.3
	c-1.3,0.3-2.5-0.4-3.7-1c-7.8-4-20.2-3.5-20.2,5.7c0,8.4,10.6,8.6,19.4,13.8h0c14.7,8.5,12.9,32.6-3.6,36.7v9c0,3.5-2.8,6.2-6.2,6.2
	s-6.2-2.8-6.2-6.2v-8.5C343.8,302.9,338.1,297.5,338.1,293.6z"/>
<path class="st0" d="M365.5,304v9c0,3.5-2.8,6.2-6.2,6.2s-6.2-2.8-6.2-6.2v-8.5c-9.3-1.5-14.9-7-14.9-10.9c0-2.4,2.1-5.3,4.5-5.3
	c1.4,0,2.5,1,3.7,2.3c2.1,2.1,5.1,5,11.5,5c4.2,0,11.1-1.3,11.1-9.8c0-12.1-15-11.1-23.6-18.4c0,0,0,0,0,0
	c-3.2-2.7-5.5-6.5-5.6-12.5c0,0,0,0,0,0c-0.4-8.4,4.3-15.3,13.3-17.5v-10.4c0-3.5,2.8-6.2,6.2-6.2s6.2,2.8,6.2,6.2v9.9
	c0.7,0,4.3,0.7,6.5,1.5c3,1.1,5.4,2.8,5.4,5.4c0,1.8-1.3,4.8-3.8,5.3c-1.3,0.3-2.5-0.4-3.7-1c-7.8-4-20.2-3.5-20.2,5.7
	c0,8.4,10.6,8.6,19.4,13.8h0C383.9,275.8,382,299.8,365.5,304z"/>
<path class="st0" d="M348.7,331.5c-20.2-3.4-37.4-16.7-46-35.1c0,0,0,0,0,0c-5.9-12.5-7.6-27.3-4-41.6l0,0
	c11.3-45.3,67.3-62.9,102.4-31.3c2.6,2.3,2.8,6.3,0.5,8.8c-2.3,2.6-6.3,2.8-8.8,0.5c-27-24.3-70.1-12.5-81,22c0,0,0,0,0,0
	c-1.3,4-2.1,8.2-2.3,12.5c0,0,0,0,0,0c-0.6,9.7,1.9,20.1,7.5,29.1c0,0,0,0,0,0c5.6,9,14.1,16.2,24.4,20.2
	c40.9,15.9,81-25.4,64.1-65.8c-1.3-3.2,0.2-6.8,3.4-8.2c3.2-1.3,6.8,0.2,8.2,3.4C435.7,290.8,397.7,339.9,348.7,331.5z"/>
<path class="st4" d="M418.5,496H93c-42.6,0-77.5-34.9-77.5-77.5V93c0-42.6,34.9-77.5,77.5-77.5h325.5c42.6,0,77.5,34.9,77.5,77.5
	v325.5C496,461.1,461.1,496,418.5,496z"/>
</svg>
