<?xml version="1.0" encoding="utf-8"?>
<!-- Generator: Adobe Illustrator 22.1.0, SVG Export Plug-In . SVG Version: 6.00 Build 0)  -->
<svg version="1.1" id="Слой_1" xmlns="http://www.w3.org/2000/svg" xmlns:xlink="http://www.w3.org/1999/xlink" x="0px" y="0px"
	 viewBox="0 0 493 493" style="enable-background:new 0 0 493 493;" xml:space="preserve">
<style type="text/css">
	.st0{fill:#002E57;}
	.st1{fill:#BAEAE5;}
	.st2{fill:#F9FBE5;}
	.st3{fill:#385688;}
	.st4{fill:#4C426F;}
	.st5{fill:#4C4286;}
	.st6{fill:none;stroke:#002E57;stroke-width:30;stroke-miterlimit:10;}
</style>
<path class="st0" d="M444.8,265.5l-19.3-122.1c-0.6-3.5-3.8-6-7.3-5.6c-16.1,1.5-28.1,15.5-27.3,31.6l1.2,49.5
	c-13.3,1.3-24.8,9.5-30.6,21.5l-18.1,38c-2.8,5.9-6.9,11.1-12,15.2l-3.8,3c-19.1,15.3-29.8,38.8-28.7,63.2l-7.4-3.5
	c-3.4-1.6-7.4-0.2-9,3.2l-19.9,41.7c-1.6,3.3-0.2,7.4,3.2,9l91.4,43.6c1.6,0.8,3.5,0.9,5.1,0.3c1.7-0.6,3.1-1.8,3.8-3.5l19.8-41.7
	c1.6-3.3,0.2-7.4-3.2-9l-2.4-1.2l-2.5-14c-0.3-5,1.3-9.9,4.5-13.8l47.3-57.3c0.1-0.1,0.2-0.2,0.3-0.4c9.8-13.6,14.9-30,14.7-46.8
	C444.9,266.1,444.9,265.8,444.8,265.5z M357.1,438.6l-79.3-37.8l14.1-29.5l79.3,37.8L357.1,438.6z M419.4,305.2l-47.2,57.1
	c-5.5,6.6-8.2,15.1-7.5,23.6c0,0.2,0,0.4,0.1,0.7l0.9,5l-52.5-25c-3.7-22.5,5.1-45.3,22.9-59.5l3.8-3c6.7-5.4,12-12.1,15.7-19.9
	l18.1-38c4.7-9.9,15.5-15.5,26.3-13.7l-26.5,55.5c-1,2.2-0.8,4.7,0.5,6.7c1.4,2,3.7,3.1,6.1,2.9c2.4-0.2,4.5-1.7,5.5-3.8l29.8-62.5
	c1.6-3.4,0.2-7.4-3.2-9c-2.1-1-4.4-1.8-6.6-2.4l-1.2-51c0-0.1,0-0.1,0-0.2c-0.4-6.6,3.2-12.8,9.1-15.9l18.1,114.2
	C431.5,280.7,427.3,294.1,419.4,305.2z"/>
<path class="st1" d="M431.5,267.1c0.1,13.6-4.1,27-12,38.1l-47.2,57.1c-5.5,6.6-8.2,15.1-7.5,23.6c0,0.2,0,0.4,0.1,0.7l0.9,5
	l-52.5-25c-3.7-22.5,5.1-45.3,22.9-59.5l3.8-3c6.7-5.4,12-12.1,15.7-19.9l18.1-38c4.7-9.9,15.5-15.5,26.3-13.7l-26.5,55.5
	c-1,2.2-0.8,4.7,0.5,6.7c1.4,2,3.7,3.1,6.1,2.9c2.4-0.2,4.5-1.7,5.5-3.8l29.8-62.5c1.6-3.4,0.2-7.4-3.2-9c-2.1-1-4.4-1.8-6.6-2.4
	l-1.2-51c0-0.1,0-0.1,0-0.2c-0.4-6.6,3.2-12.8,9.1-15.9L431.5,267.1z"/>
<polygon class="st2" points="371.1,409.1 357.1,438.6 277.8,400.8 291.8,371.3 "/>
<path class="st0" d="M226.7,401.1l-19.8-41.7c-1.6-3.4-5.6-4.8-9-3.2l-7.4,3.5c1.1-24.5-9.5-48-28.7-63.2l-3.8-3
	c-5.1-4.1-9.2-9.3-12-15.2l-18.1-38c-5.7-12-17.3-20.2-30.6-21.5l1.2-49.5c0.8-16.2-11.3-30.1-27.4-31.6c-3.5-0.3-6.7,2.1-7.3,5.6
	L44.6,265.5c0,0.3-0.1,0.6-0.1,1c-0.2,16.8,4.9,33.2,14.7,46.8c0.1,0.1,0.2,0.3,0.3,0.4l47.4,57.3c3.2,3.8,4.8,8.8,4.5,13.8l-2.5,14
	l-2.4,1.2c-3.4,1.6-4.8,5.6-3.2,9l19.8,41.7c0.8,1.6,2.1,2.9,3.8,3.5c1.7,0.6,3.5,0.5,5.2-0.3l91.4-43.6
	C226.9,408.5,228.3,404.5,226.7,401.1z M70,305.2c-7.9-11.1-12.1-24.4-12-38.1L76,152.9c5.9,3,9.5,9.2,9.1,15.9c0,0.1,0,0.1,0,0.2
	l-1.2,51c-2.3,0.6-4.5,1.4-6.6,2.4c-3.4,1.6-4.8,5.6-3.2,9l29.8,62.5c1,2.2,3.1,3.6,5.5,3.8c2.4,0.2,4.7-0.9,6.1-2.9
	c1.4-2,1.6-4.6,0.5-6.7l-26.5-55.5c10.8-1.8,21.5,3.8,26.3,13.7l18.1,38c3.7,7.7,9.1,14.5,15.7,19.9l3.8,3
	c17.8,14.2,26.6,37,22.9,59.5l-52.5,25l0.9-5c0-0.2,0.1-0.4,0.1-0.7c0.7-8.6-2-17-7.5-23.6L70,305.2z M132.3,438.6l-14.1-29.5
	l79.3-37.8l14.1,29.5L132.3,438.6z"/>
<path class="st1" d="M176.3,366.6l-52.5,25l0.9-5c0-0.2,0.1-0.4,0.1-0.7c0.7-8.6-2-17-7.5-23.6L70,305.2
	c-7.9-11.1-12.1-24.4-12-38.1L76,152.9c5.9,3,9.5,9.2,9.1,15.9c0,0.1,0,0.1,0,0.2l-1.2,51c-2.3,0.6-4.5,1.4-6.6,2.4
	c-3.4,1.6-4.8,5.6-3.2,9l29.8,62.5c1,2.2,3.1,3.6,5.5,3.8c2.4,0.2,4.7-0.9,6.1-2.9c1.4-2,1.6-4.6,0.5-6.7l-26.5-55.5
	c10.8-1.8,21.5,3.8,26.3,13.7l18.1,38c3.7,7.7,9.1,14.5,15.7,19.9l3.8,3C171.2,321.3,180,344,176.3,366.6z"/>
<rect x="121.1" y="388.6" transform="matrix(0.9028 -0.43 0.43 0.9028 -158.0948 110.278)" class="st2" width="87.8" height="32.7"/>
<path class="st0" d="M356.1,138.7c-0.1-1.8-0.9-3.5-2.3-4.7L317,104.6v-58c-0.1-3.8-3.2-6.9-7-7.1h-27.7c-3.7,0-6.5,3.3-6.5,7.1
	v25.2L249,50.5c-2.5-2-6-2-8.5,0L135.9,134c-1.5,1.1-2.4,2.9-2.5,4.7c-0.1,1.9,0.5,3.7,1.7,5.1l20.9,23c2.5,2.6,6.5,2.9,9.4,0.7
	l2.9-2.2v74.7c0,3.7,2.6,7,6.3,7h140.3c3.7,0,6.3-3.3,6.3-7v-74.7l2.9,2.2c1.2,1,2.7,1.5,4.3,1.5c1.9,0,3.7-0.8,5-2.2l20.9-23
	C355.6,142.4,356.2,140.6,356.1,138.7z M289.3,52.9h14.3v40.9l-14.3-11.4V52.9z M307.7,233.6H181.7v-79l63-50.8l63,50.8V233.6z
	 M327.8,153.1l-78.9-63.2c-2.5-2-5.9-2-8.4,0l-78.9,63.2l-11.8-13l94.9-75.7l94.9,75.7L327.8,153.1z"/>
<polygon class="st3" points="307.7,154.6 307.7,233.6 181.7,233.6 181.7,154.6 244.7,103.8 "/>
<polygon class="st4" points="307.7,154.6 307.7,233.6 181.7,233.6 181.7,154.6 244.7,103.8 "/>
<polygon class="st5" points="303.5,52.9 303.5,93.8 289.3,82.5 289.3,52.9 "/>
<path class="st5" d="M339.6,140l-11.8,13l-78.9-63.2c-2.5-2-5.9-2-8.4,0l-78.9,63.2l-11.8-13l94.9-75.7L339.6,140z"/>
<path class="st6" d="M400.5,477.5h-308c-42.3,0-77-34.6-77-77v-308c0-42.3,34.7-77,77-77h308c42.4,0,77,34.7,77,77v308
	C477.5,442.9,442.9,477.5,400.5,477.5z"/>
</svg>
