<?xml version="1.0" encoding="utf-8"?>
<!-- Generator: Adobe Illustrator 22.1.0, SVG Export Plug-In . SVG Version: 6.00 Build 0)  -->
<svg version="1.1" id="Capa_1" xmlns="http://www.w3.org/2000/svg" xmlns:xlink="http://www.w3.org/1999/xlink" x="0px" y="0px"
	 viewBox="0 0 58 58" style="enable-background:new 0 0 58 58;" xml:space="preserve">
<style type="text/css">
	.st0{fill:#2683D4;stroke:#002E57;stroke-width:2;stroke-miterlimit:10;}
	.st1{fill:#2645D4;stroke:#002E57;stroke-width:2;stroke-miterlimit:10;}
	.st2{fill:#26BAD4;stroke:#002E57;stroke-width:2;stroke-miterlimit:10;}
	.st3{fill:#2647D4;stroke:#002E57;stroke-width:2;stroke-miterlimit:10;}
	.st4{fill:none;stroke:#002E57;stroke-width:3;stroke-miterlimit:10;}
</style>
<rect x="24" y="45.6" class="st0" width="22.7" height="10.2"/>
<path class="st0" d="M39.1,55.8H24V45.6h8.9c3.4,0,6.2,2.7,6.2,6.1V55.8z"/>
<ellipse class="st1" cx="33" cy="50.7" rx="2.4" ry="2.3"/>
<path class="st2" d="M31.4,12.1c1.2-0.5,2-1.6,2-3c0-1.8-1.5-3.2-3.3-3.2c-1.4,0-2.5,0.8-3,1.9L31.4,12.1z"/>
<path class="st2" d="M36.2,16.7c1.2-0.5,2-1.6,2-3c0-1.8-1.5-3.2-3.3-3.2c-1.4,0-2.5,0.8-3,1.9L36.2,16.7z"/>
<path class="st2" d="M40.9,21.3c1.2-0.5,2-1.6,2-3c0-1.8-1.5-3.2-3.3-3.2c-1.4,0-2.5,0.8-3,1.9L40.9,21.3z"/>
<path class="st2" d="M45.6,26c1.2-0.5,2-1.6,2-3c0-1.8-1.5-3.2-3.3-3.2c-1.4,0-2.5,0.8-3,1.9L45.6,26z"/>
<path class="st2" d="M26.3,32.7h-9.4c-1.8,0-3.3-1.5-3.3-3.2l0,0c0-1.8,1.5-3.2,3.3-3.2h9.4c1.8,0,3.3,1.5,3.3,3.2l0,0
	C29.6,31.2,28.2,32.7,26.3,32.7z"/>
<g>
	<path class="st2" d="M45.8,31.4L35.3,41.6c-0.8,0.8-2.2,0.8-3.1,0l-9.1-8.9h-6.2c-0.5,0.3-2-0.7-1.5-0.2l10.2,9.9
		c0.1,0.1,0.2,0.1,0.2,0.2v3h18.9v-4.2c1.7-1.3,2.8-3.3,2.8-5.5C47.6,34.2,46.9,32.6,45.8,31.4z"/>
</g>
<path class="st3" d="M24.1,4.9L9.4,19.2l7.2,7c0.1,0,0.2,0,0.4,0h9.4c1.8,0,3.3,1.5,3.3,3.2s-1.5,3.2-3.3,3.2h-3.2l6,5.9l14.7-14.4
	L24.1,4.9z"/>
<g>
	<path class="st0" d="M24.1,4.9l-2.1-2c-0.8-0.8-2.2-0.8-3.1,0L7.3,14.2c-0.8,0.8-0.8,2.2,0,3l2.1,2L24.1,4.9z"/>
	<path class="st0" d="M47,27.3l-3.1-3.1L29.1,38.6l3.1,3.1c0.8,0.8,2.2,0.8,3.1,0L47,30.3C47.8,29.4,47.8,28.1,47,27.3z"/>
</g>
<path class="st4" d="M44.9,56.9H13.3c-6.6,0-12-5.4-12-12V13.3c0-6.6,5.4-12,12-12h31.7c6.6,0,12,5.4,12,12v31.7
	C56.9,51.5,51.5,56.9,44.9,56.9z"/>
</svg>
