<?xml version="1.0" encoding="utf-8"?>
<!-- Generator: Adobe Illustrator 22.1.0, SVG Export Plug-In . SVG Version: 6.00 Build 0)  -->
<svg version="1.1" id="Слой_1" xmlns="http://www.w3.org/2000/svg" xmlns:xlink="http://www.w3.org/1999/xlink" x="0px" y="0px"
	 viewBox="0 0 496 496" style="enable-background:new 0 0 496 496;" xml:space="preserve">
<style type="text/css">
	.st0{fill:#838F9B;}
	.st1{fill:#AAB2BD;}
	.st2{fill:#F8E9FF;}
	.st3{fill:#326390;}
	.st4{fill:#2D336D;}
	.st5{fill:#D7E9FF;}
	.st6{fill:#E6E9ED;}
	.st7{fill:#218B93;}
	.st8{fill:#002E57;}
	.st9{fill:none;stroke:#002E57;stroke-width:30;stroke-miterlimit:10;}
</style>
<path class="st0" d="M160.8,415.9v25.6h-38.4v-44.9c0-10.6,8.6-19.2,19.2-19.2c5.3,0,10.1,2.2,13.6,5.6s5.6,8.3,5.6,13.6V415.9z"/>
<path class="st1" d="M231.3,334.5V403c0,7-5.8,12.8-12.8,12.8h-57.7v-19.2c0-5.3-2.2-10.1-5.6-13.6s-8.3-5.6-13.6-5.6
	c-10.6,0-19.2,8.6-19.2,19.2v19.2H64.7c-7,0-12.8-5.8-12.8-12.8V287.7c0-7,5.8-12.8,12.8-12.8h153.8c7,0,12.8,5.8,12.8,12.8V334.5z"
	/>
<path class="st2" d="M359.4,351.8l7-35.3l40,9.2c17.4,4,29.8,19.5,29.8,37.4v78.4h-89.7l-6.4-76.9l6.7-20.2l0.1-0.1L359.4,351.8z"/>
<path class="st2" d="M263.3,441.5h-44.9v-25.6c7,0,12.8-5.8,12.8-12.8v-68.6c4.7-4.2,10.5-7.3,17-8.8l41.1-9.5l6,35.6l12.4-7.5
	l6.8,20.3l-6.4,76.9H263.3z"/>
<path class="st3" d="M340.2,364.6l6.4,76.9h-38.4l6.4-76.9H340.2z"/>
<path class="st3" d="M327.4,332.6l19.6,11.8l-0.1,0.1l-6.7,20.2h-25.6l-6.8-20.3L327.4,332.6z"/>
<path class="st2" d="M353,313.3l13.5,3.1l-7,35.3l-12.4-7.4l-19.6-11.8L353,313.3z"/>
<path class="st2" d="M327.4,332.6l-19.6,11.7l-12.4,7.5l-6-35.6l12.4-2.9L327.4,332.6z"/>
<path class="st4" d="M315.7,223.6h-39.5c-7.7,0-14.5,3.4-19.2,8.7v-27.9c0-39,31.5-70.5,70.5-70.5c19.5,0,37.1,7.9,49.8,20.6
	c12.8,12.7,20.6,30.4,20.6,49.8v27.9c-4.7-5.3-11.5-8.7-19.2-8.7h-6.4v-12.8c-8.2,8.2-19.4,12.8-30.9,12.8H315.7z"/>
<g>
	<path class="st5" d="M301.8,313.3v-19.2l0.6-1.2c18.9,7.3,22,7.6,25.1,7.6c9.3,0,17.9-2.8,25.1-7.6l0.6,1.2v19.2l-25.6,19.2
		L301.8,313.3z"/>
	<path class="st5" d="M397.9,232.3c4,4.5,6.4,10.4,6.4,16.9c0,14.2-11.5,25.6-25.6,25.6h-10.8c2.8-5.8,4.4-12.3,4.4-19.2v-32h6.4
		C386.4,223.6,393.2,227,397.9,232.3z"/>
	<path class="st5" d="M286.9,274.9c-2.8-5.8-4.4-12.3-4.4-19.2v-32h58.8c11.6,0,22.7-4.6,30.9-12.8v44.9c0,6.9-1.5,13.4-4.4,19.2
		c-3.4,7.3-8.8,13.5-15.4,18c-7.1,4.8-15.8,7.6-25.1,7.6c-3.1,0-6.2-0.3-25.1-7.6c-2.4-1.7-4.6-3.5-6.7-5.5
		C292.1,283.8,289.1,279.6,286.9,274.9z"/>
	<path class="st5" d="M282.6,223.6v32c0,6.9,1.5,13.4,4.4,19.2h-10.8c-14.2,0-25.6-11.5-25.6-25.6c0-6.5,2.4-12.4,6.4-16.9
		c4.7-5.3,11.5-8.7,19.2-8.7H282.6z"/>
</g>
<path class="st6" d="M244.1,153.1c0,53.1-43.1,96.1-96.1,96.1s-96.1-43.1-96.1-96.1S94.9,57,148,57S244.1,100.1,244.1,153.1z"/>
<path class="st7" d="M160.8,144.2v15.3l29.7,9.9c5.3,1.8,8.8,6.7,8.8,12.2v29.2H96.7v-29.2c0-5.5,3.5-10.4,8.8-12.2l29.7-9.9v-15.3
	l0.4-0.7c3.7,2,7.9,3.2,12.4,3.2s8.7-1.2,12.4-3.2L160.8,144.2z"/>
<path class="st5" d="M173.6,108.3v12.8c0,9.7-5.3,18.1-13.3,22.4c-3.7,2-7.9,3.2-12.4,3.2s-8.7-1.2-12.4-3.2
	c-7.9-4.4-13.3-12.8-13.3-22.4v-12.8c0-14.2,11.5-25.6,25.6-25.6c7,0,13.5,2.9,18.1,7.5C170.7,94.8,173.6,101.2,173.6,108.3z"/>
<path class="st8" d="M408,319.4l-48.5-11.2v-12.6c4.9-4,9.1-8.8,12.3-14.3h6.9c17.7,0,32-14.4,32-32c0-7.2-2.4-13.7-6.4-19v-25.8
	c0-42.4-34.5-76.9-76.9-76.9s-76.9,34.5-76.9,76.9v25.8c-4,5.3-6.4,11.9-6.4,19c0,17.7,14.4,32,32,32h6.9
	c3.2,5.5,7.4,10.4,12.3,14.3v12.6l-48.5,11.2c-3.2,0.7-6.2,1.9-9.1,3.3v-35c0-10.6-8.6-19.2-19.2-19.2H64.7
	c-10.6,0-19.2,8.6-19.2,19.2V403c0,10.6,8.6,19.2,19.2,19.2H116v12.8h-12.8v12.8h339.6v-84.8C442.7,342.1,428.4,324.2,408,319.4z
	 M300.3,320.3l15.6,11.7l-15.8,9.5l-3.4-20.4L300.3,320.3z M320.5,371h13.8l5.3,64.1h-24.5L320.5,371z M335.6,358.2h-16.4l-3.7-11
	l11.9-7.1l11.9,7.1L335.6,358.2z M338.9,332l15.6-11.7l4.5,1l-4.1,20.3L338.9,332z M378.7,268.5H377c1.1-4.1,1.7-8.4,1.7-12.8V230
	c10.6,0,19.2,8.6,19.2,19.2S389.3,268.5,378.7,268.5z M327.4,140.3c35.3,0,64.1,28.7,64.1,64.1v15.5c-3.9-1.7-8.3-2.7-12.8-2.7
	v-12.8h-12.8v3.6c-4.4,3.9-9.8,6.6-15.5,8.1c0.3-0.2,0.5-0.5,0.8-0.7l-9.1-9.1c-4.8,4.8-10.8,8.1-17.3,9.8c0.3-0.2,0.5-0.5,0.8-0.7
	l-9.1-9.1c-7,7-16.6,10.9-26.4,10.9H289v-12.8h-12.8v12.8c-4.6,0-8.9,1-12.8,2.7v-15.5C263.3,169.1,292.1,140.3,327.4,140.3z
	 M276.1,268.5c-10.6,0-19.2-8.6-19.2-19.2s8.6-19.2,19.2-19.2v25.6c0,4.4,0.6,8.7,1.7,12.8H276.1z M289,255.7V230h1.1
	c6.2,0,12.4-1.2,18.1-3.5v3.5h7.5c6.2,0,12.4-1.2,18.1-3.5v3.5h7.5c8.6,0,17.1-2.3,24.5-6.5v32.1c0,4.5-0.8,8.8-2.2,12.8h-36.2v12.8
	H356c-7,7.8-17.2,12.8-28.6,12.8C306.2,294.1,289,276.9,289,255.7z M327.4,306.9c6.8,0,13.3-1.4,19.2-3.8v7l-19.2,14.4l-19.2-14.4
	v-7C314.1,305.6,320.6,306.9,327.4,306.9z M249.7,331.9l34.5-8l6.4,38.2l13.7-8.2l3.8,11.5l-5.8,69.7h-32.6v-70.5h-12.8v70.5h-32
	v-14c7.4-2.7,12.8-9.7,12.8-18v-65.5C241.3,334.9,245.4,332.9,249.7,331.9z M167.2,422.3h44.9v12.8h-44.9V422.3z M64.7,409.4
	c-3.5,0-6.4-2.9-6.4-6.4V287.7c0-3.5,2.9-6.4,6.4-6.4h153.8c3.5,0,6.4,2.9,6.4,6.4V403c0,3.5-2.9,6.4-6.4,6.4h-51.3v-12.8
	c0-14.1-11.5-25.6-25.6-25.6S116,382.5,116,396.6v12.8H64.7z M128.8,396.6c0-7.1,5.7-12.8,12.8-12.8c7.1,0,12.8,5.7,12.8,12.8v38.4
	h-25.6V396.6z M429.9,435.1h-32v-70.5h-12.8v70.5h-32.6l-5.8-69.7l3.8-11.5l13.4,8l7.6-37.8l33.6,7.8c14.6,3.4,24.8,16.2,24.8,31.2
	V435.1z"/>
<path class="st8" d="M205.7,181.6c0-8.3-5.3-15.6-13.1-18.2l-25.3-8.4v-8.4c7.7-5.9,12.8-15,12.8-25.5v-12.8c0-17.7-14.4-32-32-32
	s-32,14.4-32,32v12.8c0,10.4,5.1,19.6,12.8,25.5v8.4l-25.3,8.4c-7.9,2.6-13.1,9.9-13.1,18.2v35.6h115.3V181.6z M128.8,108.3
	c0-10.6,8.6-19.2,19.2-19.2s19.2,8.6,19.2,19.2v12.8c0,10.6-8.6,19.2-19.2,19.2s-19.2-8.6-19.2-19.2V108.3z M192.8,204.4h-89.7
	v-22.8c0-2.8,1.8-5.2,4.4-6.1l34.1-11.3v-11.7c2.1,0.4,4.2,0.6,6.4,0.6s4.3-0.2,6.4-0.6v11.7l34.1,11.3c2.6,0.9,4.4,3.3,4.4,6.1
	V204.4z"/>
<path class="st8" d="M148,255.7c56.5,0,102.5-46,102.5-102.5S204.5,50.6,148,50.6S45.5,96.6,45.5,153.1S91.5,255.7,148,255.7z
	 M148,63.4c49.5,0,89.7,40.2,89.7,89.7s-40.2,89.7-89.7,89.7s-89.7-40.2-89.7-89.7S98.5,63.4,148,63.4z"/>
<path class="st8" d="M282.6,89.1h12.8v12.8h-12.8V89.1z"/>
<path class="st8" d="M321,89.1h12.8v12.8H321V89.1z"/>
<path class="st8" d="M359.4,89.1h12.8v12.8h-12.8V89.1z"/>
<path class="st9" d="M404.5,481.5H91c-42.3,0-77-34.6-77-77V91c0-42.3,34.7-77,77-77h313.5c42.4,0,77,34.7,77,77v313.5
	C481.5,446.9,446.9,481.5,404.5,481.5z"/>
</svg>
