<?xml version="1.0" encoding="utf-8"?>
<!-- Generator: Adobe Illustrator 22.1.0, SVG Export Plug-In . SVG Version: 6.00 Build 0)  -->
<svg version="1.1" id="Слой_1" xmlns="http://www.w3.org/2000/svg" xmlns:xlink="http://www.w3.org/1999/xlink" x="0px" y="0px"
	 viewBox="0 0 480 480" style="enable-background:new 0 0 480 480;" xml:space="preserve">
<style type="text/css">
	.st0{fill:#63BD95;}
	.st1{fill:#BABDDB;}
	.st2{fill:#47747E;}
	.st3{fill:#002E57;}
	.st4{fill:#E0E2EC;}
	.st5{fill:none;stroke:#002E57;stroke-width:30;stroke-miterlimit:10;}
</style>
<g id="XMLID_1_">
	<g>
		<path class="st0" d="M337.5,395.9c1.9,0.1,3.8-0.8,4.9-2.3c1.2-1.5,1.6-3.5,1.1-5.3c-0.4-1.5-0.7-3-0.7-4.6
			c0-10,8.1-18.1,18.1-18.1c10,0,18.1,8.1,18.1,18.1c0,3.3,2.7,6,6.1,6c11,0,20.6,7.5,23.4,18.1h-88.9c2.5-7.1,9.2-12,16.7-12.1
			C336.6,395.8,337.2,395.9,337.5,395.9z"/>
		<rect x="294.5" y="93.4" class="st1" width="60.5" height="12.1"/>
		<polygon class="st1" points="342.9,117.6 342.9,181.6 306.6,145.4 306.6,117.6 		"/>
		<path class="st2" d="M294.5,371.6h36.3c1.1,0,2.2-0.4,3.1-1c-2,4.1-3.1,8.5-3.1,13.1v0.6c-11.8,2.5-21.1,11.7-23.5,23.6h-24.9
			v-90.7c0-3.3-2.7-6.1-6-6.1h-72.6c-3.3,0-6.1,2.7-6.1,6.1v90.7h-36.8c-2.2-13-11.3-23.7-23.6-28.1V238.6h205.6v121.1
			c-2.3,1.7-4.4,3.8-6.1,6.1c0-0.1,0-0.2,0-0.3v-36.3c0-3.3-2.7-6.1-6-6.1h-36.3c-3.3,0-6,2.7-6,6.1v36.3
			C288.4,368.9,291.1,371.6,294.5,371.6z M197.7,293c0,6.7,5.4,12.1,12.1,12.1h60.5c6.7,0,12.1-5.4,12.1-12.1v-24.2
			c0-6.7-5.4-12.1-12.1-12.1h-60.5c-6.7,0-12.1,5.4-12.1,12.1V293z M143.3,365.5c0,3.3,2.7,6,6.1,6h36.3c3.3,0,6.1-2.7,6.1-6v-36.3
			c0-3.3-2.7-6.1-6.1-6.1h-36.3c-3.3,0-6.1,2.7-6.1,6.1V365.5z"/>
		<rect x="300.5" y="335.3" class="st1" width="24.2" height="24.2"/>
		<path class="st3" d="M270.3,256.7c6.7,0,12.1,5.4,12.1,12.1V293c0,6.7-5.4,12.1-12.1,12.1h-60.5c-6.7,0-12.1-5.4-12.1-12.1v-24.2
			c0-6.7,5.4-12.1,12.1-12.1H270.3z M270.3,293v-6h-24.2v6H270.3z M270.3,274.8v-6h-24.2v6H270.3z M234,293v-6h-24.2v6H234z
			 M234,274.8v-6h-24.2v6H234z"/>
		<path class="st4" d="M270.3,323.2v84.6h-60.5v-84.6H270.3z M234,371.6v-24.2c0-3.3-2.7-6-6-6h-12.1v12.1h6.1v12.1h-6.1v12.1H228
			C231.3,377.6,234,374.9,234,371.6z"/>
		<rect x="246.1" y="286.9" class="st1" width="24.2" height="6"/>
		<rect x="246.1" y="268.8" class="st1" width="24.2" height="6"/>
		<path class="st2" d="M244.3,136.5l90,90H145.8l0.1-0.1c44.6-1.4,80.4-37.3,81.9-81.9l8-8C238.2,134.1,242,134.1,244.3,136.5z"/>
		<path class="st3" d="M234,347.4v24.2c0,3.4-2.7,6.1-6,6.1h-12.1v-12.1h6.1v-12.1h-6.1v-12.1H228C231.3,341.4,234,344.1,234,347.4z
			"/>
		<rect x="209.8" y="286.9" class="st1" width="24.2" height="6"/>
		<rect x="209.8" y="268.8" class="st1" width="24.2" height="6"/>
		<path class="st2" d="M227.3,127.9l-0.5,0.5c-0.8-5.2-2.2-10.3-3.9-15.3l13-12.9c2.3-2.3,6.1-2.3,8.5,0l139.6,139.6
			c2.6,2.6,2.6,6.9,0,9.6c-2.6,2.6-6.9,2.6-9.6,0L252.9,127.9C245.8,120.9,234.3,120.9,227.3,127.9z"/>
		<path class="st1" d="M137.3,147.9h12.1c3.3,0,6.1,2.7,6.1,6V166c0,3.3-2.7,6-6.1,6h-12.1c-3.3,0-6.1-2.7-6.1-6v-6h-12.1v6
			c0,10,8.1,18.1,18.1,18.1v12.1h12.1v-12.1c10,0,18.1-8.1,18.1-18.1v-12.1c0-10-8.1-18.1-18.1-18.1h-12.1c-3.3,0-6.1-2.7-6.1-6
			v-12.1c0-3.3,2.7-6.1,6.1-6.1h12.1c3.3,0,6.1,2.7,6.1,6.1v6h12.1v-6c0-10-8.1-18.1-18.1-18.1V87.4h-12.1v12.1
			c-10,0-18.1,8.1-18.1,18.1v12.1C119.1,139.8,127.3,147.9,137.3,147.9z M143.3,69.3c40.1,0,72.6,32.5,72.6,72.6
			s-32.5,72.6-72.6,72.6c-40,0-72.5-32.5-72.5-72.6C70.8,101.8,103.2,69.3,143.3,69.3z"/>
		<path class="st3" d="M185.6,323.2c3.3,0,6.1,2.7,6.1,6.1v36.3c0,3.3-2.7,6-6.1,6h-36.3c-3.3,0-6.1-2.7-6.1-6v-36.3
			c0-3.3,2.7-6.1,6.1-6.1H185.6z M179.6,359.5v-24.2h-24.2v24.2H179.6z"/>
		<rect x="155.4" y="335.3" class="st1" width="24.2" height="24.2"/>
		<path class="st3" d="M137.3,135.8h12.1c10,0,18.1,8.1,18.1,18.1V166c0,10-8.1,18.1-18.1,18.1v12.1h-12.1v-12.1
			c-10,0-18.1-8.1-18.1-18.1v-6h12.1v6c0,3.3,2.7,6,6.1,6h12.1c3.3,0,6.1-2.7,6.1-6v-12.1c0-3.3-2.7-6-6.1-6h-12.1
			c-10,0-18.1-8.1-18.1-18.1v-12.1c0-10,8.1-18.1,18.1-18.1V87.4h12.1v12.1c10,0,18.1,8.1,18.1,18.1v6h-12.1v-6
			c0-3.3-2.7-6.1-6.1-6.1h-12.1c-3.3,0-6.1,2.7-6.1,6.1v12.1C131.2,133.1,133.9,135.8,137.3,135.8z"/>
		<path class="st0" d="M125.2,389.7c11,0,20.7,7.5,23.4,18.1H72.4c3.2-5.5,10.1-7.5,15.7-4.8c2.3,1.1,5.1,0.7,6.9-1.1
			c1.8-1.8,2.3-4.6,1.2-6.9c-0.8-1.6-1.3-3.5-1.3-5.3c0-5.9,4.2-10.9,10-11.9c5.8-1,11.5,2.4,13.4,8c0.8,2.5,3.3,4.2,5.9,4
			C124.6,389.8,124.9,389.8,125.2,389.7z"/>
		<path class="st3" d="M96.2,239.8c-2.6,2.6-2.6,6.9,0,9.6c2.7,2.7,6.9,2.7,9.6,0l21.2-21.2l2.9-2.9c-5.2-0.8-10.3-2.2-15.3-3.9
			L96.2,239.8z M95.1,402c-1.8,1.8-4.6,2.3-6.9,1.1c-5.7-2.8-12.6-0.7-15.7,4.8h76.2c-2.8-10.7-12.4-18.1-23.4-18.1
			c-0.3,0.1-0.5,0.1-0.8,0.1c-2.7,0.2-5.1-1.5-5.9-4c-1.9-5.6-7.6-9-13.4-8c-5.8,1-10.1,6-10,11.9c0,1.8,0.4,3.6,1.3,5.3
			C97.3,397.3,96.9,400.1,95.1,402z M343.5,388.3c0.5,1.9,0.1,3.8-1.1,5.3c-1.2,1.5-3,2.3-4.9,2.3c-0.2,0-0.8-0.1-1-0.1
			c-7.6,0.1-14.2,5-16.7,12.1h88.9c-2.8-10.7-12.4-18.1-23.4-18.1c-3.3,0-6.1-2.7-6.1-6c0-10-8.1-18.1-18.1-18.1
			c-10,0-18.1,8.1-18.1,18.1C342.9,385.2,343.1,386.8,343.5,388.3z M222.9,113.1c1.8,5,3.1,10.1,3.9,15.3l0.5-0.5
			c7.1-7,18.5-7,25.6,0l121.5,121.5c2.6,2.6,6.9,2.6,9.6,0c2.6-2.6,2.6-6.9,0-9.6L244.3,100.2c-2.4-2.3-6.2-2.3-8.5,0L222.9,113.1z
			 M137.3,379.7c12.4,4.4,21.4,15.2,23.6,28.1h36.8v-90.7c0-3.3,2.7-6.1,6.1-6.1h72.6c3.3,0,6,2.7,6,6.1v90.7h24.9
			c2.4-11.8,11.7-21.1,23.5-23.6v-0.6c0-4.5,1.1-9,3.1-13.1c-0.9,0.6-2,1-3.1,1h-36.3c-3.3,0-6-2.7-6-6v-36.3c0-3.3,2.7-6.1,6-6.1
			h36.3c3.3,0,6,2.7,6,6.1v36.3c0,0.1,0,0.2,0,0.3c1.7-2.3,3.8-4.4,6.1-6.1V238.6H137.3V379.7z M143.3,214.4
			c40.1,0,72.6-32.5,72.6-72.6s-32.5-72.6-72.6-72.6c-40.1,0-72.5,32.5-72.5,72.6C70.8,181.9,103.3,214.3,143.3,214.4z M421.5,413.9
			c0,3.3-2.7,6-6.1,6H64.7c-3.3,0-6-2.7-6-6c0-13.4,10.8-24.2,24.2-24.2c0-10.1,6.2-19.1,15.7-22.7c9.4-3.5,20.1-0.8,26.7,6.8V247.1
			L114.3,258c-7.4,7.4-19.3,7.4-26.7,0c-7.4-7.4-7.4-19.3,0-26.7l15.2-15.2c-31.8-17.2-49.1-52.7-43.1-88.3
			c6-35.6,33.9-63.6,69.5-69.5s71.1,11.3,88.4,43.1l9.7-9.7c7.1-7.1,18.5-7.1,25.6,0l41.6,41.6v-15.6c-6.7,0-12.1-5.4-12.1-12.1
			V93.4c0-6.7,5.4-12.1,12.1-12.1h60.5c6.7,0,12.1,5.4,12.1,12.1v12.1c0,6.7-5.4,12.1-12.1,12.1v76.1l37.5,37.5
			c7.4,7.4,7.4,19.3,0,26.7c-7.4,7.4-19.3,7.4-26.7,0l-10.8-10.8V354c7.9-1.6,16.2,0,22.9,4.5c6.7,4.5,11.4,11.5,12.9,19.5
			C408.4,380.8,421.4,396,421.5,413.9z M354.9,105.5V93.4h-60.5v12.1H354.9z M342.9,181.6v-64h-36.3v27.7L342.9,181.6z M334.3,226.5
			l-90-90c-2.4-2.3-6.2-2.3-8.5,0l-8,8c-1.4,44.6-37.3,80.4-81.9,81.9l-0.1,0.1H334.3z M324.7,359.5v-24.2h-24.2v24.2H324.7z
			 M270.3,407.9v-84.6h-60.5v84.6H270.3z"/>
		<path class="st2" d="M105.8,249.4c-2.6,2.7-6.9,2.7-9.6,0c-2.6-2.6-2.6-6.9,0-9.6l18.4-18.5c4.9,1.8,10.1,3.1,15.3,3.9l-2.9,2.9
			L105.8,249.4z"/>
	</g>
	<g>
		<path class="st5" d="M390.5,467H92c-42.1,0-76.5-34.4-76.5-76.5V92c0-42.1,34.4-76.5,76.5-76.5h298.5c42.1,0,76.5,34.4,76.5,76.5
			v298.5C467,432.6,432.6,467,390.5,467z"/>
	</g>
</g>
</svg>
