<?xml version="1.0" encoding="utf-8"?>
<!-- Generator: Adobe Illustrator 22.1.0, SVG Export Plug-In . SVG Version: 6.00 Build 0)  -->
<svg version="1.1" id="Слой_1" xmlns="http://www.w3.org/2000/svg" xmlns:xlink="http://www.w3.org/1999/xlink" x="0px" y="0px"
	 viewBox="0 0 512 512" style="enable-background:new 0 0 512 512;" xml:space="preserve">
<style type="text/css">
	.st0{fill:#2683D4;}
	.st1{fill:#002E57;}
	.st2{fill:none;stroke:#002E57;stroke-width:24;stroke-miterlimit:10;}
</style>
<g id="Layer_5">
	<g>
		<g>
			<g>
				<g>
					<ellipse class="st0" cx="129.3" cy="97.5" rx="21.1" ry="22.6"/>
				</g>
				<g>
					<ellipse class="st0" cx="129.3" cy="256" rx="84.5" ry="90.6"/>
				</g>
				<g>
					<ellipse class="st0" cx="129.3" cy="414.5" rx="21.1" ry="22.6"/>
				</g>
				<g>
					<path class="st0" d="M382.7,399.4v30.2l-9.8,3.5c-0.9,3-2.1,6-3.4,8.7l4.6,10l-19.9,21.4l-9.4-4.9c-2.5,1.4-5.3,2.6-8.1,3.6
						l-3.3,10.5h-28.2L302,472c-2.8-1-5.6-2.3-8.1-3.6l-9.4,4.9l-19.9-21.4l4.6-10c-1.3-2.7-2.5-5.7-3.4-8.7l-9.8-3.5v-15.1v-15.1
						l9.8-3.5c0.9-3,2.1-6,3.4-8.7l-4.6-10l19.9-21.4l9.4,4.9c2.5-1.4,5.3-2.6,8.1-3.6l3.3-10.5h28.2l3.3,10.5
						c2.8,1,5.6,2.3,8.1,3.6l9.4-4.9l19.9,21.4l-4.6,10c1.3,2.7,2.5,5.7,3.4,8.7L382.7,399.4z M347.5,414.5
						c0-16.7-12.6-30.2-28.2-30.2s-28.2,13.5-28.2,30.2s12.6,30.2,28.2,30.2S347.5,431.2,347.5,414.5z"/>
				</g>
				<g>
					<path class="st0" d="M382.7,82.4v30.2l-9.8,3.5c-0.9,3-2.1,6-3.4,8.7l4.6,10l-19.9,21.4l-9.4-4.9c-2.5,1.4-5.3,2.6-8.1,3.6
						l-3.3,10.5h-28.2l-3.3-10.5c-2.8-1-5.6-2.3-8.1-3.6l-9.4,4.9l-19.9-21.4l4.6-10c-1.3-2.7-2.5-5.7-3.4-8.7l-9.8-3.5V97.5V82.4
						l9.8-3.5c0.9-3,2.1-6,3.4-8.7l-4.6-10l19.9-21.4l9.4,4.9c2.5-1.4,5.3-2.6,8.1-3.6l3.3-10.5h28.2l3.3,10.5
						c2.8,1,5.6,2.3,8.1,3.6l9.4-4.9l19.9,21.4l-4.6,10c1.3,2.7,2.5,5.7,3.4,8.7L382.7,82.4z M347.5,97.5
						c0-16.7-12.6-30.2-28.2-30.2s-28.2,13.5-28.2,30.2s12.6,30.2,28.2,30.2S347.5,114.2,347.5,97.5z"/>
				</g>
				<g>
					<path class="st0" d="M453.2,316.4h-98.6c-7.8,0-14.1-6.8-14.1-15.1v-90.6c0-8.3,6.3-15.1,14.1-15.1h98.6
						c7.8,0,14.1,6.8,14.1,15.1v90.6C467.2,309.6,460.9,316.4,453.2,316.4z"/>
				</g>
				<g>
					<path class="st0" d="M382.7,195.6H425v30.2h-42.2L382.7,195.6L382.7,195.6z"/>
				</g>
			</g>
			<g>
				<path class="st1" d="M319.4,135.2c19.4,0,35.2-16.9,35.2-37.7s-15.8-37.7-35.2-37.7s-35.2,16.9-35.2,37.7S300,135.2,319.4,135.2
					z M319.4,74.8c11.6,0,21.1,10.2,21.1,22.6S331,120,319.4,120s-21.1-10.2-21.1-22.6S307.7,74.8,319.4,74.8z"/>
				<path class="st1" d="M319.4,452.3c19.4,0,35.2-16.9,35.2-37.7s-15.8-37.7-35.2-37.7s-35.2,16.9-35.2,37.7S300,452.3,319.4,452.3
					z M319.4,391.9c11.6,0,21.1,10.2,21.1,22.6s-9.5,22.6-21.1,22.6s-21.1-10.2-21.1-22.6S307.7,391.9,319.4,391.9z"/>
				<path class="st1" d="M453.2,188.1h-98.6c-11.6,0-21.1,10.2-21.1,22.6v37.7h-113c-3.4-48.1-39.3-86.5-84.1-90.2v-31.7
					c9.9-2.7,17.6-11,20.1-21.6H249v13l11.4,4.2c0.3,0.9,0.7,1.8,1,2.6l-5.3,11.6l27,29l10.8-5.7c0.8,0.4,1.6,0.8,2.5,1.1l3.9,12.2
					h38.2l3.9-12.2c0.8-0.3,1.6-0.7,2.5-1.1l10.8,5.7l27-29l-5.3-11.6c0.4-0.9,0.7-1.8,1-2.6l11.4-4.2V77l-11.4-4.2
					c-0.3-0.9-0.7-1.8-1-2.6l5.3-11.6l-27.1-29l-10.8,5.7c-0.8-0.4-1.6-0.8-2.5-1.1L338.5,22h-38.2l-3.9,12.2
					c-0.8,0.3-1.6,0.7-2.5,1.1l-10.8-5.7l-27.1,29l5.3,11.6c-0.4,0.9-0.7,1.8-1,2.6L249,77v13h-92.5c-3.1-13-14.1-22.6-27.2-22.6
					c-15.5,0-28.2,13.5-28.2,30.2c0,14,9,25.7,21.1,29.1v31.7c-47.2,3.7-84.5,46-84.5,97.6s37.3,93.9,84.5,97.7v31.7
					c-12.1,3.4-21.1,15.1-21.1,29.1c0,16.7,12.6,30.2,28.2,30.2c13.1,0,24-9.7,27.2-22.6H249v13l11.4,4.2c0.3,0.9,0.7,1.8,1,2.6
					l-5.3,11.6l27,29l10.8-5.7c0.8,0.4,1.6,0.8,2.5,1.1l3.9,12.2h38.2l3.9-12.2c0.8-0.3,1.6-0.7,2.5-1.1l10.8,5.7l27-29l-5.3-11.6
					c0.4-0.9,0.7-1.8,1-2.6l11.4-4.2v-41l-11.4-4.2c-0.3-0.9-0.7-1.8-1-2.6l5.3-11.6l-27-29l-10.8,5.7c-0.8-0.4-1.6-0.8-2.5-1.1
					l-3.9-12.2h-38.2l-3.9,12.2c-0.8,0.3-1.6,0.7-2.5,1.1l-10.8-5.7l-27,29l5.3,11.6c-0.4,0.9-0.7,1.8-1,2.6L249,394v13h-92.5
					c-2.6-10.6-10.3-18.8-20.1-21.6v-31.7c44.9-3.7,80.7-42.1,84.1-90.2h113v37.7c0,12.5,9.5,22.6,21.1,22.6h98.6
					c11.6,0,21.1-10.2,21.1-22.6v-90.6C474.3,198.2,464.8,188.1,453.2,188.1z M263,87.8l8.4-3.1l1.1-3.6c0.8-2.5,1.8-5.1,3-7.6
					l1.6-3.4l-3.9-8.6L286,47.8l8,4.2l3.1-1.7c2.3-1.3,4.7-2.3,7.1-3.2l3.4-1.2l2.9-9h18.1l2.9,9l3.4,1.2c2.4,0.8,4.7,1.9,7.1,3.2
					l3.1,1.7l8-4.2l12.8,13.7l-3.9,8.6l1.6,3.4c1.2,2.5,2.2,5.1,3,7.6l1.1,3.6l8.4,3.1v19.4l-8.4,3.1l-1.1,3.6
					c-0.8,2.5-1.8,5.1-3,7.6l-1.6,3.4l3.9,8.6L352.8,147l-8-4.2l-3.1,1.7c-2.3,1.3-4.7,2.3-7.1,3.2l-3.4,1.2l-2.9,9h-18.1l-2.9-9
					l-3.4-1.2c-2.4-0.8-4.7-1.9-7.1-3.2l-3.1-1.7l-8,4.2l-12.8-13.7l3.9-8.6l-1.6-3.4c-1.2-2.5-2.2-5.1-3-7.6l-1.1-3.6l-8.4-3.1
					V87.8H263z M263,404.8l8.4-3.1l1.1-3.6c0.8-2.5,1.8-5.1,3-7.6l1.6-3.4l-3.9-8.6l12.8-13.7l8,4.2l3.1-1.7
					c2.3-1.3,4.7-2.3,7.1-3.2l3.4-1.2l2.8-9h18.1l2.9,9l3.4,1.2c2.4,0.8,4.7,1.9,7.1,3.2l3.1,1.7l8-4.2l12.8,13.7l-3.9,8.6l1.6,3.4
					c1.2,2.5,2.2,5.1,3,7.6l1.1,3.6l8.4,3.1v19.4l-8.4,3.1l-1.1,3.6c-0.8,2.5-1.8,5.1-3,7.6l-1.6,3.4l3.9,8.6L353,464.2l-8-4.2
					l-3.1,1.7c-2.3,1.3-4.7,2.3-7.1,3.2l-3.4,1.2l-2.8,9h-18.1l-2.9-9l-3.4-1.2c-2.4-0.8-4.7-1.9-7.1-3.2L294,460l-8,4.2l-12.8-13.7
					l3.9-8.6l-1.6-3.4c-1.2-2.5-2.2-5.1-3-7.6l-1.1-3.6l-8.4-3.1V404.8z M129.3,339c-7.6,0-15.6-11.5-21.2-30.2h42.4
					C144.9,327.5,136.8,339,129.3,339z M104.5,293.7c-1.7-9.1-2.9-19.3-3.2-30.2h56c-0.4,10.9-1.5,21.1-3.2,30.2H104.5z M52.2,263.5
					h35c0.3,10.7,1.3,20.9,2.9,30.2H60.4C55.9,284.5,53.1,274.3,52.2,263.5z M129.3,173c7.6,0,15.6,11.5,21.2,30.2h-42.4
					C113.6,184.5,121.7,173,129.3,173z M154,218.3c1.7,9.1,2.9,19.3,3.2,30.2h-56c0.4-10.9,1.5-21.1,3.2-30.2H154z M87.2,248.5h-35
					c0.9-10.8,3.8-21,8.2-30.2h29.7C88.5,227.6,87.5,237.7,87.2,248.5z M171.4,263.5h35c-0.9,10.8-3.8,21-8.2,30.2h-29.7
					C170.1,284.4,171,274.3,171.4,263.5z M171.4,248.5c-0.3-10.7-1.3-20.9-2.9-30.2h29.7c4.4,9.2,7.3,19.4,8.2,30.2H171.4z
					 M189,203.2h-23.8c-2.6-9.8-5.9-18.3-9.8-25.2C168.6,183,180.2,191.8,189,203.2L189,203.2z M115.2,97.5
					c0-8.3,6.3-15.1,14.1-15.1s14.1,6.8,14.1,15.1s-6.3,15.1-14.1,15.1S115.2,105.8,115.2,97.5z M103.1,177.9
					c-3.9,6.9-7.2,15.4-9.8,25.2H69.6C78.3,191.8,89.9,183,103.1,177.9z M69.6,308.8h23.8c2.6,9.8,5.9,18.3,9.8,25.2
					C89.9,329,78.3,320.2,69.6,308.8z M143.3,414.5c0,8.3-6.3,15.1-14.1,15.1s-14.1-6.8-14.1-15.1s6.3-15.1,14.1-15.1
					S143.3,406.2,143.3,414.5z M155.4,334.1c3.9-6.9,7.2-15.4,9.8-25.2H189C180.2,320.2,168.6,329,155.4,334.1L155.4,334.1z
					 M389.8,203.2H418v15.1h-28.2V203.2z M460.2,301.3c0,4.2-3.2,7.5-7,7.5h-98.6c-3.9,0-7-3.4-7-7.5v-90.6c0-4.2,3.2-7.5,7-7.5
					h21.1v30.2H432v-30.2h21.1c3.9,0,7,3.4,7,7.5v90.6H460.2z"/>
				<path class="st1" d="M403.9,278.6H418v15.1h-14.1V278.6z"/>
				<path class="st1" d="M432,278.6h14.1v15.1H432V278.6z"/>
			</g>
		</g>
	</g>
</g>
<g id="Слой_2_1_">
	<path class="st2" d="M426,501.5H87c-41.5,0-75.5-34-75.5-75.5V87c0-41.5,34-75.5,75.5-75.5h337.5c42.4,0,77,34.7,77,77V426
		C501.5,467.5,467.5,501.5,426,501.5z"/>
</g>
</svg>
