<?xml version="1.0" encoding="utf-8"?>
<!-- Generator: Adobe Illustrator 22.1.0, SVG Export Plug-In . SVG Version: 6.00 Build 0)  -->
<svg version="1.1" id="Слой_1" xmlns="http://www.w3.org/2000/svg" xmlns:xlink="http://www.w3.org/1999/xlink" x="0px" y="0px"
	 viewBox="0 0 512 512" style="enable-background:new 0 0 512 512;" xml:space="preserve">
<style type="text/css">
	.st0{fill:#E6F1FA;stroke:#002E57;stroke-width:4;stroke-miterlimit:10;}
	.st1{fill:#CEE4F7;stroke:#002E57;stroke-width:4;stroke-miterlimit:10;}
	.st2{fill:#44EFFC;stroke:#002E57;stroke-width:4;stroke-miterlimit:10;}
	.st3{fill:#537D91;stroke:#002E57;stroke-width:4;stroke-miterlimit:10;}
	.st4{fill:#45738A;stroke:#002E57;stroke-width:4;stroke-miterlimit:10;}
	.st5{fill:#003956;stroke:#002E57;stroke-width:4;stroke-miterlimit:10;}
	.st6{fill:#005056;stroke:#002E57;stroke-width:4;stroke-miterlimit:10;}
	.st7{fill:#002E57;stroke:#002E57;stroke-width:4;stroke-miterlimit:10;}
	.st8{fill:none;stroke:#002E57;stroke-width:30;stroke-miterlimit:10;}
</style>
<path class="st0" d="M101.8,234.1h41.6v169.2h-41.6V234.1z"/>
<path class="st1" d="M125,234.1h18.4v169.2H125V234.1z"/>
<path class="st0" d="M434.9,188.2L257.3,65.3c-1.7-1.2-4-1.2-5.7,0L74,188.2v13.9h360.8V188.2z"/>
<path class="st1" d="M257.3,65.3c-1.7-1.2-4-1.2-5.7,0l-6.4,4.4l171.2,118.5v13.9h18.4v-13.9L257.3,65.3z"/>
<path class="st2" d="M268.3,146.6c0,7.7-6.2,13.9-13.9,13.9c-7.7,0-13.9-6.2-13.9-13.9c0-7.7,6.2-13.9,13.9-13.9
	C262.1,132.7,268.3,138.9,268.3,146.6z"/>
<path class="st3" d="M152.3,243.7H92.9c-2.8,0-5-2.3-5-5v-31.8h69.4v31.8C157.3,241.5,155.1,243.7,152.3,243.7z"/>
<path class="st4" d="M138.9,206.9v31.8c0,2.8-2.3,5-5,5h18.4c2.8,0,5-2.3,5-5v-31.8H138.9z"/>
<path class="st3" d="M152.3,393.8H92.9c-2.8,0-5,2.2-5,5v31.8h69.4v-31.8C157.3,396,155.1,393.8,152.3,393.8z"/>
<path class="st4" d="M138.9,430.6v-31.8c0-2.8-2.3-5-5-5h18.4c2.8,0,5,2.3,5,5v31.8H138.9z"/>
<path class="st0" d="M233.6,234.1h41.6v169.2h-41.6V234.1z"/>
<path class="st1" d="M256.8,234.1h18.4v169.2h-18.4V234.1z"/>
<path class="st3" d="M284.1,243.7h-59.3c-2.8,0-5-2.3-5-5v-31.8h69.4v31.8C289.2,241.5,286.9,243.7,284.1,243.7z"/>
<path class="st4" d="M270.7,206.9v31.8c0,2.8-2.3,5-5,5h18.4c2.8,0,5-2.3,5-5v-31.8H270.7z"/>
<path class="st3" d="M284.1,393.8h-59.3c-2.8,0-5,2.2-5,5v31.8h69.4v-31.8C289.2,396,286.9,393.8,284.1,393.8z"/>
<path class="st4" d="M270.7,430.6v-31.8c0-2.8-2.3-5-5-5h18.4c2.8,0,5,2.3,5,5v31.8H270.7z"/>
<path class="st0" d="M365.5,234.1h41.6v169.2h-41.6V234.1z"/>
<path class="st1" d="M388.7,234.1h18.4v169.2h-18.4V234.1z"/>
<path class="st3" d="M416,243.7h-59.3c-2.8,0-5-2.3-5-5v-31.8H421v31.8C421,241.5,418.8,243.7,416,243.7z"/>
<path class="st4" d="M402.6,206.9v31.8c0,2.8-2.3,5-5,5H416c2.8,0,5-2.3,5-5v-31.8H402.6z"/>
<path class="st3" d="M416,393.8h-59.3c-2.8,0-5,2.2-5,5v31.8H421v-31.8C421,396,418.8,393.8,416,393.8z"/>
<path class="st4" d="M402.6,430.6v-31.8c0-2.8-2.3-5-5-5H416c2.8,0,5,2.3,5,5v31.8H402.6z"/>
<path class="st5" d="M443.7,215.9H65.2c-2.8,0-5-2.3-5-5v-17.7c0-2.8,2.3-5,5-5h378.5c2.8,0,5,2.2,5,5v17.7
	C448.8,213.7,446.5,215.9,443.7,215.9z"/>
<path class="st6" d="M443.7,188.2h-18.4c2.8,0,5,2.2,5,5v17.7c0,2.8-2.3,5-5,5h18.4c2.8,0,5-2.3,5-5v-17.7
	C448.8,190.4,446.5,188.2,443.7,188.2z"/>
<path class="st5" d="M448.8,463.2H60.2v-36.6c0-2.8,2.3-5,5-5h378.5c2.8,0,5,2.3,5,5V463.2z"/>
<path class="st6" d="M443.7,421.5h-18.4c2.8,0,5,2.3,5,5v36.6h18.4v-36.6C448.8,423.8,446.5,421.5,443.7,421.5z"/>
<path class="st0" d="M457.6,477H51.3c-2.8,0-5-2.3-5-5v-17.7c0-2.8,2.3-5,5-5h406.3c2.8,0,5,2.3,5,5V472
	C462.6,474.8,460.4,477,457.6,477z"/>
<path class="st1" d="M457.6,449.3h-18.4c2.8,0,5,2.3,5,5V472c0,2.8-2.3,5-5,5h18.4c2.8,0,5-2.3,5-5v-17.7
	C462.6,451.5,460.4,449.3,457.6,449.3z"/>
<path class="st7" d="M254.5,166.7c11.1,0,20.2-9,20.2-20.2c0-11.1-9-20.2-20.2-20.2s-20.2,9-20.2,20.2
	C234.3,157.7,243.3,166.7,254.5,166.7z M254.5,139c4.2,0,7.6,3.4,7.6,7.6c0,4.2-3.4,7.6-7.6,7.6s-7.6-3.4-7.6-7.6
	S250.3,139,254.5,139z"/>
<path class="st7" d="M462.6,443H455v-21.5c0-3.5-2.8-6.3-6.3-6.3h-21.5v-21.5c0-3.5-2.8-6.3-6.3-6.3h-7.6V250h7.6
	c3.5,0,6.3-2.8,6.3-6.3v-21.5h21.5c3.5,0,6.3-2.8,6.3-6.3v-27.8c0-3.5-2.8-6.3-6.3-6.3h-11.9L258,58.1c-2.1-1.5-5-1.5-7.2,0
	L72.1,181.9H60.2c-3.5,0-6.3,2.8-6.3,6.3v27.8c0,3.5,2.8,6.3,6.3,6.3h21.5v21.5c0,3.5,2.8,6.3,6.3,6.3h7.6v137.5h-7.6
	c-3.5,0-6.3,2.8-6.3,6.3v21.5H60.2c-3.5,0-6.3,2.8-6.3,6.3V443h-7.6c-3.5,0-6.3,2.8-6.3,6.3V477c0,3.5,2.8,6.3,6.3,6.3h416.4
	c3.5,0,6.3-2.8,6.3-6.3v-27.8C468.9,445.8,466.1,443,462.6,443z M414.7,415.2h-56.8V400h56.8V415.2z M371.8,387.5V250h29.1v137.5
	H371.8z M414.7,237.4h-56.8v-15.2h56.8V237.4z M351.6,250h7.6v137.5h-7.6c-3.5,0-6.3,2.8-6.3,6.3v21.5h-49.9v-21.5
	c0-3.5-2.8-6.3-6.3-6.3h-7.6V250h7.6c3.5,0,6.3-2.8,6.3-6.3v-21.5h49.9v21.5C345.3,247.2,348.1,250,351.6,250z M226,222.2h56.8v15.2
	H226V222.2z M239.9,250H269v137.5h-29.1V250z M282.9,400v15.2H226V400H282.9z M66.4,194.5H74h0h0h102c3.5,0,6.3-2.8,6.3-6.3
	c0-3.5-2.8-6.3-6.3-6.3H94.2l160.3-111l160.3,111H201.2c-3.5,0-6.3,2.8-6.3,6.3c0,3.5,2.8,6.3,6.3,6.3h233.6h0h7.7v15.2h-376V194.5z
	 M94.2,222.2H151v15.2H94.2V222.2z M137.2,250v137.5h-29.1V250H137.2z M94.2,400H151v15.2H94.2V400z M157.3,387.5h-7.6V250h7.6
	c3.5,0,6.3-2.8,6.3-6.3v-21.5h49.9v21.5c0,3.5,2.8,6.3,6.3,6.3h7.6v137.5h-7.6c-3.5,0-6.3,2.8-6.3,6.3v21.5h-49.9v-21.5
	C163.6,390.3,160.8,387.5,157.3,387.5z M66.4,427.8h376V443h-376V427.8z M456.4,470.8H52.6v-15.2h403.8V470.8z"/>
<path class="st8" d="M419.7,496.7H91.5c-42.3,0-77-34.6-77-77V91.5c0-42.3,34.7-77,77-77h328.2c42.4,0,77,34.7,77,77v328.2
	C496.7,462,462,496.7,419.7,496.7z"/>
</svg>
