<?xml version="1.0" encoding="utf-8"?>
<!-- Generator: Adobe Illustrator 22.1.0, SVG Export Plug-In . SVG Version: 6.00 Build 0)  -->
<svg version="1.1" id="Слой_1" xmlns="http://www.w3.org/2000/svg" xmlns:xlink="http://www.w3.org/1999/xlink" x="0px" y="0px"
	 viewBox="0 0 496 496" style="enable-background:new 0 0 496 496;" xml:space="preserve">
<style type="text/css">
	.st0{fill:#0DCAEC;stroke:#002E57;stroke-width:6;stroke-miterlimit:10;}
	.st1{fill:#0DCAEC;stroke:#002E57;stroke-width:12;stroke-miterlimit:10;}
	.st2{fill:#0DCAEC;stroke:#002E57;stroke-width:20;stroke-miterlimit:10;}
	.st3{fill:#002E57;}
	.st4{fill:#002E57;stroke:#002E57;stroke-width:3;stroke-miterlimit:10;}
	.st5{fill:none;stroke:#002E57;stroke-width:30;stroke-miterlimit:10;}
</style>
<g>
	<path class="st0" d="M104,339.9h188.8v47.2H104V339.9z"/>
	<path class="st1" d="M259.1,427.5H137.7l-13.5,33.7h148.3L259.1,427.5z"/>
	<path class="st2" d="M245.6,158.8v-41.4h-33.7c-7.4,0-13.5-6-13.5-13.5V63.5c0-7.4,6-13.5,13.5-13.5h134.8c7.4,0,13.5,6,13.5,13.5
		v40.5c0,7.4-6,13.5-13.5,13.5h-51.5L245.6,158.8z"/>
</g>
<path class="st3" d="M225.4,77h13.5v13.5h-13.5V77z"/>
<path class="st3" d="M252.3,77h53.9v13.5h-53.9V77z"/>
<path class="st3" d="M319.7,77h13.5v13.5h-13.5V77z"/>
<path class="st4" d="M379.8,454.5l-5.5-54.6c22.5-3.6,39.8-23.1,39.8-46.6v-87.6h-27v-9.3c0-9.2-5-17.4-13.1-21.6
	c8.1-7.4,13.1-18,13.1-29.7v-13.5c0-22.3-18.1-40.5-40.5-40.5c-22.3,0-40.5,18.1-40.5,40.5v13.5c0,17.5,11.1,32.3,26.7,38
	l-36.2,36.2h-37.8c-0.8-11.2-8.5-21-19.4-24.2l-27.6-7.9v-12c8.3-7.4,13.5-18.1,13.5-30.1v-13.5c0-22.3-18.1-40.5-40.5-40.5
	s-40.5,18.1-40.5,40.5v13.5c0,11.9,5.2,22.7,13.5,30.1v12l-27.6,7.9c-11.5,3.3-19.6,13.9-19.6,25.9v25.2h-27v40.5h13.5v107.9H36.6
	V468h418v-13.5H379.8z M319.7,346.6v-30.9l47.8-47.8c3.5-3.5,5.5-8.1,6-12.9c0.1,0.5,0.2,0.9,0.2,1.4v83.5
	c0,11.1-9.1,20.2-20.2,20.2h-53.9v-13.5H319.7z M299.5,400.6h34.4l5.4,53.9h-39.7V400.6z M347.4,400.6h13.4l5.4,53.9h-13.4
	L347.4,400.6z M387.2,339.9v-60.7h13.5v74.2c0,18.6-15.1,33.7-33.7,33.7h-67.4v-13.5h53.9C372,373.6,387.2,358.5,387.2,339.9z
	 M319.7,205.1v-13.5c0-14.9,12.1-27,27-27s27,12.1,27,27v13.5c0,14.9-12.1,27-27,27S319.7,219.9,319.7,205.1z M302.3,292.7l45-45
	c1.4-1.4,3.4-2.2,5.3-2.2c4.2,0,7.6,3.4,7.6,7.6c0,2-0.8,3.9-2.2,5.3l-47.8,47.8h-71.4c-3.7,0-6.7-3-6.7-6.7c0-3.7,3-6.7,6.7-6.7
	H302.3z M157.9,191.6c0-14.9,12.1-27,27-27s27,12.1,27,27v13.5c0,14.9-12.1,27-27,27s-27-12.1-27-27V191.6z M184.9,245.5
	c4.7,0,9.3-0.9,13.5-2.4v7.2c-1.7,2.6-6.3,8.6-13.5,8.6s-11.8-6-13.5-8.6v-7.2C175.6,244.7,180.2,245.5,184.9,245.5z M124.2,281
	c0-6,4-11.3,9.8-13l27.8-7.9c3.9,5.1,11.5,12.4,23.1,12.4c11.6,0,19.2-7.3,23.1-12.4l27.8,7.9c5.2,1.5,8.8,6,9.5,11.2h-6.5
	c-11.1,0-20.2,9.1-20.2,20.2c0,2.4,0.5,4.6,1.2,6.7h-95.6V281z M97.3,319.7h209v13.5h-209V319.7z M110.7,373.6H131v-13.5h-20.2
	v-13.5H286v13.5H144.5v13.5H286v80.9H110.7V373.6z"/>
<path class="st5" d="M403.5,482h-311C49.9,482,15,447.1,15,404.5v-311C15,50.9,49.9,16,92.5,16h311c42.6,0,77.5,34.9,77.5,77.5v311
	C481,447.1,446.1,482,403.5,482z"/>
</svg>
