<?xml version="1.0" encoding="utf-8"?>
<!-- Generator: Adobe Illustrator 22.1.0, SVG Export Plug-In . SVG Version: 6.00 Build 0)  -->
<svg version="1.1" id="Слой_1" xmlns="http://www.w3.org/2000/svg" xmlns:xlink="http://www.w3.org/1999/xlink" x="0px" y="0px"
	 viewBox="0 0 480 480" style="enable-background:new 0 0 480 480;" xml:space="preserve">
<style type="text/css">
	.st0{fill:#E0E0DE;}
	.st1{fill:#D6D6D4;}
	.st2{fill:#B0B0AE;}
	.st3{fill:#EBEBE9;}
	.st4{fill:#C7C7C5;}
	.st5{fill:#A3A3A1;}
	.st6{fill:#C9D3CC;}
	.st7{fill:#348FD9;}
	.st8{fill:#3086CD;}
	.st9{fill:#2A71AD;}
	.st10{fill:#77CFC4;}
	.st11{fill:#77ABC4;}
	.st12{fill:#F98500;}
	.st13{fill:#002E57;}
	.st14{fill:none;stroke:#002E57;stroke-width:30;stroke-miterlimit:10;}
</style>
<path class="st0" d="M348.5,301h-25.1V276h25.1V301z"/>
<path class="st1" d="M298.4,301h75.2v75.2h-75.2V301z"/>
<path class="st2" d="M317.2,319.8h12.5v18.8h-12.5V319.8z"/>
<path class="st2" d="M342.3,319.8h12.5v18.8h-12.5V319.8z"/>
<path class="st2" d="M317.2,351.2h12.5v25.1h-12.5V351.2z"/>
<path class="st2" d="M342.3,351.2h12.5v25.1h-12.5V351.2z"/>
<path class="st3" d="M298.4,294.8h87.7v12.5h-87.7V294.8z"/>
<path class="st1" d="M373.6,426.4h-75.2v-50.1h75.2V426.4z"/>
<path class="st4" d="M367.3,426.4h-68.9v-50.1h43.9L367.3,426.4z"/>
<path class="st0" d="M351.7,395l6.3,12.5h-59.5V395H351.7z"/>
<path class="st3" d="M373.6,382.5h-75.2V370h75.2V382.5z"/>
<path class="st0" d="M298.4,420.1h87.7v12.5h-87.7V420.1z"/>
<path class="st0" d="M148,376.2h150.4v56.4H148V376.2z"/>
<path class="st0" d="M148,338.6h150.4v37.6H148V338.6z"/>
<path class="st0" d="M148,276.4h150.4v62.3H148V276.4z"/>
<g>
	<path class="st2" d="M216.9,357.4h12.5v18.8h-12.5V357.4z"/>
	<path class="st2" d="M191.9,357.4h12.5v18.8h-12.5V357.4z"/>
	<path class="st2" d="M166.8,357.4h12.5v18.8h-12.5V357.4z"/>
	<path class="st2" d="M242,357.4h12.5v18.8H242V357.4z"/>
	<path class="st2" d="M267.1,357.4h12.5v18.8h-12.5V357.4z"/>
	<path class="st2" d="M216.9,401.3h12.5v31.3h-12.5V401.3z"/>
	<path class="st2" d="M191.9,401.3h12.5v31.3h-12.5V401.3z"/>
	<path class="st2" d="M166.8,401.3h12.5v31.3h-12.5V401.3z"/>
	<path class="st2" d="M242,401.3h12.5v31.3H242V401.3z"/>
	<path class="st2" d="M267.1,401.3h12.5v31.3h-12.5V401.3z"/>
</g>
<path class="st0" d="M173.1,238.8h100.3v37.6H173.1V238.8z"/>
<path class="st2" d="M216.9,238.8h12.5v37.6h-12.5V238.8z"/>
<path class="st2" d="M242,238.8h12.5v37.6H242V238.8z"/>
<path class="st2" d="M191.9,238.8h12.5v37.6h-12.5V238.8z"/>
<path class="st4" d="M273.3,238.4H173.1v-6.3c0-28.9,21.5-53.2,50.1-56.8c28.6,3.6,50.1,27.9,50.1,56.8V238.4z"/>
<path class="st2" d="M216.9,220h12.5v18.8h-12.5V220z"/>
<path class="st2" d="M191.9,220h12.5v18.8h-12.5V220z"/>
<path class="st2" d="M242,220h12.5v18.8H242V220z"/>
<path class="st4" d="M210.7,144.4h25.1v50.1h-25.1V144.4z"/>
<path class="st0" d="M216.9,119.3h12.5v25.1h-12.5V119.3z"/>
<path class="st2" d="M216.9,301.4h12.5v37.2h-12.5V301.4z"/>
<path class="st2" d="M191.9,301.4h12.5v37.2h-12.5V301.4z"/>
<path class="st2" d="M166.8,301.4h12.5v37.2h-12.5V301.4z"/>
<path class="st2" d="M242,301.4h12.5v37.2H242V301.4z"/>
<path class="st2" d="M267.1,301.4h12.5v37.2h-12.5V301.4z"/>
<path class="st1" d="M298.4,301.4H148v-25.1h150.4V301.4z"/>
<path class="st0" d="M173.1,232.1h100.3V245H173.1V232.1z"/>
<path class="st1" d="M148,332.4h150.4v12.5H148V332.4z"/>
<path class="st1" d="M148,376.2h150.4v12.5H148V376.2z"/>
<path class="st0" d="M97.9,276h25.1V301H97.9V276z"/>
<path class="st1" d="M72.8,301H148v75.2H72.8V301z"/>
<path class="st2" d="M116.7,319.8h12.5v18.8h-12.5V319.8z"/>
<path class="st2" d="M91.6,319.8h12.5v18.8H91.6V319.8z"/>
<path class="st2" d="M116.7,351.2h12.5v25.1h-12.5V351.2z"/>
<path class="st2" d="M91.6,351.2h12.5v25.1H91.6V351.2z"/>
<path class="st3" d="M60.3,294.8H148v12.5H60.3V294.8z"/>
<path class="st1" d="M72.8,376.2H148v50.1H72.8V376.2z"/>
<path class="st4" d="M79.1,426.4H148v-50.1h-43.9L79.1,426.4z"/>
<path class="st0" d="M94.7,395l-6.3,12.5H148V395H94.7z"/>
<path class="st3" d="M72.8,370H148v12.5H72.8V370z"/>
<path class="st0" d="M60.3,420.1H148v12.5H60.3V420.1z"/>
<path class="st4" d="M298.4,307.3v19.3c5.8,3.9,12.1,6.9,18.8,8.9v-15.7h12.5v18.3c2.7,0.3,5.5,0.5,8.2,0.5h4.3v-18.8h12.5v18.8h4.3
	c4.9,0,9.7-0.5,14.5-1.5v-29.8H298.4z"/>
<path class="st5" d="M329.7,319.8h-12.5v15.7c4.1,1.2,8.3,2.1,12.5,2.6V319.8z"/>
<path class="st5" d="M342.3,319.8h12.5v18.8h-12.5V319.8z"/>
<path class="st1" d="M279.6,301.4v6.5c5,7.3,11.4,13.6,18.8,18.6v-25.1H279.6z"/>
<path class="st6" d="M379.9,175.7h-75.2c-6.9,0-12.5-5.6-12.5-12.5V113L286,110c-3.9-2-6.4-6-6.4-10.4c0-6.4,5.2-11.6,11.6-11.6
	h88.6V175.7z"/>
<path class="st7" d="M379.9,88H430v87.7h-50.1V88z"/>
<path class="st8" d="M379.9,144.4H430v31.3h-50.1V144.4z"/>
<path class="st9" d="M398.7,144.4h12.5v12.5h-12.5V144.4z"/>
<path class="st10" d="M361.1,88h-50.1l-12.5-25.1h75.2L361.1,88z"/>
<path class="st10" d="M346.6,326.1h-21.1c-39.2,0-70.9-31.7-70.9-70.9c0-18.8,7.5-36.8,20.8-50.1l29.4-29.4h62.7l29.4,29.4
	c13.3,13.3,20.8,31.3,20.8,50.1C417.5,294.4,385.7,326.1,346.6,326.1z"/>
<path class="st11" d="M396.7,205.1l-7.2-7.2c-27.9,61.8-82.4,89-120,100.8c13.4,17.3,34.1,27.5,55.9,27.5h21.1
	c28.7,0,54.5-17.3,65.5-43.8C423,255.8,417,225.3,396.7,205.1z"/>
<path class="st12" d="M342.3,244.6h-12.5c-3.5,0-6.3-2.8-6.3-6.3s2.8-6.3,6.3-6.3h25.1v-12.5h-12.5V207h-12.5v12.5
	c-10.4,0-18.8,8.4-18.8,18.8s8.4,18.8,18.8,18.8h12.5c3.5,0,6.3,2.8,6.3,6.3c0,3.5-2.8,6.3-6.3,6.3h-25.1v12.5h12.5v12.5h12.5v-12.5
	c10.4,0,18.8-8.4,18.8-18.8C361.1,253.1,352.6,244.6,342.3,244.6z"/>
<path class="st11" d="M379.9,188.2l-12.5-12.5h-62.7l-12.5,12.5H379.9z"/>
<path class="st13" d="M116.7,319.8h12.5v18.8h-12.5V319.8z"/>
<path class="st13" d="M91.6,319.8h12.5v18.8H91.6V319.8z"/>
<path class="st13" d="M379.9,376.2v-37.6h-12.5V370h-12.5v-18.8h-12.5V370h-12.5v-18.8h-12.5V370h-12.5v-31.3c0-3.5-2.8-6.3-6.3-6.3
	h-18.8v-6.3h-12.5v6.3h-12.5v-18.8H242v18.8h-12.5v-25l12.5,0v-12.5l-87.7,0.4v-12.5l18.8-0.1l50.1-0.3h6.3v-37.5l12.6-0.1
	l-0.1-12.5l-12.5,0.1V220h-12.5v12.3l-12.5,0.1V220h-12.5v12.4l-12.5,0.1c0-21.4,13.4-40.5,33.5-47.8c3.3-1.3,6.8-2.1,10.3-2.6
	c3.6,0.5,7.1,1.4,10.4,2.7c8,2.9,15.1,7.7,20.6,14.1l9.4-8.3c-6-6.8-13.4-12.2-21.7-15.8v-30.3c0-3.5-2.8-6.3-6.3-6.3h-6.3v-18.8
	h-12.5v18.8h-6.3c-3.5,0-6.3,2.8-6.3,6.3v30.2c-22.8,10.2-37.6,32.9-37.6,57.9V270l-18.8,0.1c-0.4,0-0.7,0.1-1,0.2
	c-1.1,0-2.1,0.5-2.9,1.3c-0.1,0.1-0.3,0.2-0.5,0.3c-0.6,0.6-1,1.2-1.3,2c-0.3,0.8-0.5,1.6-0.5,2.4v18.4h-12.5V276
	c0-3.5-2.8-6.3-6.3-6.3H97.9c-3.5,0-6.3,2.8-6.3,6.3v18.8H60.3v12.5h6.3v112.8h-6.3v12.5h325.9v-12.5h-6.3V376.2z M229.5,150.6v19.9
	c-1.8-0.4-3.6-0.8-5.5-1c-0.5-0.1-1.1-0.1-1.6,0c-1.9,0.2-3.7,0.6-5.5,1v-19.9H229.5z M367.3,412.4l-14.9-29.9h14.9V412.4z
	 M338.4,382.5l6.3,12.5h-40v-12.5H338.4z M292.1,370h-12.5v-12.5h-12.5V370h-12.5v-12.5H242V370h-12.5v-12.5h-12.5V370h-12.5v-12.5
	h-12.5V370h-12.5v-12.5h-12.5V370h-12.5v-25.1h137.9V370z M141.7,395h-40l6.3-12.5h33.7V395z M79.1,382.5H94l-14.9,29.9V382.5z
	 M179.3,332.4v-24.8l12.5,0v24.9H179.3z M216.9,332.4h-12.5v-24.9l12.5,0V332.4z M166.8,307.6v24.8h-12.5v-24.7L166.8,307.6z
	 M216.9,245v24.7l-12.5,0.1V245H216.9z M179.3,245h12.5v24.8l-12.5,0.1V245z M104.1,282.2h12.5v12.5h-12.5V282.2z M79.1,307.3h62.7
	V370h-12.5v-18.8h-12.5V370h-12.5v-18.8H91.6V370H79.1V307.3z M95.5,407.6h46.3v12.5H89.2L95.5,407.6z M154.3,382.5h137.9v37.6
	h-12.5v-18.8h-12.5v18.8h-12.5v-18.8H242v18.8h-12.5v-18.8h-12.5v18.8h-12.5v-18.8h-12.5v18.8h-12.5v-18.8h-12.5v18.8h-12.5V382.5z
	 M304.7,420.1v-12.5h46.3l6.3,12.5H304.7z"/>
<path class="st13" d="M371.2,81.7l8-16c1-1.9,0.9-4.3-0.3-6.1c-1.2-1.8-3.2-3-5.4-3h-75.2c-2.2,0-4.2,1.1-5.4,3
	c-1.2,1.9-1.3,4.2-0.3,6.1l8,16h-9.6c-8.3,0-15.5,5.7-17.4,13.8c-1.9,8.1,2,16.4,9.4,20.1l2.6,1.3v46.3c0,5.9,2.8,11.4,7.5,14.9
	l-22.5,22.5c-22.1,22.1-28.7,55.3-16.7,84.1c11.9,28.8,40.1,47.6,71.3,47.6h21.1c31.2,0,59.3-18.8,71.3-47.6
	c11.9-28.8,5.3-62-16.7-84.1L382.5,182h53.8v-12.5h-50.1V94.2h50.1V81.7H371.2z M308.5,69.2h54.9l-6.3,12.5h-42.4L308.5,69.2z
	 M288.8,104.4c-2.2-1.1-3.4-3.6-2.8-6c0.6-2.4,2.7-4.1,5.2-4.1h82.4v75.2h-68.9c-3.5,0-6.3-2.8-6.3-6.3V113c0-2.4-1.3-4.5-3.5-5.6
	L288.8,104.4z M411.2,255.2c0,35.7-29,64.6-64.6,64.6h-21.1c-26.1,0-49.7-15.7-59.7-39.9c-10-24.2-4.5-52,14-70.4l27.5-27.5h57.5
	l27.5,27.5C404.4,221.6,411.2,238.1,411.2,255.2z"/>
<path class="st13" d="M398.7,144.4h12.5v12.5h-12.5V144.4z"/>
<path class="st13" d="M342.3,244.6h-12.5c-3.5,0-6.3-2.8-6.3-6.3s2.8-6.3,6.3-6.3h25.1v-12.5h-12.5V207h-12.5v12.5
	c-10.4,0-18.8,8.4-18.8,18.8s8.4,18.8,18.8,18.8h12.5c3.5,0,6.3,2.8,6.3,6.3c0,3.5-2.8,6.3-6.3,6.3h-25.1v12.5h12.5v12.5h12.5v-12.5
	c10.4,0,18.8-8.4,18.8-18.8C361.1,253.1,352.6,244.6,342.3,244.6z"/>
<path class="st14" d="M389.5,466.5H91c-42.3,0-77-34.6-77-77V91c0-42.3,34.7-77,77-77h298.5c42.4,0,77,34.7,77,77v298.5
	C466.5,431.9,431.9,466.5,389.5,466.5z"/>
</svg>
