<?xml version="1.0" encoding="utf-8"?>
<!-- Generator: Adobe Illustrator 22.1.0, SVG Export Plug-In . SVG Version: 6.00 Build 0)  -->
<svg version="1.1" xmlns="http://www.w3.org/2000/svg" xmlns:xlink="http://www.w3.org/1999/xlink" x="0px" y="0px"
	 viewBox="0 0 512 512" style="enable-background:new 0 0 512 512;" xml:space="preserve">
<style type="text/css">
	.st0{fill:#E2E2E2;stroke:#201600;stroke-linecap:round;stroke-miterlimit:10;}
	.st1{fill:#4AA1E2;stroke:#201600;stroke-linecap:round;stroke-miterlimit:10;}
	.st2{fill:#75E0BF;stroke:#201600;stroke-linecap:round;stroke-miterlimit:10;}
	.st3{fill:#002E57;}
	.st4{fill:none;stroke:#002E57;stroke-width:30;stroke-miterlimit:10;}
</style>
<g id="Слой_2">
	<circle class="st0" cx="105" cy="285" r="35.3"/>
	<circle class="st0" cx="405.2" cy="287.2" r="35.3"/>
	<path class="st0" d="M292,257h-71c-24.9,0-45-20.1-45-45V106c0-24.9,20.1-45,45-45h71c24.9,0,45,20.1,45,45v106
		C337,236.9,316.9,257,292,257z"/>
	<path class="st1" d="M123.1,452H85.9c-19.8,0-35.8-16-35.8-35.8v-37.1c0-19.8,16-35.8,35.8-35.8h37.1c19.8,0,35.8,16,35.8,35.8
		v37.1C158.9,436,142.8,452,123.1,452z"/>
	<path class="st2" d="M423.7,449.1h-37.1c-19.8,0-35.8-16-35.8-35.8v-37.1c0-19.8,16-35.8,35.8-35.8h37.1c19.8,0,35.8,16,35.8,35.8
		v37.1C459.5,433.1,443.5,449.1,423.7,449.1z"/>
</g>
<g id="Capa_1">
	<g>
		<g>
			<path class="st3" d="M431.2,329.6h-1.7c14.3-8.7,23.9-24.4,23.9-42.4c0-27.3-22.2-49.5-49.5-49.5s-49.5,22.2-49.5,49.5
				c0,17.9,9.6,33.7,23.9,42.4h-1.7c-20.8,0-37.8,17-37.8,37.8v9.6h-23.4c-7.9,0-14.3-6.4-14.3-14.3v-91.4h7.8
				c20.8,0,37.8-17,37.8-37.8v-53.7l23.8-18.5c5.5-4.3,6.5-12.2,2.2-17.7c-4.3-5.5-12.2-6.5-17.7-2.2l-8.4,6.5V88
				c0-20.8-17-37.8-37.8-37.8H199.3c-20.8,0-37.8,17-37.8,37.8v145.4c0,20.8,17,37.8,37.8,37.8h7.8v91.4c0,7.9-6.4,14.3-14.3,14.3
				h-23.4v-9.6c0-20.8-17-37.8-37.8-37.8h-1.7c14.3-8.7,23.9-24.4,23.9-42.4c0-27.3-22.2-49.5-49.5-49.5s-49.5,22.2-49.5,49.5
				c0,17.9,9.6,33.7,23.9,42.4h-1.7c-20.8,0-37.8,17-37.8,37.8v58.3c0,18.9,15.4,34.3,34.3,34.3h61.7c18.9,0,34.3-15.4,34.3-34.3
				v-23.5h23.4c21.8,0,39.5-17.7,39.5-39.5v-91.4h43.5v91.4c0,21.8,17.7,39.5,39.5,39.5h23.4v23.5c0,18.9,15.4,34.3,34.3,34.3h61.7
				c18.9,0,34.3-15.4,34.3-34.3v-58.3C469,346.5,452,329.6,431.2,329.6z M104.2,262.9c13.4,0,24.3,10.9,24.3,24.3
				s-10.9,24.3-24.3,24.3s-24.3-10.9-24.3-24.3C79.8,273.8,90.8,262.9,104.2,262.9z M144.2,425.6c0,5-4.1,9.1-9.1,9.1H73.3
				c-5,0-9.1-4.1-9.1-9.1v-58.3c0-6.9,5.7-12.6,12.6-12.6h54.8c6.9,0,12.6,5.7,12.6,12.6V425.6z M199.3,246
				c-6.9,0-12.6-5.7-12.6-12.6V88c0-6.9,5.7-12.6,12.6-12.6h109.5c6.9,0,12.6,5.7,12.6,12.6v79.4l-30.8,23.9H217
				c-7,0-12.6,5.6-12.6,12.6s5.6,12.6,12.6,12.6c0,0,77.9,0,77.9,0c2.6,0.1,5.3-0.9,7.3-2.4c0.1-0.1,19.1-14.8,19.1-14.8v34.1
				c0,6.9-5.7,12.6-12.6,12.6L199.3,246L199.3,246z M403.8,262.9c13.4,0,24.3,10.9,24.3,24.3s-10.9,24.3-24.3,24.3
				c-13.4,0-24.3-10.9-24.3-24.3S390.4,262.9,403.8,262.9z M443.8,425.6c0,5-4.1,9.1-9.1,9.1h-61.7c-5,0-9.1-4.1-9.1-9.1v-58.3
				c0-6.9,5.7-12.6,12.6-12.6h54.8c6.9,0,12.6,5.7,12.6,12.6V425.6z"/>
		</g>
	</g>
	<g>
		<g>
			<path class="st3" d="M291,104.9H217c-7,0-12.6,5.6-12.6,12.6s5.6,12.6,12.6,12.6H291c7,0,12.6-5.6,12.6-12.6S298,104.9,291,104.9
				z"/>
		</g>
	</g>
	<g>
		<g>
			<path class="st3" d="M291,148.1H217c-7,0-12.6,5.6-12.6,12.6s5.6,12.6,12.6,12.6H291c7,0,12.6-5.6,12.6-12.6S298,148.1,291,148.1
				z"/>
		</g>
	</g>
	<path class="st4" d="M419.5,497h-329C47.9,497,13,462.1,13,419.5v-329C13,47.9,47.9,13,90.5,13h329c42.6,0,77.5,34.9,77.5,77.5v329
		C497,462.1,462.1,497,419.5,497z"/>
</g>
</svg>
