<?xml version="1.0" encoding="utf-8"?>
<!-- Generator: Adobe Illustrator 22.1.0, SVG Export Plug-In . SVG Version: 6.00 Build 0)  -->
<svg version="1.1" xmlns="http://www.w3.org/2000/svg" xmlns:xlink="http://www.w3.org/1999/xlink" x="0px" y="0px"
	 viewBox="0 0 512 512" style="enable-background:new 0 0 512 512;" xml:space="preserve">
<style type="text/css">
	.st0{fill:#002E57;stroke:#002E57;stroke-width:7;stroke-miterlimit:10;}
	.st1{fill:#D6D3D3;stroke:#002E57;stroke-width:7;stroke-miterlimit:10;}
	.st2{fill:#0079C5;stroke:#002E57;stroke-width:7;stroke-miterlimit:10;}
	.st3{fill:none;stroke:#002E57;stroke-width:30;stroke-miterlimit:10;}
</style>
<g id="Слой_2">
</g>
<g id="Layer_5">
	<g>
		<path class="st0" d="M470.7,296v-50.7l-18.8-4.8c-0.8-2.1-1.7-4.3-2.7-6.4l9.9-16.7l-35.9-35.9l-16.7,9.9c-2.1-1-4.3-1.9-6.4-2.7
			l-4.8-18.8h-18.6V82.7c0-18.5-15.1-33.6-33.6-33.6H88c-18.5,0-33.6,15.1-33.6,33.6v60.4h53.7v174.5H88
			c-18.5,0-33.6,15.1-33.6,33.6s15.1,33.6,33.6,33.6h20.1v47c0,18.5,15.1,33.6,33.6,33.6h255.1c18.5,0,33.6-15.1,33.6-33.6v-33.6
			h-53.7v-26.8h18.6l4.8-18.8c2.1-0.8,4.3-1.7,6.4-2.7l16.7,9.9l35.9-35.9l-9.9-16.7c1-2.1,1.9-4.3,2.7-6.4L470.7,296z M94.8,371.4
			H88c-11.1,0-20.1-9-20.1-20.1s9-20.1,20.1-20.1h6.7V371.4z M67.9,129.7v-47c0-11.1,9-20.1,20.1-20.1c11.1,0,20.1,9,20.1,20.1v47
			H67.9z M108.2,331.1H229v13.4H108.2V331.1z M108.2,371.4V358H229v13.4H108.2z M161.9,431.8c0,11.1-9,20.1-20.1,20.1
			c-11.1,0-20.1-9-20.1-20.1v-47h115.7L273,367c6-3,9.7-9,9.7-15.7s-3.7-12.7-9.7-15.7l-35.7-17.9H121.6v-235
			c0-7.6-2.6-14.5-6.9-20.1h228.4c11.1,0,20.1,9,20.1,20.1V170h-18.6l-4.8,18.8c-2.1,0.8-4.3,1.7-6.4,2.7l-16.7-9.9l-35.9,35.9
			l9.9,16.7c-1,2.1-1.9,4.3-2.7,6.4l-18.8,4.8V296l18.8,4.8c0.8,2.1,1.7,4.3,2.7,6.4l-9.9,16.7l35.9,35.9l16.7-9.9
			c2.1,1,4.3,1.9,6.4,2.7l4.8,18.8h18.6v26.8H161.9V431.8z M242.5,367.2v-32l24.6,12.3c1.4,0.7,2.3,2.1,2.3,3.7s-0.9,3-2.3,3.7
			L242.5,367.2z M417,411.7v20.1c0,11.1-9,20.1-20.1,20.1H168.6c4.2-5.6,6.7-12.6,6.7-20.1v-20.1H417z M442.3,321.8L421.2,343
			l-14.1-8.4l-3.3,1.7c-3.8,1.9-7.6,3.5-11.3,4.7l-3.5,1.1l-4,15.8h-29.8l-4-15.8l-3.5-1.1c-3.8-1.2-7.6-2.8-11.3-4.7l-3.3-1.7
			l-14.1,8.4l-21.1-21.1l8.4-14.1l-1.7-3.3c-1.9-3.8-3.5-7.5-4.7-11.3l-1.1-3.5l-15.8-4v-29.8l15.8-4l1.1-3.5
			c1.2-3.8,2.8-7.6,4.7-11.3l1.7-3.3l-8.4-14.1l21.1-21.1l14.1,8.4l3.3-1.7c3.8-1.9,7.6-3.5,11.3-4.7l3.5-1.1l4-15.8h29.8l4,15.8
			l3.5,1.1c3.8,1.2,7.6,2.8,11.3,4.7l3.3,1.7l14.1-8.4l21.1,21.1l-8.4,14.1l1.7,3.3c1.9,3.8,3.5,7.5,4.7,11.3l1.1,3.5l15.8,4v29.8
			l-15.8,4l-1.1,3.5c-1.2,3.8-2.8,7.6-4.7,11.3l-1.7,3.3L442.3,321.8z"/>
		<path class="st1" d="M269.3,351.3c0,1.6-0.9,3-2.3,3.7l-24.6,12.3v-32l24.6,12.3C268.4,348.3,269.3,349.7,269.3,351.3z"/>
		<path class="st1" d="M94.8,331.1v40.3H88c-11.1,0-20.1-9-20.1-20.1s9-20.1,20.1-20.1H94.8z"/>
		<rect x="108.2" y="331.1" class="st1" width="120.8" height="13.4"/>
		<path class="st1" d="M440.4,293.2l1.1-3.5l15.8-4v-29.8l-15.8-4l-1.1-3.5c-1.2-3.7-2.8-7.5-4.7-11.3l-1.7-3.3l8.4-14.1l-21.1-21.1
			l-14.1,8.4l-3.3-1.7c-3.8-1.9-7.6-3.5-11.3-4.7l-3.5-1.1l-4-15.8h-29.8l-4,15.8l-3.5,1.1c-3.8,1.2-7.6,2.8-11.3,4.7l-3.3,1.7
			l-14.1-8.4l-21.1,21.1l8.4,14.1l-1.7,3.3c-1.9,3.7-3.5,7.6-4.7,11.3l-1.1,3.5l-15.8,4v29.8l15.8,4l1.1,3.5
			c1.2,3.8,2.8,7.5,4.7,11.3l1.7,3.3l-8.4,14.1l21.1,21.1l14.1-8.4l3.3,1.7c3.8,1.9,7.6,3.5,11.3,4.7l3.5,1.1l4,15.8h29.8l4-15.8
			l3.5-1.1c3.8-1.2,7.6-2.8,11.3-4.7l3.3-1.7l14.1,8.4l21.1-21.1l-8.4-14.1l1.7-3.3C437.6,300.7,439.2,296.9,440.4,293.2z
			 M370,331.1c-33.3,0-60.4-27.1-60.4-60.4s27.1-60.4,60.4-60.4c33.3,0,60.4,27.1,60.4,60.4S403.3,331.1,370,331.1z"/>
		<path class="st1" d="M333.5,191.5c2.1-1,4.3-1.9,6.4-2.7l4.8-18.8h18.6V82.7c0-11.1-9-20.1-20.1-20.1H114.7
			c4.3,5.6,6.9,12.5,6.9,20.1v235h115.7l35.7,17.9c6,3,9.7,9,9.7,15.7S279,364,273,367l-35.7,17.9H121.6v47c0,11.1,9,20.1,20.1,20.1
			c11.1,0,20.1-9,20.1-20.1v-33.6h201.4v-26.8h-18.6l-4.8-18.8c-2.1-0.8-4.3-1.7-6.4-2.7l-16.7,9.9L280.9,324l9.9-16.7
			c-1-2.1-1.9-4.3-2.7-6.4l-18.8-4.8v-50.7l18.8-4.8c0.8-2.1,1.7-4.3,2.7-6.4l-9.9-16.7l35.9-35.9L333.5,191.5z M135,196.8h94v13.4
			h-94V196.8z M135,250.5h13.4V264H135V250.5z M255.9,290.8H135v-13.4h120.8V290.8z M255.9,264h-94v-13.4h94V264z M255.9,237.1H135
			v-13.4h120.8V237.1z M255.9,210.3h-13.4v-13.4h13.4V210.3z M255.9,183.4H135V170h120.8V183.4z M135,156.6V76h214.8v80.6H135z"/>
		<rect x="108.2" y="358" class="st2" width="120.8" height="13.4"/>
		<path class="st2" d="M108.2,82.7v47H67.9v-47c0-11.1,9-20.1,20.1-20.1C99.2,62.6,108.2,71.6,108.2,82.7z"/>
		<path class="st2" d="M417,411.7v20.1c0,11.1-9,20.1-20.1,20.1H168.6c4.2-5.6,6.7-12.6,6.7-20.1v-20.1H417z"/>
		<path class="st0" d="M370,210.3c-33.3,0-60.4,27.1-60.4,60.4s27.1,60.4,60.4,60.4c33.3,0,60.4-27.1,60.4-60.4
			S403.3,210.3,370,210.3z M370,317.7c-25.9,0-47-21.1-47-47s21.1-47,47-47c25.9,0,47,21.1,47,47S395.9,317.7,370,317.7z"/>
		<path class="st2" d="M417,270.7c0,25.9-21.1,47-47,47c-25.9,0-47-21.1-47-47s21.1-47,47-47C395.9,223.7,417,244.8,417,270.7z"/>
		<path class="st0" d="M135,76v80.6h214.8V76H135z M336.5,143.1h-188V89.4h188V143.1z"/>
		<rect x="148.5" y="89.4" class="st2" width="188" height="53.7"/>
		<rect x="135" y="170" class="st0" width="120.8" height="13.4"/>
		<rect x="242.5" y="196.8" class="st0" width="13.4" height="13.4"/>
		<rect x="135" y="196.8" class="st0" width="94" height="13.4"/>
		<rect x="135" y="223.7" class="st0" width="120.8" height="13.4"/>
		<rect x="161.9" y="250.5" class="st0" width="94" height="13.4"/>
		<rect x="135" y="250.5" class="st0" width="13.4" height="13.4"/>
		<rect x="135" y="277.4" class="st0" width="120.8" height="13.4"/>
	</g>
	<path class="st3" d="M419.5,497h-326C50.9,497,16,462.1,16,419.5v-326C16,50.9,50.9,16,93.5,16h326c42.6,0,77.5,34.9,77.5,77.5v326
		C497,462.1,462.1,497,419.5,497z"/>
</g>
</svg>
