<?xml version="1.0" encoding="utf-8"?>
<!-- Generator: Adobe Illustrator 22.1.0, SVG Export Plug-In . SVG Version: 6.00 Build 0)  -->
<svg version="1.1" id="Layer_1" xmlns="http://www.w3.org/2000/svg" xmlns:xlink="http://www.w3.org/1999/xlink" x="0px" y="0px"
	 viewBox="0 0 512 512" style="enable-background:new 0 0 512 512;" xml:space="preserve">
<style type="text/css">
	.st0{fill:#6DC9F7;}
	.st1{fill:#D4FBFF;}
	.st2{fill:#0089EF;}
	.st3{fill:#FA759E;}
	.st4{fill:#FFFFFF;}
	.st5{fill:#3A2C60;}
	.st6{fill:#002E57;}
	.st7{fill:#CEE2DD;}
	.st8{fill:#BDCCBF;}
	.st9{fill:none;stroke:#002E57;stroke-width:30;stroke-miterlimit:10;}
</style>
<g>
	<g>
		<g>
			<g>
				<g>
					<path class="st0" d="M363.4,154.7H352c-3.6-11.1-14.1-19.2-26.4-19.2c-15.3,0-27.8,12.5-27.8,27.8c0,15.3,12.5,27.8,27.8,27.8
						c3.9,0,7.6-0.8,11-2.3v12.1h-57.4c-1.9,0-3.4,1.5-3.4,3.4v1.2c0,1.9,1.5,3.4,3.4,3.4H294c0.1,0,0.1,0,0.2,0h42.4v7.3h-42.5
						c-1.8,0-3.3,1.5-3.3,3.4v1.2c0,1.9,1.5,3.4,3.4,3.4h42.4v7.3h-52.8c-1.9,0-3.4,1.5-3.4,3.4v1.2c0,1.9,1.5,3.4,3.3,3.4
						c0,0,0,0,0.1,0h52.8v7.3h-52.8c0,0,0,0-0.1,0c-1.8,0-3.3,1.5-3.3,3.4v1.2c0,1.9,1.5,3.4,3.4,3.4h52.8v3.6H148.2V154.7h-26.8
						c-7.5,0-10.8-9.5-4.9-14.2l121-95.5c2.9-2.3,7-2.3,9.8,0l47.3,37.4V72c0-4.4,3.5-7.9,7.9-7.9H320c4.4,0,7.9,3.6,7.9,7.9v36.6
						l40.5,31.9C374.2,145.2,370.9,154.7,363.4,154.7z"/>
				</g>
				<g>
					<path class="st1" d="M234.9,144.1h-21.6c-2,0-3.7,1.6-3.7,3.7v21.6c0,2,1.6,3.7,3.7,3.7h21.6c2,0,3.7-1.6,3.7-3.7v-21.6
						C238.5,145.8,236.9,144.1,234.9,144.1z"/>
					<path class="st1" d="M271.6,144.1H250c-2,0-3.7,1.6-3.7,3.7v21.6c0,2,1.6,3.7,3.7,3.7h21.6c2,0,3.7-1.6,3.7-3.7v-21.6
						C275.3,145.8,273.6,144.1,271.6,144.1z"/>
					<path class="st1" d="M234.9,179h-21.6c-2,0-3.7,1.6-3.7,3.7v21.6c0,2,1.6,3.7,3.7,3.7h21.6c2,0,3.7-1.6,3.7-3.7v-21.6
						C238.5,180.7,236.9,179,234.9,179z"/>
					<path class="st1" d="M271.6,179H250c-2,0-3.7,1.6-3.7,3.7v21.6c0,2,1.6,3.7,3.7,3.7h21.6c2,0,3.7-1.6,3.7-3.7v-21.6
						C275.3,180.7,273.6,179,271.6,179z"/>
				</g>
				<path class="st2" d="M361.1,258.4H124c-8.1,0-14.6,6.5-14.6,14.6v10.7h266.2V273C375.6,264.9,369.1,258.4,361.1,258.4z"/>
			</g>
			<g>
				<g>
					<path class="st3" d="M348.3,243.1c-0.1,0-0.1,0-0.2,0h-64.4c-0.1,0-0.1,0-0.2,0c-3.8,0.1-6.9,3.2-6.9,7v1.2c0,3.9,3.2,7,7,7
						h64.4c3.9,0,7-3.2,7-7v-1.2C355.2,246.3,352.1,243.2,348.3,243.1z M351.5,251.3c0,1.9-1.5,3.4-3.4,3.4h-64.4
						c-1.9,0-3.4-1.5-3.4-3.4v-1.2c0-1.9,1.5-3.4,3.3-3.4c0,0,0,0,0.1,0h64.4c0,0,0,0,0.1,0c1.8,0,3.3,1.5,3.3,3.4V251.3z"/>
					<path class="st3" d="M348.2,227.8h-64.4c-3.9,0-7,3.2-7,7v1.2c0,3.8,3,7,6.9,7c0.1,0,0.1,0,0.2,0h64.4c0.1,0,0.1,0,0.2,0
						c3.8-0.1,6.9-3.2,6.9-7v-1.2C355.2,231,352,227.8,348.2,227.8z M351.5,236.1c0,1.9-1.5,3.4-3.3,3.4c0,0,0,0-0.1,0h-64.4
						c0,0,0,0-0.1,0c-1.8,0-3.3-1.5-3.3-3.4v-1.2c0-1.9,1.5-3.4,3.4-3.4h64.4c1.9,0,3.4,1.5,3.4,3.4V236.1z"/>
					<path class="st3" d="M343.5,197.3h-64.4c-1.5,0-2.8,0.4-3.9,1.2c-1.9,1.3-3.2,3.4-3.2,5.9v1.2c0,0.8,0.1,1.6,0.4,2.4
						c1,2.7,3.6,4.7,6.6,4.7h64.4c0.1,0,0.2,0,0.4,0c3.7-0.2,6.7-3.3,6.7-7v-1.2C350.6,200.4,347.4,197.3,343.5,197.3z M346.9,205.5
						c0,1.8-1.5,3.3-3.3,3.4h-49.5c-0.1,0-0.1,0-0.2,0h-14.8c-1.9,0-3.4-1.5-3.4-3.4v-1.2c0-1.9,1.5-3.4,3.4-3.4h64.4
						c1.9,0,3.4,1.5,3.4,3.4V205.5z"/>
					<path class="st3" d="M358.5,212.5h-64.4c-0.1,0-0.2,0-0.4,0c-3.7,0.2-6.7,3.3-6.7,7v1.2c0,3.9,3.2,7,7,7h64.4c3.9,0,7-3.2,7-7
						v-1.2C365.6,215.7,362.4,212.5,358.5,212.5z M361.9,220.8c0,1.9-1.5,3.4-3.4,3.4h-64.4c-1.9,0-3.4-1.5-3.4-3.4v-1.2
						c0-1.8,1.5-3.3,3.3-3.4h49.5c0.1,0,0.1,0,0.2,0h14.8c1.9,0,3.4,1.5,3.4,3.4V220.8z"/>
					<path class="st3" d="M355.8,154.7c-3.8-13.2-15.9-22.8-30.2-22.8c-17.3,0-31.4,14.1-31.4,31.4c0,17.3,14.1,31.4,31.4,31.4
						c3.9,0,7.6-0.7,11-2c11.9-4.4,20.4-15.9,20.4-29.4C357,160.3,356.6,157.4,355.8,154.7z M336.6,188.8c-3.4,1.5-7.1,2.3-11,2.3
						c-15.3,0-27.8-12.5-27.8-27.8c0-15.3,12.5-27.8,27.8-27.8c12.3,0,22.8,8,26.4,19.2c0.9,2.7,1.4,5.6,1.4,8.6
						C353.4,174.7,346.5,184.5,336.6,188.8z"/>
				</g>
			</g>
		</g>
		<g>
			<g>
				<g>
					<g>
						<path class="st4" d="M462.6,289.6c-0.6-2.3-1.6-4.5-3-6.5c-0.6-1-1.4-1.9-2.2-2.7c-7.6-8-20-8.9-28.7-2.1l-62.7,49.4l-5.7,4.5
							c-0.4-0.9-0.9-1.7-1.5-2.5c-3.6-5.1-9.5-8.5-16.3-8.5h-53.5c-13.6,0-27.2-1.9-40.2-5.8l-12.5-3.7c-11.1-3.3-22.8-4.8-34.3-3.7
							c-38.4,3.3-48,28-54.3,32.7c-1.2,0.9-11.7,7.7-19.5,12.9c-1.1,0.7-2.1,1.4-3.1,2l-5-7.7c4.2-2.7,25.8-16.8,27.6-18
							c6.3-4.7,15.9-29.4,54.3-32.7c11.5-1,23.2,0.5,34.3,3.7l12.5,3.7c13.1,3.8,26.6,5.8,40.2,5.8h53.5c7.8,0,14.5,4.5,17.8,11
							l68.4-53.9c8.7-6.8,21.1-5.9,28.7,2.1C462.8,275,464.4,282.7,462.6,289.6z"/>
					</g>
				</g>
				<path class="st0" d="M165.3,448.3l-31.6,20.3c-7.6,4.9-17.8,2.7-22.7-4.9l-50.4-78.4c-4.9-7.6-2.7-17.8,4.9-22.7l31.6-20.3
					c7.6-4.9,17.8-2.7,22.7,4.9l50.4,78.4C175.2,433.2,173,443.4,165.3,448.3z"/>
			</g>
			<g>
				<circle class="st2" cx="126.8" cy="436" r="9.1"/>
				<g>
					<path class="st5" d="M215,254.7h-24.3c-2,0-3.6,1.6-3.6,3.6s1.6,3.6,3.6,3.6H215c2,0,3.6-1.6,3.6-3.6S217,254.7,215,254.7z"/>
					<path class="st5" d="M361.1,254.7h-2.8c0.4-1.1,0.6-2.2,0.6-3.4v-1.2c0-2.7-1.1-5.1-2.7-7c1.7-1.9,2.7-4.3,2.7-7v-1.2
						c0-1.2-0.2-2.3-0.6-3.4h0.3c5.9,0,10.7-4.8,10.7-10.7v-1.2c0-5.9-4.8-10.7-10.7-10.7h-4.9c0.4-1.1,0.6-2.2,0.6-3.4v-1.2
						c0-5.9-4.8-10.7-10.7-10.7h-0.4c10.5-6.1,17.6-17.4,17.6-30.3c0-1.7-0.2-3.3-0.4-5h3.1c5,0,9.3-3.1,10.9-7.8
						c1.6-4.7,0.2-9.8-3.8-12.9l-39.1-30.8V72c0-6.4-5.2-11.6-11.6-11.6h-17.3c-6.4,0-11.6,5.2-11.6,11.6v2.9l-41.4-32.7
						c-4.2-3.3-10.1-3.3-14.4,0l-121,95.5c-3.9,3.1-5.4,8.2-3.8,12.9c1.6,4.7,5.9,7.8,10.9,7.8h23.2v96.4H124
						c-10,0-18.2,8.2-18.2,18.2v10.8c0,2,1.6,3.6,3.7,3.6h266.2c2,0,3.6-1.6,3.6-3.6V273C379.3,262.9,371.1,254.7,361.1,254.7z
						 M372,280.1H113.1V273c0-6,4.9-10.9,10.9-10.9h53c2,0,3.6-1.6,3.6-3.7s-1.6-3.7-3.6-3.7h-25.2V154.7c0-2-1.6-3.6-3.7-3.6h-26.8
						c-2.8,0-3.8-2.2-4-2.9c-0.2-0.7-0.8-3,1.4-4.8l121-95.5c1.6-1.2,3.7-1.2,5.3,0l47.3,37.4c1.1,0.9,2.6,1,3.9,0.4s2-1.9,2-3.3V72
						c0-2.4,1.9-4.3,4.3-4.3H320c2.4,0,4.3,1.9,4.3,4.3v36.6c0,1.1,0.5,2.2,1.4,2.9l40.5,31.9c2.2,1.8,1.6,4.1,1.4,4.8
						c-0.2,0.7-1.2,2.9-4,2.9h-5c-5-13.3-17.8-22.8-32.8-22.8c-19.3,0-35.1,15.7-35.1,35.1c0,13,7.1,24.3,17.6,30.3h-29
						c-1.4,0-2.7,0.3-3.9,0.7c-4,1.6-6.8,5.4-6.8,10v1.2c0,0.8,0.1,1.7,0.3,2.5c1.1,4.7,5.3,8.2,10.4,8.2h4.9
						c-0.4,1.1-0.6,2.2-0.6,3.4v1.2c0,1.2,0.2,2.3,0.6,3.4h-0.3c-5.9,0-10.7,4.8-10.7,10.7v1.2c0,2.7,1,5.1,2.7,7
						c-1.7,1.9-2.7,4.3-2.7,7v1.2c0,1.2,0.2,2.3,0.6,3.4h-44.8c-2,0-3.6,1.6-3.6,3.6c0,2,1.6,3.7,3.6,3.7h132.2
						c6,0,10.9,4.9,10.9,10.9V280.1z M346.9,204.3v1.2c0,1.8-1.5,3.3-3.3,3.4h-49.5c-0.1,0-0.1,0-0.2,0h-14.8
						c-1.9,0-3.4-1.5-3.4-3.4v-1.2c0-1.9,1.5-3.4,3.4-3.4h64.4C345.4,200.9,346.9,202.4,346.9,204.3z M361.9,219.6v1.2
						c0,1.9-1.5,3.4-3.4,3.4h-64.4c-1.9,0-3.4-1.5-3.4-3.4v-1.2c0-1.8,1.5-3.3,3.3-3.4h49.5c0.1,0,0.1,0,0.2,0h14.8
						C360.4,216.2,361.9,217.7,361.9,219.6z M280.4,251.3v-1.2c0-1.9,1.5-3.4,3.3-3.4c0,0,0,0,0.1,0h64.4c0,0,0,0,0.1,0
						c1.8,0,3.3,1.5,3.3,3.4v1.2c0,1.9-1.5,3.4-3.4,3.4h-64.4C281.9,254.7,280.4,253.2,280.4,251.3z M351.5,234.9v1.2
						c0,1.9-1.5,3.4-3.3,3.4c0,0,0,0-0.1,0h-64.4c0,0,0,0-0.1,0c-1.8,0-3.3-1.5-3.3-3.4v-1.2c0-1.9,1.5-3.4,3.4-3.4h64.4
						C350,231.5,351.5,233,351.5,234.9z M336.6,188.8c-3.4,1.5-7.1,2.3-11,2.3c-15.3,0-27.8-12.5-27.8-27.8
						c0-15.3,12.5-27.8,27.8-27.8c12.3,0,22.8,8,26.4,19.2c0.9,2.7,1.4,5.6,1.4,8.6C353.4,174.7,346.5,184.5,336.6,188.8z"/>
					<path class="st6" d="M337.5,169.2c0,1.4-0.3,2.7-0.9,3.9v-7.9c0,0,0.1,0.1,0.1,0.2C337.2,166.5,337.5,167.7,337.5,169.2z"/>
					<path class="st6" d="M334.4,162.8c-1-0.7-2.1-1.3-3.5-1.7c-1-0.3-2-0.6-3.1-0.9v-7.6c0.4,0.1,0.7,0.3,1,0.5
						c0.8,0.6,1.4,1.5,2,2.6c0.4,0.8,0.8,1.4,1.2,1.7c0.4,0.4,0.9,0.5,1.6,0.5c0.8,0,1.4-0.3,1.9-0.9c0.5-0.6,0.8-1.2,0.8-1.9
						c0-0.8-0.2-1.6-0.6-2.4s-1-1.6-1.9-2.4c-0.9-0.8-2-1.4-3.3-1.8c-0.7-0.3-1.6-0.4-2.5-0.5v-4.1c0-1.2-1-2.2-2.2-2.2
						c-1.2,0-2.2,1-2.2,2.2v4.1c-1.4,0.1-2.7,0.4-3.8,0.9c-1.7,0.7-3,1.7-3.9,3c-0.9,1.3-1.3,2.7-1.3,4.4c0,1.7,0.4,3.2,1.3,4.3
						c0.8,1.2,2,2.1,3.5,2.8c1.2,0.6,2.7,1,4.3,1.5v9.3c-0.4-0.1-0.8-0.2-1.1-0.4c-0.8-0.4-1.4-0.9-1.9-1.6
						c-0.4-0.6-0.8-1.4-1.2-2.4c-0.3-0.8-0.7-1.4-1.1-1.8c-0.4-0.4-1-0.6-1.6-0.6c-0.8,0-1.4,0.3-2,0.8c-0.5,0.5-0.8,1.2-0.8,1.9
						c0,1.3,0.4,2.6,1.3,3.9c0.8,1.3,2,2.4,3.3,3.2c1.4,0.8,3.1,1.3,5.1,1.5v4.1c0,1.2,1,2.2,2.2,2.2c1.2,0,2.2-1,2.2-2.2v-4.1
						c1.5-0.2,2.9-0.5,4.2-1.1c1.8-0.8,3.2-2,4.1-3.4c0.2-0.3,0.4-0.6,0.5-0.9v-7.9C336.1,164.3,335.3,163.5,334.4,162.8z
						 M323.4,159c-0.5-0.2-1.1-0.4-1.6-0.7c-0.6-0.3-1-0.7-1.4-1.1c-0.3-0.4-0.5-1-0.5-1.5c0-1,0.5-1.8,1.4-2.5
						c0.6-0.4,1.3-0.7,2-0.8V159z M329.8,173c-0.6,0.4-1.2,0.7-2,0.9v-8c0.1,0,0.3,0.1,0.4,0.1c0.9,0.3,1.7,0.8,2.3,1.4
						s0.9,1.4,0.9,2.4C331.5,171.2,331,172.2,329.8,173z"/>
					<path class="st7" d="M351.5,250.1v1.2c0,1.9-1.5,3.4-3.4,3.4h-11.6v-8h11.6c0,0,0,0,0.1,0C350,246.8,351.5,248.3,351.5,250.1z"
						/>
					<path class="st7" d="M336.6,246.8v8h-52.8c-1.9,0-3.4-1.5-3.4-3.4v-1.2c0-1.9,1.5-3.4,3.3-3.4c0,0,0,0,0.1,0H336.6z"/>
					<path class="st7" d="M351.5,234.9v1.2c0,1.9-1.5,3.4-3.3,3.4c0,0,0,0-0.1,0h-11.6v-8h11.6C350,231.5,351.5,233,351.5,234.9z"/>
					<path class="st7" d="M336.6,231.5v8h-52.8c0,0,0,0-0.1,0c-1.8,0-3.3-1.5-3.3-3.4v-1.2c0-1.9,1.5-3.4,3.4-3.4H336.6z"/>
					<path class="st7" d="M361.9,219.6v1.2c0,1.9-1.5,3.4-3.4,3.4h-21.9v-8h6.9c0.1,0,0.1,0,0.2,0h14.8
						C360.4,216.2,361.9,217.7,361.9,219.6z"/>
					<path class="st7" d="M336.6,216.2v8h-42.4c-1.9,0-3.4-1.5-3.4-3.4v-1.2c0-1.8,1.5-3.3,3.3-3.4H336.6z"/>
					<path class="st7" d="M346.9,204.3v1.2c0,1.8-1.5,3.3-3.3,3.4h-7v-8h6.9C345.4,200.9,346.9,202.4,346.9,204.3z"/>
					<path class="st7" d="M336.6,200.9v8h-42.4c-0.1,0-0.1,0-0.2,0h-14.8c-1.9,0-3.4-1.5-3.4-3.4v-1.2c0-1.9,1.5-3.4,3.4-3.4H336.6z
						"/>
					<path class="st7" d="M323.4,152.3v6.7c-0.5-0.2-1.1-0.4-1.6-0.7c-0.6-0.3-1-0.7-1.4-1.1c-0.3-0.4-0.5-1-0.5-1.5
						c0-1,0.5-1.8,1.4-2.5C321.9,152.8,322.6,152.5,323.4,152.3z"/>
					<path class="st7" d="M331.5,169.9c0,1.3-0.6,2.3-1.7,3.1c-0.6,0.4-1.2,0.7-2,0.9v-8c0.1,0,0.3,0.1,0.4,0.1
						c0.9,0.3,1.7,0.8,2.3,1.4S331.5,168.9,331.5,169.9z"/>
					<path class="st7" d="M353.4,163.3c0,11.4-6.9,21.3-16.8,25.5v-15.6c0.6-1.2,0.9-2.5,0.9-3.9c0-1.5-0.3-2.8-0.8-3.8
						c0,0-0.1-0.1-0.1-0.2v-10.6H352C352.9,157.4,353.4,160.3,353.4,163.3z"/>
					<path class="st7" d="M352,154.7h-15.4v10.6c-0.5-1-1.2-1.8-2.2-2.4c-1-0.7-2.1-1.3-3.5-1.7c-1-0.3-2-0.6-3.1-0.9v-7.6
						c0.4,0.1,0.7,0.3,1,0.5c0.8,0.6,1.4,1.5,2,2.6c0.4,0.8,0.8,1.4,1.2,1.7c0.4,0.4,0.9,0.5,1.6,0.5c0.8,0,1.4-0.3,1.9-0.9
						c0.5-0.6,0.8-1.2,0.8-1.9c0-0.8-0.2-1.6-0.6-2.4s-1-1.6-1.9-2.4c-0.9-0.8-2-1.4-3.3-1.8c-0.7-0.3-1.6-0.4-2.5-0.5v-4.1
						c0-1.2-1-2.2-2.2-2.2c-1.2,0-2.2,1-2.2,2.2v4.1c-1.4,0.1-2.7,0.4-3.8,0.9c-1.7,0.7-3,1.7-3.9,3c-0.9,1.3-1.3,2.7-1.3,4.4
						c0,1.7,0.4,3.2,1.3,4.3c0.8,1.2,2,2.1,3.5,2.8c1.2,0.6,2.7,1,4.3,1.5v9.3c-0.4-0.1-0.8-0.2-1.1-0.4c-0.8-0.4-1.4-0.9-1.9-1.6
						c-0.4-0.6-0.8-1.4-1.2-2.4c-0.3-0.8-0.7-1.4-1.1-1.8c-0.4-0.4-1-0.6-1.6-0.6c-0.8,0-1.4,0.3-2,0.8c-0.5,0.5-0.8,1.2-0.8,1.9
						c0,1.3,0.4,2.6,1.3,3.9c0.8,1.3,2,2.4,3.3,3.2c1.4,0.8,3.1,1.3,5.1,1.5v4.1c0,1.2,1,2.2,2.2,2.2c1.2,0,2.2-1,2.2-2.2v-4.1
						c1.5-0.2,2.9-0.5,4.2-1.1c1.8-0.8,3.2-2,4.1-3.4c0.2-0.3,0.4-0.6,0.5-0.9v15.6c-3.4,1.5-7.1,2.3-11,2.3
						c-15.3,0-27.8-12.5-27.8-27.8c0-15.3,12.5-27.8,27.8-27.8C337.9,135.5,348.4,143.6,352,154.7z"/>
					<path class="st5" d="M460.1,267c-8.9-9.4-23.4-10.5-33.6-2.4l-65.2,51.4c-4.4-5.8-11.3-9.3-18.7-9.3h-53.5
						c-13.3,0-26.5-1.9-39.2-5.6l-12.5-3.7c-12.2-3.6-24.1-4.9-35.7-3.9c-31.8,2.8-45,19.7-52.2,28.8c-1.6,2-3,3.9-4,4.6
						c-1.1,0.9-14.2,9.4-24.5,16.1c-2.8-3.3-6.6-5.6-10.9-6.5c-5.2-1.1-10.6-0.2-15.1,2.8l-31.6,20.3c-9.3,6-12,18.5-6,27.8
						l50.4,78.4c2.9,4.5,7.4,7.6,12.6,8.8c1.4,0.3,2.9,0.5,4.3,0.5c3.8,0,7.5-1.1,10.8-3.2l31.6-20.3c9.3-6,12-18.5,6-27.8l-3.1-4.8
						c15.9-9.8,28.1-16.9,30.2-17.5c8.4-2.4,26.7,1.6,46.1,5.8c18.8,4.1,38.2,8.3,54.3,8.3c21,0,38.1-10.7,48.7-19.7
						c9-7.6,108.9-92.8,108.9-92.8c5.2-4.5,8.2-10.8,8.6-17.7C467.3,278.5,464.9,271.9,460.1,267z M122.1,467.3
						c-3.3-0.7-6.2-2.7-8-5.6l-50.4-78.4c-3.8-5.9-2.1-13.9,3.8-17.7l31.6-20.3c2.1-1.3,4.5-2,6.9-2c0.9,0,1.8,0.1,2.7,0.3
						c3.3,0.7,6.2,2.7,8.1,5.6l50.4,78.4c3.8,5.9,2.1,13.9-3.8,17.7l-31.6,20.3C128.9,467.4,125.5,468,122.1,467.3z M459.7,285
						c-0.2,4.9-2.4,9.3-6,12.5c0,0-99.9,85.1-108.9,92.8c-9.7,8.2-25.2,17.9-44,17.9c-15.4,0-34.4-4.2-52.8-8.2
						c-21.2-4.6-39.4-8.6-49.6-5.7c-3.5,1-20.5,11.2-32.1,18.4l-38-59.1l-3-4.7c6.9-4.5,23.1-15,24.7-16.2c1.7-1.3,3.3-3.4,5.4-6
						c6.9-8.8,18.4-23.5,47-26c10.6-0.9,21.7,0.3,33,3.6l12.5,3.7c13.4,3.9,27.3,5.9,41.3,5.9h53.5c6.1,0,11.7,3.4,14.5,9
						c1.1,2.1,1.7,4.4,1.8,6.8c0,0.2,0,0.4,0,0.6c0,9-7.4,16.4-16.4,16.4h-95.4c-2,0-3.6,1.6-3.6,3.6c0,2,1.6,3.7,3.6,3.7h95.4
						c13.1,0,23.7-10.6,23.7-23.7c0-0.9,0-1.7-0.1-2.6c-0.2-1.8-0.6-3.6-1.2-5.3l66.2-52.1c7.2-5.7,17.5-5,23.8,1.7
						c2.9,3.1,4.6,7,4.8,11.2C459.7,283.7,459.7,284.4,459.7,285z"/>
					<path class="st8" d="M459.7,285c-0.2,4.9-2.4,9.3-6,12.5c0,0-99.9,85.1-108.9,92.8c-9.7,8.2-25.2,17.9-44,17.9
						c-15.4,0-34.4-4.2-52.8-8.2c-21.2-4.6-39.4-8.6-49.6-5.7c-3.5,1-20.5,11.2-32.1,18.4l-38-59.1c7.9-5.1,18.4-12,19.5-12.9
						c6.3-4.7,15.9-29.4,54.3-32.7c11.5-1,23.2,0.5,34.3,3.7l12.5,3.7c13.1,3.8,26.6,5.8,40.2,5.8h53.5c6.8,0,12.7,3.4,16.3,8.5
						c0,0.2,0,0.4,0,0.6c0,9-7.4,16.4-16.4,16.4h-95.4c-2,0-3.6,1.6-3.6,3.6c0,2,1.6,3.7,3.6,3.7h95.4c13.1,0,23.7-10.6,23.7-23.7
						c0-0.9,0-1.7-0.1-2.6l62.7-49.4c8.7-6.8,21.1-5.9,28.7,2.1c0.8,0.9,1.5,1.8,2.2,2.7C459.7,283.7,459.7,284.4,459.7,285z"/>
					<path class="st5" d="M126.8,423.3c-7,0-12.8,5.7-12.8,12.8s5.7,12.8,12.8,12.8c7,0,12.8-5.7,12.8-12.8S133.8,423.3,126.8,423.3
						z M126.8,441.5c-3,0-5.5-2.5-5.5-5.5s2.5-5.5,5.5-5.5s5.5,2.5,5.5,5.5S129.8,441.5,126.8,441.5z"/>
				</g>
			</g>
		</g>
	</g>
</g>
<path class="st9" d="M420,497H93.5c-42.3,0-77-34.6-77-77V93.5c0-42.3,34.7-77,77-77H420c42.4,0,77,34.7,77,77V420
	C497,462.4,462.4,497,420,497z"/>
</svg>
