<?xml version="1.0" encoding="utf-8"?>
<!-- Generator: Adobe Illustrator 22.1.0, SVG Export Plug-In . SVG Version: 6.00 Build 0)  -->
<svg version="1.1" id="Слой_1" xmlns="http://www.w3.org/2000/svg" xmlns:xlink="http://www.w3.org/1999/xlink" x="0px" y="0px"
	 viewBox="0 0 512 512" style="enable-background:new 0 0 512 512;" xml:space="preserve">
<style type="text/css">
	.st0{fill:#EBE7F2;}
	.st1{fill:#6A9CDD;stroke:#002E57;stroke-width:8;stroke-miterlimit:10;}
	.st2{fill:#002E57;stroke:#002E57;stroke-width:7;stroke-miterlimit:10;}
	.st3{fill:none;stroke:#002E57;stroke-width:30;stroke-miterlimit:10;}
</style>
<g>
	<g>
		<path class="st0" d="M79.2,387.6h352v21.6h-352L79.2,387.6z"/>
		<path class="st0" d="M103.3,246h87.5v28.5h-87.5V246z"/>
		<path class="st0" d="M211.5,246h87.5v28.5h-87.5L211.5,246z"/>
		<path class="st0" d="M319.7,246h87.5v28.5h-87.5V246z"/>
		<path class="st0" d="M59.1,315h392.1v11H59.1L59.1,315z"/>
	</g>
	<path class="st1" d="M329.1,404.6c0,15.1-12.3,27.4-27.4,27.4c-15.1,0-27.4-12.3-27.4-27.4H329.1z"/>
	<path class="st1" d="M236.1,404.6c0,15.1-12.3,27.4-27.4,27.4c-15.1,0-27.4-12.3-27.4-27.4H236.1z"/>
	<g>
		<path class="st2" d="M103.3,279.7h87.5c2.8,0,5.1-2.3,5.1-5.1V234c0-15-10.6-27.6-24.7-30.6c3.6-5,5.7-11.1,5.7-17.6
			c0-16.5-13.4-29.9-29.9-29.9c-16.5,0-29.9,13.4-29.9,29.9c0,6.5,2,12.6,5.7,17.6c-14.1,3.1-24.7,15.6-24.7,30.6v40.6
			C98.2,277.4,100.5,279.7,103.3,279.7z M108.5,234c0-11.6,9.4-21,21-21h6.2c2.4,0,4.4-1.6,5-3.9c0.6-2.3-0.5-4.7-2.6-5.8
			c-6.6-3.4-10.6-10.1-10.6-17.4c0-10.8,8.8-19.6,19.6-19.6c10.8,0,19.6,8.8,19.6,19.6c0,7.4-4.1,14.1-10.6,17.4
			c-2.1,1.1-3.2,3.5-2.6,5.8c0.6,2.3,2.6,3.9,5,3.9h6.2c11.6,0,21,9.4,21,21v35.4h-77.2L108.5,234z"/>
		<path class="st2" d="M211.5,279.7h87.5c2.8,0,5.1-2.3,5.1-5.1V234c0-15-10.6-27.6-24.7-30.6c3.6-5,5.7-11.1,5.7-17.6
			c0-16.5-13.4-29.9-29.9-29.9s-29.9,13.4-29.9,29.9c0,6.5,2,12.6,5.7,17.6c-14.1,3.1-24.7,15.6-24.7,30.6v40.6
			C206.3,277.4,208.6,279.7,211.5,279.7L211.5,279.7z M216.6,234c0-11.6,9.4-21,21-21h6.2c2.4,0,4.4-1.6,5-3.9
			c0.6-2.3-0.5-4.7-2.6-5.8c-6.6-3.4-10.6-10.1-10.6-17.4c0-10.8,8.8-19.6,19.6-19.6c10.8,0,19.6,8.8,19.6,19.6
			c0,7.4-4.1,14-10.6,17.4c-2.1,1.1-3.2,3.5-2.6,5.8c0.6,2.3,2.6,3.9,5,3.9h6.2c11.6,0,21,9.4,21,21v35.4h-77.2L216.6,234L216.6,234
			z"/>
		<path class="st2" d="M319.7,279.7h87.5c2.8,0,5.1-2.3,5.1-5.1V234c0-15-10.6-27.6-24.7-30.6c3.6-5,5.7-11.1,5.7-17.6
			c0-16.5-13.4-29.9-29.9-29.9c-16.5,0-29.9,13.4-29.9,29.9c0,6.5,2,12.6,5.7,17.6c-14.1,3.1-24.7,15.6-24.7,30.6v40.6
			C314.5,277.4,316.8,279.7,319.7,279.7L319.7,279.7z M324.8,234c0-11.6,9.4-21,21-21h6.2c2.4,0,4.4-1.6,5-3.9
			c0.6-2.3-0.5-4.7-2.6-5.8c-6.6-3.4-10.6-10.1-10.6-17.4c0-10.8,8.8-19.6,19.6-19.6c10.8,0,19.6,8.8,19.6,19.6
			c0,7.4-4.1,14-10.6,17.4c-2.1,1.1-3.2,3.5-2.6,5.8c0.6,2.3,2.6,3.9,5,3.9h6.2c11.6,0,21,9.4,21,21v35.4h-77.2L324.8,234L324.8,234
			z"/>
		<path class="st2" d="M103.3,184.3c2.8,0,5.1-2.3,5.1-5.1v-40.6c0-11.6,9.4-21,21-21h6.2c2.4,0,4.4-1.6,5-3.9s-0.5-4.7-2.6-5.8
			c-6.6-3.4-10.6-10.1-10.6-17.4c0-10.8,8.8-19.6,19.6-19.6c10.8,0,19.6,8.8,19.6,19.6c0,7.4-4.1,14.1-10.6,17.4
			c-2.1,1.1-3.2,3.5-2.6,5.8c0.6,2.3,2.6,3.9,5,3.9h6.2c11.6,0,21,9.4,21,21v40.6c0,2.8,2.3,5.1,5.1,5.1s5.1-2.3,5.1-5.1v-40.6
			c0-15-10.6-27.6-24.7-30.6c3.6-5,5.7-11.1,5.7-17.6c0-16.5-13.4-29.9-29.9-29.9c-16.5,0-29.9,13.4-29.9,29.9
			c0,6.5,2,12.6,5.7,17.6c-14.1,3.1-24.7,15.6-24.7,30.6v40.6C98.2,182,100.5,184.3,103.3,184.3L103.3,184.3z"/>
		<path class="st2" d="M211.5,184.3c2.8,0,5.1-2.3,5.1-5.1v-40.6c0-11.6,9.4-21,21-21h6.2c2.4,0,4.4-1.6,5-3.9
			c0.6-2.3-0.5-4.7-2.6-5.8c-6.6-3.4-10.6-10.1-10.6-17.4c0-10.8,8.8-19.6,19.6-19.6c10.8,0,19.6,8.8,19.6,19.6
			c0,7.4-4.1,14.1-10.6,17.4c-2.1,1.1-3.2,3.5-2.6,5.8c0.6,2.3,2.6,3.9,5,3.9h6.2c11.6,0,21,9.4,21,21v40.6c0,2.8,2.3,5.1,5.1,5.1
			c2.8,0,5.1-2.3,5.1-5.1v-40.6c0-15-10.6-27.6-24.7-30.6c3.6-5,5.7-11.1,5.7-17.6c0-16.5-13.4-29.9-29.9-29.9s-29.9,13.4-29.9,29.9
			c0,6.5,2,12.6,5.7,17.6c-14.1,3.1-24.7,15.6-24.7,30.6v40.6C206.3,182,208.6,184.3,211.5,184.3L211.5,184.3z"/>
		<path class="st2" d="M319.7,184.3c2.8,0,5.1-2.3,5.1-5.1v-40.6c0-11.6,9.4-21,21-21h6.2c2.4,0,4.4-1.6,5-3.9
			c0.6-2.3-0.5-4.7-2.6-5.8c-6.6-3.4-10.6-10.1-10.6-17.4c0-10.8,8.8-19.6,19.6-19.6c10.8,0,19.6,8.8,19.6,19.6
			c0,7.4-4.1,14.1-10.6,17.4c-2.1,1.1-3.2,3.5-2.6,5.8s2.6,3.9,5,3.9h6.2c11.6,0,21,9.4,21,21v40.6c0,2.8,2.3,5.1,5.1,5.1
			c2.8,0,5.1-2.3,5.1-5.1v-40.6c0-15-10.6-27.6-24.7-30.6c3.6-5,5.7-11.1,5.7-17.6c0-16.5-13.4-29.9-29.9-29.9
			c-16.5,0-29.9,13.4-29.9,29.9c0,6.5,2,12.6,5.7,17.6c-14.1,3.1-24.7,15.6-24.7,30.6v40.6C314.5,182,316.8,184.3,319.7,184.3
			L319.7,184.3z"/>
		<path class="st2" d="M451.3,298.9H59.1c-2.8,0-5.1,2.3-5.1,5.1v22c0,2.8,2.3,5.1,5.1,5.1h392.1c2.8,0,5.1-2.3,5.1-5.1v-22
			C456.4,301.2,454.1,298.9,451.3,298.9z M446.1,320.9H64.3v-11.7h381.8V320.9z"/>
		<path class="st2" d="M163,404.1H84.3v-63.5c0-2.8-2.3-5.1-5.1-5.1s-5.1,2.3-5.1,5.1v68.7c0,2.8,2.3,5.1,5.1,5.1H163
			c2.8,0,5.1-2.3,5.1-5.1C168.1,406.4,165.8,404.1,163,404.1z"/>
		<path class="st2" d="M431.2,335.4c-2.8,0-5.1,2.3-5.1,5.1v63.5h-78.6c-2.8,0-5.1,2.3-5.1,5.1c0,2.8,2.3,5.1,5.1,5.1h83.8
			c2.8,0,5.1-2.3,5.1-5.1v-68.7C436.4,337.7,434.1,335.4,431.2,335.4z"/>
		<path class="st2" d="M294.7,455.4h-79c-2.8,0-5.1,2.3-5.1,5.1s2.3,5.1,5.1,5.1h79c2.8,0,5.1-2.3,5.1-5.1S297.6,455.4,294.7,455.4z
			"/>
		<path class="st2" d="M233.8,403.6c2.4-1.5,3.1-4.7,1.6-7.1l-17.2-27h22.2c2.8,0,5.1-2.3,5.1-5.1c0-2.8-2.3-5.1-5.1-5.1h-31.6
			c-0.4,0-0.8,0.1-1.2,0.2c-0.1,0-0.2,0.1-0.3,0.1c-0.3,0.1-0.5,0.2-0.8,0.3c-0.1,0.1-0.2,0.1-0.3,0.2c-0.3,0.2-0.5,0.3-0.7,0.5
			c-0.1,0.1-0.2,0.1-0.2,0.2c-0.3,0.3-0.5,0.6-0.7,0.9c0,0,0,0,0,0l-22.3,34.9c-1.5,2.4-0.8,5.6,1.6,7.1c0.9,0.5,1.8,0.8,2.8,0.8
			c1.7,0,3.4-0.8,4.3-2.4l17.9-28.1l17.9,28.1C228.2,404.4,231.4,405.1,233.8,403.6L233.8,403.6z"/>
		<path class="st2" d="M306,361.6C306,361.6,306,361.5,306,361.6c-0.2-0.4-0.5-0.7-0.8-0.9c-0.1-0.1-0.2-0.1-0.2-0.2
			c-0.2-0.2-0.5-0.4-0.7-0.5c-0.1-0.1-0.2-0.1-0.3-0.2c-0.3-0.1-0.5-0.2-0.8-0.3c-0.1,0-0.2-0.1-0.3-0.1c-0.4-0.1-0.8-0.2-1.2-0.2
			h-31.6c-2.8,0-5.1,2.3-5.1,5.1c0,2.8,2.3,5.1,5.1,5.1h22.2l-17.2,27c-1.5,2.4-0.8,5.6,1.6,7.1c2.4,1.5,5.6,0.8,7.1-1.6l17.9-28.1
			l17.9,28.1c1,1.5,2.6,2.4,4.3,2.4c0.9,0,1.9-0.3,2.8-0.8c2.4-1.5,3.1-4.7,1.6-7.1L306,361.6z"/>
		<path class="st2" d="M256,369.7c-2.8,0-5.1,2.3-5.1,5.1V439h-20.4c-2.8,0-5.1,2.3-5.1,5.1c0,2.8,2.3,5.1,5.1,5.1H280
			c2.8,0,5.1-2.3,5.1-5.1c0-2.8-2.3-5.1-5.1-5.1h-18.8v-64.1C261.1,372,258.8,369.7,256,369.7L256,369.7z"/>
	</g>
	<circle class="st1" cx="255.2" cy="370.5" r="14.9"/>
	<path class="st3" d="M419.5,497H92c-42.6,0-77.5-34.9-77.5-77.5V92c0-42.6,34.9-77.5,77.5-77.5h327.5c42.6,0,77.5,34.9,77.5,77.5
		v327.5C497,462.1,462.1,497,419.5,497z"/>
</g>
</svg>
