<?xml version="1.0" encoding="utf-8"?>
<!-- Generator: Adobe Illustrator 22.1.0, SVG Export Plug-In . SVG Version: 6.00 Build 0)  -->
<svg version="1.1" xmlns="http://www.w3.org/2000/svg" xmlns:xlink="http://www.w3.org/1999/xlink" x="0px" y="0px"
	 viewBox="0 0 511 511" style="enable-background:new 0 0 511 511;" xml:space="preserve">
<style type="text/css">
	.st0{fill:#94C1FF;}
	.st1{fill:#FFFFFF;}
	.st2{fill:#D7E9FF;}
	.st3{fill:#002E57;}
	.st4{fill:none;stroke:#002E57;stroke-width:24;stroke-miterlimit:10;}
</style>
<g id="Слой_1">
	<path class="st0" d="M263.9,34.4c40.3,0,73,32.7,73,73c0,40.3-32.6,73-73,73c-40.3,0-73-32.6-73-73
		C190.9,67.1,223.6,34.4,263.9,34.4z"/>
	<path class="st0" d="M449.6,298.1L423.8,324L315.4,215.6l-5.1-5.2l25.8-25.8L449.6,298.1z"/>
	<path class="st1" d="M315.4,215.6l103.2,103.2l-15.5,15.5L392.8,324l-82.5-82.6L300,231.2L315.4,215.6z"/>
	<path class="st0" d="M212.4,215.6L109.1,318.8v0.1L104,324l-25.8-25.8l113.5-113.4l25.8,25.8L212.4,215.6z"/>
	<path class="st1" d="M227.8,231.1L135,324l-10.4,10.3l-15.5-15.4v-0.1l103.2-103.2L227.8,231.1z"/>
	<path class="st2" d="M194.3,372.9c7.1,7.1,7.1,18.7,0,25.8l-5.2,5.2c-7.1,7.1-18.7,7.1-25.8,0c-7.1-7.1-7.1-18.7,0-25.8l2.6-2.6
		l2.6-2.6C175.6,365.8,187.1,365.8,194.3,372.9z"/>
	<path class="st2" d="M220,398.7c7.1,7.1,7.1,18.7,0,25.7l-5.1,5.2c-7.1,7.2-18.7,7.2-25.8,0c-7.1-7.1-7.1-18.7,0-25.7l5.2-5.2
		C201.4,391.6,212.9,391.6,220,398.7z"/>
	<path class="st2" d="M245.8,424.5c7.1,7.2,7.1,18.7,0,25.8l-5.2,5.2c-7.1,7.1-18.7,7.1-25.8,0c-7.1-7.1-7.1-18.7,0-25.8l5.2-5.2
		C227.2,417.4,238.7,417.4,245.8,424.5z"/>
	<path class="st2" d="M271.7,450.3c7.1,7.1,7.1,18.7,0,25.8l-2.6,2.6v0.1l-2.6,2.5c-7.1,7.1-18.7,7.1-25.8,0
		c-7.1-7.1-7.1-18.7,0-25.8l5.2-5.2C253,443.2,264.5,443.2,271.7,450.3z"/>
	<path class="st2" d="M310.3,241.4l82.5,82.6L367,370.4l-67-67c-5.8-5.7-15-5.7-20.6,0l-33.6,33.6c-7.1,7.1-18.7,7.1-25.8,0
		c-7.1-7.1-7.1-18.7,0-25.8l2.6-2.6l41.3-41.2l5.1-5.2L310.3,241.4z"/>
	<path class="st2" d="M279.4,303.3c5.7-5.7,14.9-5.7,20.6,0l67,67h0.1l7.7,7.7c7.1,7.1,7.1,18.7,0,25.8c-7.1,7.1-18.7,7.1-25.8,0
		c7.1,7.1,7.1,18.7,0,25.7c-7.1,7.2-18.7,7.2-25.8,0c7.1,7.2,7.1,18.7-0.1,25.8c-7.1,7.1-18.6,7.1-25.8,0c7.1,7.1,7.1,18.7,0,25.8
		c-7.1,7.1-18.7,7.1-25.8,0.1l-2.6-2.6v-0.1l2.6-2.6c7.1-7.1,7.1-18.6,0-25.8c-7.1-7.1-18.7-7.1-25.8,0c7.1-7.1,7.1-18.7,0-25.8
		c-7.2-7.1-18.7-7.1-25.8,0l-5.2,5.2l5.1-5.2c7.1-7.1,7.1-18.7,0-25.7c-7.1-7.1-18.6-7.1-25.8,0c7.1-7.1,7.1-18.7,0-25.8
		c-7.1-7.1-18.7-7.1-25.8,0l-2.6,2.6L135,324l82.5-82.5l46.4,25.8l0.1,0.1l-41.3,41.2l-2.6,2.6c-7.1,7.1-7.1,18.7,0,25.8
		c7.1,7.1,18.7,7.1,25.8,0L279.4,303.3z"/>
	<g>
		<path class="st3" d="M165.9,382.8c-2.5,0-4.9-1.3-6.3-3.5l-30.9-51.5c-2.1-3.5-1-7.9,2.5-10c3.5-2.1,7.9-1,10,2.5l30.9,51.5
			c2.1,3.5,1,7.9-2.5,10C168.5,382.4,167.2,382.8,165.9,382.8z"/>
		<path class="st3" d="M263.9,274.5c-1.2,0-2.4-0.3-3.5-0.9l-46.4-25.8c-3.5-2-4.8-6.4-2.8-9.9c2-3.5,6.4-4.8,9.9-2.8l46.4,25.8
			c3.5,2,4.8,6.4,2.8,9.9C268.9,273.1,266.5,274.5,263.9,274.5z"/>
		<path class="st3" d="M124.6,341.5c-1.9,0-3.7-0.7-5.2-2.1c-2.9-2.9-2.9-7.5,0-10.3l103.2-103.2c2.9-2.9,7.5-2.9,10.3,0
			c2.8,2.9,2.8,7.5,0,10.3L129.8,339.4C128.4,340.8,126.5,341.5,124.6,341.5z"/>
		<path class="st3" d="M227.8,238.4c-1.9,0-3.7-0.7-5.2-2.1l-15.5-15.5c-2.9-2.9-2.9-7.5,0-10.3c2.8-2.9,7.5-2.9,10.3,0l15.5,15.5
			c2.8,2.9,2.8,7.5,0,10.3C231.5,237.6,229.7,238.4,227.8,238.4z"/>
		<path class="st3" d="M124.6,341.5c-1.9,0-3.7-0.7-5.2-2.1L104,323.9c-2.9-2.8-2.9-7.5,0-10.3c2.9-2.9,7.5-2.9,10.3,0l15.5,15.5
			c2.9,2.9,2.9,7.5,0,10.3C128.4,340.8,126.5,341.5,124.6,341.5z"/>
		<path class="st3" d="M367,377.7c-1.2,0-2.4-0.3-3.5-0.9c-3.5-2-4.8-6.4-2.8-9.9l25.8-46.4c2-3.5,6.4-4.8,9.9-2.8
			c3.5,2,4.8,6.4,2.8,9.9l-25.8,46.4C372.1,376.3,369.6,377.7,367,377.7z"/>
		<path class="st3" d="M269,269.4c-2.7,0-5.3-1.5-6.5-4c-1.8-3.6-0.3-8,3.3-9.8l41.2-20.6c3.6-1.8,8-0.3,9.8,3.3
			c1.8,3.6,0.3,8-3.3,9.8l-41.2,20.6C271.3,269.1,270.1,269.4,269,269.4z"/>
		<path class="st3" d="M403.1,341.6c-1.9,0-3.7-0.7-5.2-2.1L294.8,236.3c-2.9-2.9-2.9-7.5,0-10.3c2.8-2.8,7.5-2.8,10.3,0
			l103.2,103.2c2.9,2.9,2.9,7.5,0,10.3C406.9,340.9,405,341.6,403.1,341.6z"/>
		<path class="st3" d="M300,238.4c-1.9,0-3.7-0.7-5.2-2.1c-2.9-2.9-2.9-7.5,0-10.3l15.5-15.5c2.8-2.9,7.5-2.9,10.3,0
			c2.9,2.9,2.9,7.5,0,10.3l-15.5,15.5C303.7,237.7,301.8,238.4,300,238.4z"/>
		<path class="st3" d="M403.1,341.6c-1.9,0-3.7-0.7-5.2-2.1c-2.8-2.9-2.8-7.5,0-10.3l15.5-15.5c2.9-2.9,7.5-2.9,10.3,0
			c2.9,2.9,2.9,7.5,0,10.3l-15.5,15.5C406.9,340.9,405,341.6,403.1,341.6z"/>
		<path class="st3" d="M222.6,315.7c-1.9,0-3.7-0.7-5.2-2.1c-2.9-2.9-2.9-7.5,0-10.3l46.4-46.4c2.9-2.9,7.5-2.9,10.3,0
			c2.9,2.8,2.9,7.5,0,10.3l-46.4,46.4C226.4,315,224.5,315.7,222.6,315.7z"/>
		<path class="st3" d="M245.9,344.1c-1.9,0-3.7-0.7-5.2-2.1c-2.9-2.9-2.9-7.5,0-10.3l33.5-33.5c2.9-2.9,7.5-2.9,10.3,0
			s2.9,7.5,0,10.3L251,342C249.6,343.4,247.7,344.1,245.9,344.1z"/>
		<path class="st3" d="M300,310.6c-1.9,0-3.7-0.7-5.2-2.1c-1.4-1.4-3.2-2.1-5.2-2.1c-2,0-3.8,0.8-5.2,2.1c-2.9,2.9-7.5,2.9-10.3,0
			s-2.9-7.5,0-10.3c4.1-4.1,9.6-6.4,15.5-6.4h0c5.9,0,11.3,2.3,15.5,6.4c2.8,2.9,2.8,7.5,0,10.3C303.8,309.9,301.9,310.6,300,310.6z
			"/>
		<path class="st3" d="M367.1,377.6c-1.9,0-3.7-0.7-5.2-2.1l-67-67c-2.9-2.9-2.9-7.5,0-10.3s7.5-2.9,10.3,0l67,67
			c2.9,2.9,2.9,7.5,0,10.3C370.8,376.9,368.9,377.6,367.1,377.6z"/>
		<path class="st3" d="M233,349.4c-6.5,0-13.1-2.5-18.1-7.5c-9.9-10-9.9-26.2,0-36.1c2.9-2.9,7.5-2.9,10.3,0s2.9,7.5,0,10.3
			c-4.3,4.3-4.3,11.2,0,15.5s11.2,4.2,15.5,0c2.8-2.8,7.5-2.9,10.3,0c2.8,2.9,2.8,7.5,0,10.3C246.1,347,239.5,349.4,233,349.4z"/>
		<path class="st3" d="M253.6,493.9C253.6,493.9,253.6,493.9,253.6,493.9c-6.8,0-13.2-2.6-18-7.5c-10-10-9.9-26.2,0-36.1l5.2-5.2
			c9.7-9.6,26.5-9.6,36.1,0c10,10,10,26.1,0,36.1l-5.2,5.2C266.8,491.2,260.4,493.9,253.6,493.9z M258.7,452.2
			c-2.9,0-5.6,1.1-7.7,3.2l-5.2,5.2c-4.3,4.3-4.3,11.2,0,15.5c2.1,2,4.8,3.2,7.7,3.2h0c2.9,0,5.7-1.1,7.7-3.2l5.2-5.2
			c4.3-4.3,4.3-11.2,0-15.5C264.4,453.4,261.7,452.2,258.7,452.2z"/>
		<path class="st3" d="M227.8,468.1c-6.8,0-13.2-2.7-18-7.5c-10-9.9-10-26.2,0-36.1l5.2-5.2c9.6-9.6,26.5-9.6,36.1,0
			c4.8,4.8,7.5,11.2,7.5,18.1s-2.7,13.2-7.5,18.1l-5.2,5.2C241,465.4,234.6,468.1,227.8,468.1z M233,426.5c-2.9,0-5.7,1.1-7.7,3.2
			l-5.2,5.2c-4.3,4.3-4.3,11.2,0,15.5c2.1,2.1,4.8,3.2,7.7,3.2c2.9,0,5.7-1.1,7.8-3.2l5.2-5.2c2.1-2.1,3.2-4.8,3.2-7.7
			c0-2.9-1.1-5.7-3.2-7.7C238.6,427.6,235.9,426.5,233,426.5z"/>
		<path class="st3" d="M202,442.3c-6.8,0-13.2-2.7-18.1-7.5c-4.8-4.8-7.5-11.2-7.5-18c0-6.8,2.6-13.2,7.5-18.1l5.2-5.2
			c9.7-9.7,26.5-9.6,36.1,0c4.8,4.8,7.5,11.2,7.5,18.1s-2.7,13.2-7.5,18.1l-5.2,5.2C215.2,439.6,208.8,442.3,202,442.3z
			 M207.2,400.7c-2.9,0-5.7,1.1-7.7,3.2l-5.2,5.2c-2.1,2.1-3.2,4.8-3.2,7.7c0,2.9,1.1,5.7,3.2,7.7c4.1,4.1,11.3,4.1,15.5,0l5.2-5.2
			c2.1-2.1,3.2-4.8,3.2-7.7c0-2.9-1.1-5.7-3.2-7.7C212.8,401.8,210.1,400.7,207.2,400.7z"/>
		<path class="st3" d="M176.2,416.5c-6.8,0-13.2-2.7-18.1-7.5c-4.8-4.8-7.5-11.2-7.5-18.1c0-6.8,2.7-13.2,7.5-18.1l5.2-5.2
			c9.6-9.6,26.5-9.6,36.1,0c4.8,4.8,7.5,11.2,7.5,18.1c0,6.8-2.7,13.2-7.5,18.1l-5.2,5.2C189.4,413.8,183,416.5,176.2,416.5z
			 M181.4,374.9c-2.9,0-5.7,1.1-7.7,3.2l-5.2,5.2c-2.1,2.1-3.2,4.8-3.2,7.7c0,2.9,1.1,5.7,3.2,7.7c4.1,4.1,11.3,4.1,15.5,0l5.2-5.2
			c2.1-2.1,3.2-4.8,3.2-7.7s-1.1-5.7-3.2-7.7C187,376,184.3,374.9,181.4,374.9z"/>
		<path class="st3" d="M284.5,493.9c-6.5,0-13.1-2.5-18-7.4c-2.9-2.9-2.9-7.5,0-10.3s7.5-2.9,10.3,0c4.2,4.3,11.2,4.2,15.5,0
			c4.3-4.3,4.3-11.2,0-15.5c-1.4-1.4-2.1-3.3-2.1-5.2c0-1.9,0.7-3.7,2.1-5.2c2.9-2.8,7.5-2.8,10.3,0c2.1,2.1,4.8,3.2,7.7,3.2h0
			c2.9,0,5.7-1.1,7.7-3.2c4.3-4.3,4.3-11.2,0-15.5c-1.4-1.4-2.1-3.3-2.1-5.2c0-1.9,0.7-3.7,2.1-5.2c2.8-2.9,7.5-2.9,10.3,0
			c4.3,4.3,11.2,4.3,15.5,0c4.3-4.3,4.3-11.2,0-15.5c-1.4-1.4-2.1-3.3-2.1-5.2c0-1.9,0.7-3.7,2.1-5.2c2.9-2.9,7.5-2.9,10.3,0
			c4.1,4.1,11.3,4.1,15.5,0c4.3-4.3,4.3-11.2,0-15.5c-2.9-2.9-2.9-7.5,0-10.3c2.9-2.8,7.5-2.8,10.3,0c9.9,9.9,9.9,26.1,0,36.1
			c-4.8,4.8-11.2,7.5-18.1,7.5c-0.1,0-0.2,0-0.3,0c0.1,6.6-2.4,13.3-7.5,18.3c-5,5-11.5,7.5-18.1,7.5c-0.1,0-0.2,0-0.3,0
			c0.1,6.6-2.4,13.3-7.4,18.3c-4.8,4.8-11.2,7.5-18.1,7.5c0,0-0.2,0-0.3,0c0.1,6.6-2.4,13.3-7.5,18.3
			C297.6,491.4,291.1,493.9,284.5,493.9z"/>
		<path class="st3" d="M271.6,488.6c-1.9,0-3.7-0.7-5.2-2.1l-2.6-2.6c-2.9-2.9-2.9-7.5,0-10.3s7.5-2.9,10.3,0l2.6,2.6
			c2.9,2.9,2.9,7.5,0,10.3C275.4,487.9,273.5,488.6,271.6,488.6z"/>
		<path class="st3" d="M297.5,462.8c-1.9,0-3.7-0.7-5.2-2.1l-7.8-7.8c-2.9-2.9-2.9-7.5,0-10.3c2.9-2.8,7.5-2.8,10.3,0l7.8,7.8
			c2.9,2.9,2.9,7.5,0,10.3C301.2,462.1,299.3,462.8,297.5,462.8z"/>
		<path class="st3" d="M323.2,437c-1.9,0-3.7-0.7-5.2-2.1l-7.7-7.8c-2.9-2.9-2.9-7.5,0-10.3c2.9-2.9,7.5-2.9,10.3,0l7.7,7.8
			c2.8,2.8,2.8,7.5,0,10.3C327,436.3,325.1,437,323.2,437z"/>
		<path class="st3" d="M349,411.2c-1.9,0-3.7-0.7-5.2-2.1l-7.7-7.7c-2.8-2.8-2.8-7.5,0-10.3c2.9-2.9,7.5-2.9,10.3,0l7.7,7.7
			c2.9,2.8,2.9,7.5,0,10.3C352.8,410.5,350.9,411.2,349,411.2z"/>
		<path class="st3" d="M374.8,385.4c-1.9,0-3.7-0.7-5.2-2.1l-7.8-7.8c-2.9-2.9-2.9-7.5,0-10.3s7.5-2.9,10.3,0l7.8,7.8
			c2.9,2.9,2.9,7.5,0,10.3C378.6,384.7,376.7,385.4,374.8,385.4z"/>
		<path class="st3" d="M104,331.2c-1.9,0-3.7-0.7-5.2-2.1l-25.8-25.8c-1.4-1.4-2.1-3.2-2.1-5.2c0-1.9,0.8-3.8,2.1-5.2l113.5-113.5
			c1.4-1.4,3.2-2.1,5.2-2.1s3.8,0.8,5.2,2.1l25.8,25.8c2.9,2.9,2.9,7.5,0,10.3L109.2,329.1C107.7,330.5,105.9,331.2,104,331.2z
			 M88.5,298.1l15.5,15.5l103.2-103.2l-15.5-15.5L88.5,298.1z"/>
		<path class="st3" d="M423.8,331.2c-1.9,0-3.7-0.7-5.2-2.1L305.2,215.6c-2.9-2.9-2.9-7.5,0-10.3l25.8-25.8c2.7-2.7,7.6-2.7,10.3,0
			L454.8,293c1.4,1.4,2.1,3.2,2.1,5.2c0,1.9-0.8,3.8-2.1,5.2L429,329.1C427.5,330.5,425.7,331.2,423.8,331.2z M320.6,210.4
			l103.2,103.2l15.5-15.5L336.1,195L320.6,210.4z"/>
		<path class="st3" d="M263.9,187.6c-44.2,0-80.3-36-80.3-80.3s36-80.3,80.3-80.3s80.3,36,80.3,80.3S308.2,187.6,263.9,187.6z
			 M263.9,41.7c-36.2,0-65.7,29.5-65.7,65.7s29.5,65.7,65.7,65.7s65.7-29.5,65.7-65.7S300.1,41.7,263.9,41.7z"/>
		<path class="st3" d="M293.2,143.8h-58.4c-4,0-7.3-3.3-7.3-7.3c0-4,3.3-7.3,7.3-7.3h58.4c4,0,7.3,3.3,7.3,7.3
			C300.5,140.6,297.2,143.8,293.2,143.8z"/>
		<path class="st3" d="M264,143.8c-4,0-7.3-3.3-7.3-7.3V70.9c0-4,3.3-7.3,7.3-7.3c4,0,7.3,3.3,7.3,7.3v65.7
			C271.3,140.6,268.1,143.8,264,143.8z"/>
		<path class="st3" d="M293.2,85.5h-58.4c-4,0-7.3-3.3-7.3-7.3s3.3-7.3,7.3-7.3h58.4c4,0,7.3,3.3,7.3,7.3S297.2,85.5,293.2,85.5z"/>
		<path class="st3" d="M300.5,107.4h-14.6c-4,0-7.3-3.3-7.3-7.3s3.3-7.3,7.3-7.3h14.6c4,0,7.3,3.3,7.3,7.3S304.5,107.4,300.5,107.4z
			"/>
		<path class="st3" d="M242.1,107.4h-14.6c-4,0-7.3-3.3-7.3-7.3s3.3-7.3,7.3-7.3h14.6c4,0,7.3,3.3,7.3,7.3S246.2,107.4,242.1,107.4z
			"/>
	</g>
</g>
<g id="Слой_2">
	<path class="st4" d="M423.5,503H90c-42.3,0-77-34.6-77-77V92.5c0-42.3,34.7-77,77-77h333.5c42.4,0,77,34.7,77,77V426
		C500.5,468.4,465.9,503,423.5,503z"/>
</g>
</svg>
