<?xml version="1.0" encoding="utf-8"?>
<!-- Generator: Adobe Illustrator 22.1.0, SVG Export Plug-In . SVG Version: 6.00 Build 0)  -->
<svg version="1.1" id="Слой_1" xmlns="http://www.w3.org/2000/svg" xmlns:xlink="http://www.w3.org/1999/xlink" x="0px" y="0px"
	 viewBox="0 0 511 511" style="enable-background:new 0 0 511 511;" xml:space="preserve">
<style type="text/css">
	.st0{fill:#002E57;}
	.st1{fill:#9572CF;}
	.st2{fill:#006A9F;}
	.st3{fill:#004A9F;}
	.st4{fill:#00EAE0;}
	.st5{fill:none;stroke:#002E57;stroke-width:30;stroke-miterlimit:10;}
</style>
<path class="st0" d="M458.9,146.6c-6.8-4.5-66.7-44.4-73.4-48.9c-4.1-2.7-9.5-2.7-13.6,0c-6.8,4.5-66.7,44.4-73.4,48.9
	c-5.6,3.8-7.1,11.4-3.4,17s11.3,7.1,17,3.4l5.5-3.6v66.9c0,6.8,5.5,12.2,12.2,12.2h97.9c6.8,0,12.2-5.5,12.2-12.2v-66.9l5.5,3.6
	c5.6,3.7,13.2,2.3,17-3.4C466,158,464.5,150.3,458.9,146.6z M415.4,218h-24.5v-36.7c0-6.8-5.5-12.2-12.2-12.2
	c-6.8,0-12.2,5.5-12.2,12.2V218H342v-71l36.7-24.5l36.7,24.5V218z"/>
<path class="st1" d="M415.4,147v71h-24.5v-36.7c0-6.8-5.5-12.2-12.2-12.2c-6.8,0-12.2,5.5-12.2,12.2V218H342v-71l36.7-24.5
	L415.4,147z"/>
<path class="st0" d="M205.7,95.6H169V83.3c0-20.2-16.5-36.7-36.7-36.7c-20.2,0-36.7,16.5-36.7,36.7v12.2H58.9
	c-6.8,0-12.2,5.5-12.2,12.2v97.9c0,6.8,5.5,12.2,12.2,12.2h146.8c6.8,0,12.2-5.5,12.2-12.2v-97.9C218,101.1,212.5,95.6,205.7,95.6z
	 M120.1,83.3c0-6.8,5.5-12.2,12.2-12.2c6.8,0,12.2,5.5,12.2,12.2v12.2h-24.5V83.3z M191.4,120.1c-5,14.2-18.7,24.5-34.6,24.5h-49
	c-16,0-29.6-10.2-34.6-24.5H191.4z M193.5,193.5H71.1v-36.8c10.2,7.7,22.9,12.3,36.7,12.3h49c13.8,0,26.5-4.6,36.7-12.3V193.5z"/>
<path class="st2" d="M191.4,120.1c-5,14.2-18.7,24.5-34.6,24.5h-49c-16,0-29.6-10.2-34.6-24.5H191.4z"/>
<path class="st3" d="M193.5,156.8v36.8H71.1v-36.8c10.2,7.7,22.9,12.3,36.7,12.3h49C170.5,169,183.3,164.5,193.5,156.8z"/>
<path class="st0" d="M452.1,266.9H305.3c-6.8,0-12.2,5.5-12.2,12.2c0,33.7,27.4,61.2,61.2,61.2h12.2v23.2l-75.3-7.5
	c-3.9-16-18.4-28-35.7-28c-14.7,0-27.3,8.7-33.2,21.1l-77.7-7.7v-25.6h12.2c33.7,0,61.2-27.5,61.2-61.2c0-6.8-5.5-12.2-12.2-12.2
	H58.9c-6.8,0-12.2,5.5-12.2,12.2c0,33.7,27.5,61.2,61.2,61.2h12.2v36.7c0,6.3,4.8,11.5,11,12.2l88.8,8.8c3,12,11.9,21.8,23.4,25.9
	v40.5h-61.2c-6.8,0-12.2,5.5-12.2,12.2s5.5,12.2,12.2,12.2h147.7c6.8,0,12.2-5.5,12.2-12.2s-5.5-12.2-12.2-12.2h-62v-40.5
	c9.3-3.3,16.8-10.2,21-19l88.8,8.8c0.4,0,0.8,0.1,1.2,0.1c3,0,6-1.1,8.2-3.2c2.6-2.3,4-5.6,4-9.1v-36.7h12.2
	c33.7,0,61.2-27.4,61.2-61.2C464.4,272.4,458.9,266.9,452.1,266.9z M107.8,291.4c-16,0-29.6-10.2-34.6-24.5h118.2
	c-5.1,14.3-18.7,24.5-34.6,24.5H107.8z M255.5,377.1C255.5,377.1,255.5,377.1,255.5,377.1c-6.8,0-12.2-5.5-12.2-12.2
	c0-6.8,5.5-12.2,12.2-12.2s12.2,5.5,12.2,12.2C267.7,371.6,262.3,377.1,255.5,377.1z M403.2,315.9h-49c-16,0-29.6-10.2-34.6-24.5
	h118.2C432.7,305.6,419.1,315.9,403.2,315.9z"/>
<path class="st4" d="M267.7,364.8c0,6.7-5.5,12.2-12.2,12.2c0,0,0,0,0,0c-6.7,0-12.2-5.5-12.2-12.2c0-6.8,5.5-12.2,12.2-12.2
	S267.7,358.1,267.7,364.8z"/>
<path class="st4" d="M437.8,291.4c-5,14.3-18.7,24.5-34.6,24.5h-49c-16,0-29.6-10.2-34.6-24.5H437.8z"/>
<path class="st4" d="M191.4,266.9c-5.1,14.3-18.7,24.5-34.6,24.5h-49c-16,0-29.6-10.2-34.6-24.5H191.4z"/>
<path class="st5" d="M419.5,496.5h-328c-42.3,0-77-34.6-77-77v-328c0-42.3,34.7-77,77-77h328c42.4,0,77,34.7,77,77v328
	C496.5,461.9,461.9,496.5,419.5,496.5z"/>
</svg>
