<?xml version="1.0" encoding="utf-8"?>
<!-- Generator: Adobe Illustrator 22.1.0, SVG Export Plug-In . SVG Version: 6.00 Build 0)  -->
<svg version="1.1" id="Layer_1" xmlns="http://www.w3.org/2000/svg" xmlns:xlink="http://www.w3.org/1999/xlink" x="0px" y="0px"
	 viewBox="0 0 504.1 504.1" style="enable-background:new 0 0 504.1 504.1;" xml:space="preserve">
<style type="text/css">
	.st0{fill:#87DBE9;stroke:#002E57;stroke-width:24;stroke-miterlimit:10;}
	.st1{fill:#002E57;}
	.st2{fill:#FFFFFF;stroke:#002E57;stroke-width:14;stroke-miterlimit:10;}
	.st3{fill:none;stroke:#002E57;stroke-width:30;stroke-miterlimit:10;}
</style>
<circle class="st0" cx="182.1" cy="255.7" r="133.6"/>
<g>
	<path class="st1" d="M182.1,371.2c-63.8,0-115.5-51.7-115.5-115.5s51.7-115.5,115.5-115.5s115.5,51.7,115.5,115.5
		S245.8,371.2,182.1,371.2z M182.1,155.2c-55.2,0-100.4,45.2-100.4,100.4s45.2,100.4,100.4,100.4s100.4-45.2,100.4-100.4
		C283,200.4,237.8,155.2,182.1,155.2z"/>
	<path class="st1" d="M178,334.5v-14.1c-17.6-2-33.1-8.5-46.7-20.6l14.1-16.6c10.5,9,21.6,14.6,32.6,16.6v-36.7
		c-14.1-3.5-24.6-8-31.6-13.6c-6.5-5.5-10-14.1-10-24.6c0-11,4-20.1,11.6-26.6c7.5-7,17.6-10.5,30.1-11.6v-9.5h12.1v9.5
		c14.1,1,27.1,5.5,39.7,14.1l-12.6,17.6c-8.5-6-17.6-9.5-27.1-11v35.7h0.5c14.6,3.5,25.1,8,32.1,14.1c7,6,10,14.1,10,25.1
		s-4,20.1-11.6,27.1c-8,7-18.1,10.5-31.1,11.6v13.6L178,334.5L178,334.5z M166.5,217c-3,2.5-4.5,5.5-4.5,9.5s1,6.5,3.5,9
		c2,2,6.5,4.5,12.6,6.5V213C173.5,213,169.5,214,166.5,217z M202.2,290.8c3-2.5,4.5-6,4.5-9.5c0-4-1-7-3.5-9.5
		c-2.5-2.5-7-4.5-14.1-6.5v30.1C194.6,294.8,199.1,293.3,202.2,290.8z"/>
</g>
<path class="st2" d="M374.9,190.9c20.1-19.1,31.1-44.2,31.1-70.3V94.4H206.2v26.1c0,26.1,11,51.7,31.1,70.3L279,230
	c7,7,11.6,16.1,11.6,25.6l0,0c0,9.5-4,18.6-11.6,25.6l-41.7,39.2c-20.1,19.1-31.1,44.2-31.1,70.3v26.1h200.4v-26.1
	c0-26.1-11-51.7-31.1-70.3l-41.7-39.2c-7-7-11.6-16.1-11.6-25.6l0,0c0-9.5,4-18.6,11.6-25.6L374.9,190.9z"/>
<g>
	<path class="st1" d="M192.1,94.4h228c11,0,20.1-9,20.1-20.1s-9-20.1-20.1-20.1h-228c-11,0-20.1,9-20.1,20.1S181.1,94.4,192.1,94.4z
		"/>
	<path class="st1" d="M420.1,416.9h-228c-11,0-20.1,9-20.1,20.1s9,20.1,20.1,20.1h228c11,0,20.1-9,20.1-20.1
		S431.2,416.9,420.1,416.9z"/>
</g>
<g>
	<path class="st1" d="M329.2,329c-0.5,0-0.5,0-1,0c-10.5-2.5-17.6-11.6-17.6-22.6V224l44.7-46.2c5.5-5.5,10-12.1,13.6-19.1H242.8
		c3.5,7,8,13.6,13.6,19.1l44.7,46.2v82.4c0,10.5-7,20.1-17.6,22.6l0,0c-26.6,6-47.7,27.6-50.2,55.2c0,2.5-0.5,5-0.5,7v7h145.6v-7
		c0-2.5,0-5-0.5-7.5C376.4,356.1,355.8,335,329.2,329z"/>
	<circle class="st1" cx="278.5" cy="313.9" r="5.5"/>
	<circle class="st1" cx="332.7" cy="315.4" r="7.5"/>
	<circle class="st1" cx="290.5" cy="296.3" r="3.5"/>
</g>
<path class="st3" d="M411.5,489h-318C50.9,489,16,454.1,16,411.5v-318C16,50.9,50.9,16,93.5,16h318c42.6,0,77.5,34.9,77.5,77.5v318
	C489,454.1,454.1,489,411.5,489z"/>
</svg>
