<?xml version="1.0" encoding="utf-8"?>
<!-- Generator: Adobe Illustrator 22.1.0, SVG Export Plug-In . SVG Version: 6.00 Build 0)  -->
<svg version="1.1" id="Layer_5" xmlns="http://www.w3.org/2000/svg" xmlns:xlink="http://www.w3.org/1999/xlink" x="0px" y="0px"
	 viewBox="0 0 512 512" style="enable-background:new 0 0 512 512;" xml:space="preserve">
<style type="text/css">
	.st0{fill:#002E57;stroke:#002E57;stroke-width:6;stroke-miterlimit:10;}
	.st1{fill:#33748B;stroke:#002E57;stroke-width:6;stroke-miterlimit:10;}
	.st2{fill:#CCD9D3;stroke:#002E57;stroke-width:6;stroke-miterlimit:10;}
	.st3{fill:#29659A;stroke:#002E57;stroke-width:6;stroke-miterlimit:10;}
	.st4{fill:none;stroke:#002E57;stroke-width:30;stroke-miterlimit:10;}
</style>
<path class="st0" d="M469.5,172.3V59.2H348.1C345.3,51,337.7,45,328.6,45h-2c-10.8,0-19.8,8.4-20.6,19.1l-11.2,145.8l-36.8-24.5
	c-7.1-4.8-14.9-8.2-23.1-10.4c13.7-10.3,22.6-26.7,22.6-45.1c0-31.2-25.4-56.6-56.6-56.6s-56.6,25.4-56.6,56.6
	c0,16.6,7.2,31.5,18.6,41.8c-8.8-1.2-17.3-4.2-24.9-8.9L67,119.2c-3.7-2.3-8-3.5-12.4-3.5c-13,0-23.6,10.6-23.6,23.6v2.8
	c0,8,4,15.4,10.8,19.8l93.3,60.4c10.1,6.5,16.1,17.6,16.1,29.7v111.9c-48.4,22.4-88.1,60.8-112,108.6l-5.5,11h433.1l-5.5-11
	c-27.5-55-76.2-97.5-134.2-117.5l4.7-60.6l2.8,1.7c3.7,2.3,8,3.5,12.4,3.5c13,0,23.6-10.6,23.6-23.6v-2.9c0-7.9-3.9-15.3-10.5-19.6
	l-23.9-15.9l5-65.2H469.5z M348.7,73.3h106.6v84.9H342.2L348.7,73.3z M158.3,129.9c0-23.4,19-42.4,42.4-42.4
	c23.4,0,42.4,19,42.4,42.4s-19,42.4-42.4,42.4C177.3,172.3,158.3,153.3,158.3,129.9z M207.6,234.1l-6.9,10.3l-6.9-10.3l4.5-47.7h4.8
	L207.6,234.1z M142.8,210.4L49.5,150c-2.7-1.8-4.3-4.7-4.3-8v-2.8c0-5.2,4.3-9.5,9.5-9.5c1.8,0,3.5,0.5,5,1.4l70.9,43.6
	c12.3,7.6,26.4,11.5,40.8,11.5h12.9l-4.8,51.3l21.4,32.1l21.4-32.1l-4.8-51.1c11.7,0.5,22.9,4,32.6,10.5l43.4,29l-2.1,26.9
	l-39.1-24.1h-16.2l0,198.3c0,7.6-6.2,13.8-14.5,13.8c-7.6,0-13.8-6.2-13.8-13.8V299.6h-14.1v127.6c0,7.6-6.2,13.8-14.5,13.8
	c-7.6,0-13.8-6.2-13.8-13.8V252C165.4,235.1,156.9,219.6,142.8,210.4z M290.1,268.8l-5.8,75.8c-11.3-1.6-22.7-2.5-34.1-2.5l0-97.9
	L290.1,268.8z M110.6,405.9c3.4,3.8,5.3,8.8,5.3,13.9c0,11.7-9.5,21.2-21.2,21.2c-5.3,0-10.4-2-14.2-5.5
	C89.5,424.7,99.6,414.8,110.6,405.9z M394.4,409.7c10.2,8.8,19.7,18.4,28.2,28.9c-3,1.6-6.3,2.5-9.7,2.5c-11.7,0-21.2-9.5-21.2-21.2
	C391.7,416.2,392.7,412.8,394.4,409.7z M383.3,400.7c-3.7,5.7-5.8,12.2-5.8,19.1c0,19.5,15.9,35.4,35.4,35.4
	c6.6,0,12.9-1.9,18.3-5.3c4.4,6.2,8.6,12.7,12.3,19.4H56.9c4.4-7.9,9.5-15.4,14.8-22.6c6.3,5.4,14.4,8.5,22.9,8.5
	c19.5,0,35.4-15.9,35.4-35.4c0-8.3-3-16.2-8.2-22.5c9.3-6.6,19.1-12.5,29.4-17.7v47.5c0,15.4,12.6,28,28.6,28
	c8.4,0,15.8-3.8,20.9-9.6c5.2,5.8,12.8,9.6,21.5,9.6c15.4,0,28-12.6,28-28l0-71c11,0,22.1,0.8,33,2.5l-4.6,60c0,0.5-0.1,1.1-0.1,1.6
	c0,11.4,9.3,20.7,20.7,20.7h2.1c10.8,0,19.8-8.4,20.6-19.1l4-52.4C346.6,377,365.9,387.6,383.3,400.7z M307.8,420.9
	c-0.3,3.4-3.1,6-6.5,6h-2.1c-3.6,0-6.5-2.9-6.5-7.1L320,65.2c0.3-3.4,3.1-6,6.5-6h2c3.6,0,6.5,2.9,6.5,7L307.8,420.9z M352.1,265.2
	c2.6,1.8,4.2,4.7,4.2,7.9v2.9c0,5.2-4.3,9.5-9.5,9.5c-1.8,0-3.5-0.5-5-1.4l-9-5.5l1.9-24.8L352.1,265.2z"/>
<path class="st1" d="M443.6,469.3H56.9c4.4-7.9,9.5-15.4,14.8-22.6c6.3,5.4,14.4,8.5,22.9,8.5c19.5,0,35.4-15.9,35.4-35.4
	c0-8.3-3-16.2-8.2-22.5c9.3-6.6,19.1-12.5,29.4-17.7v47.5c0,15.4,12.6,28,28.6,28c8.4,0,15.8-3.8,20.9-9.6
	c5.2,5.8,12.8,9.6,21.5,9.6c15.4,0,28-12.6,28-28l0-71c11,0,22.1,0.8,33,2.5l-4.6,60c0,0.5-0.1,1.1-0.1,1.6
	c0,11.4,9.3,20.7,20.7,20.7h2.1c10.8,0,19.8-8.4,20.6-19.1l4-52.4c20.6,7.5,40,18.1,57.4,31.2c-3.7,5.7-5.8,12.2-5.8,19.1
	c0,19.5,15.9,35.4,35.4,35.4c6.6,0,12.9-1.9,18.3-5.3C435.7,456.2,439.8,462.7,443.6,469.3z"/>
<path class="st2" d="M356.3,273.1v2.9c0,5.2-4.3,9.5-9.5,9.5c-1.8,0-3.5-0.5-5-1.4l-9-5.5l1.9-24.8l17.3,11.5
	C354.8,267,356.3,269.9,356.3,273.1z"/>
<path class="st2" d="M293.4,226.1l-2.1,26.9l-39.1-24.1h-16.2l0,198.3c0,7.6-6.2,13.8-14.5,13.8c-7.6,0-13.8-6.2-13.8-13.8V299.6
	h-14.1v127.6c0,7.6-6.2,13.8-14.5,13.8c-7.6,0-13.8-6.2-13.8-13.8V252c0-16.9-8.5-32.4-22.6-41.6L49.5,150c-2.7-1.8-4.3-4.7-4.3-8
	v-2.8c0-5.2,4.3-9.5,9.5-9.5c1.8,0,3.5,0.5,5,1.4l70.9,43.6c12.3,7.6,26.4,11.5,40.8,11.5h12.9l-4.8,51.3l21.4,32.1l21.4-32.1
	l-4.8-51.1c11.7,0.5,22.9,4,32.6,10.5L293.4,226.1z"/>
<polygon class="st3" points="207.6,234.1 200.7,244.4 193.9,234.1 198.3,186.5 203.1,186.5 "/>
<polygon class="st2" points="455.3,73.3 455.3,158.2 342.2,158.2 348.7,73.3 "/>
<path class="st2" d="M335.1,66.2l-27.3,354.7c-0.3,3.4-3.1,6-6.5,6h-2.1c-3.6,0-6.5-2.9-6.5-7.1L320,65.2c0.3-3.4,3.1-6,6.5-6h2
	C332.2,59.2,335.1,62.1,335.1,66.2z"/>
<path class="st2" d="M243.2,129.9c0,23.4-19,42.4-42.4,42.4c-23.4,0-42.4-19-42.4-42.4s19-42.4,42.4-42.4
	C224.1,87.4,243.2,106.5,243.2,129.9z"/>
<path class="st0" d="M427.1,87.4h14.1v14.1h-14.1V87.4z"/>
<path class="st0" d="M398.8,87.4h14.1v14.1h-14.1V87.4z"/>
<path class="st0" d="M370.5,87.4h14.1v14.1h-14.1V87.4z"/>
<path class="st0" d="M349.3,405.7h14.1v14.1h-14.1V405.7z"/>
<path class="st0" d="M328,441.1h14.1v14.1H328V441.1z"/>
<path class="st4" d="M421,498.5H94c-42.6,0-77.5-34.9-77.5-77.5V94c0-42.6,34.9-77.5,77.5-77.5h327c42.6,0,77.5,34.9,77.5,77.5v327
	C498.5,463.6,463.6,498.5,421,498.5z"/>
</svg>
