<?xml version="1.0" encoding="utf-8"?>
<!-- Generator: Adobe Illustrator 22.1.0, SVG Export Plug-In . SVG Version: 6.00 Build 0)  -->
<svg version="1.1" xmlns="http://www.w3.org/2000/svg" xmlns:xlink="http://www.w3.org/1999/xlink" x="0px" y="0px"
	 viewBox="0 0 512 512" style="enable-background:new 0 0 512 512;" xml:space="preserve">
<style type="text/css">
	.st0{fill:#C7C7C5;}
	.st1{fill:#D7E9FF;}
	.st2{fill:#3D4D63;}
	.st3{fill:#D6D6D4;}
	.st4{fill:#E0E0DE;}
	.st5{fill:#4C5D72;}
	.st6{fill:#BFBFBD;}
	.st7{display:none;fill:#FEC093;}
	.st8{fill:#002ED0;}
	.st9{fill:#002E57;}
	.st10{fill:none;stroke:#002E57;stroke-width:24;stroke-miterlimit:10;}
</style>
<g id="Слой_1">
	<g id="Filled_outline">
		<path class="st0" d="M196.3,85.7h117.3c12.2,0,22,9.8,22,22v80.7l0,0H174.3l0,0v-80.7C174.3,95.5,184.2,85.7,196.3,85.7z"/>
		<path class="st1" d="M367.4,322.8l-17-2.4l-36.7-7.3l-22-14.7v-58.7h-73.3v58.7l-22,14.7l-36.7,7.3l-17,2.4
			c-20.1,2.9-35.7,19.2-37.6,39.4L93.7,481.7h322.7l-11.4-119.5C403,341.9,387.5,325.6,367.4,322.8z"/>
		<path class="st2" d="M416.3,489H93.7l11.4-126.8c1.9-20.2,17.5-36.5,37.6-39.4l53.7-9.8L255,459.7L313.7,313l53.7,9.8
			c20.1,2.9,35.7,19.1,37.6,39.4L416.3,489z"/>
		<path class="st2" d="M350.3,320.3v161.3H159.7V320.3l36.7-7.3l14.7-29.3l44,22l44-22l14.7,29.3L350.3,320.3z"/>
		<path class="st1" d="M321,144.3V203c0,36.4-29.6,66-66,66c-2,0-4-0.1-5.9-0.3c-34-3.1-60.1-31.6-60.1-65.7v-58.7
			c0-32.4,26.3-58.7,58.7-58.7h14.7C294.7,85.7,321,111.9,321,144.3z"/>
		<path class="st0" d="M306.3,71c8.1,0,14.7,6.6,14.7,14.7V115l0,0h-29.3l0,0V85.7C291.7,77.6,298.2,71,306.3,71z"/>
		<path class="st0" d="M203.7,71c8.1,0,14.7,6.6,14.7,14.7V115l0,0H189l0,0V85.7C189,77.6,195.6,71,203.7,71z"/>
		<g>
			<path class="st3" d="M321,151.7c0-16.2-13.1-29.3-29.3-29.3V115c0-8.1,6.6-14.7,14.7-14.7S321,106.9,321,115V151.7z"/>
			<path class="st3" d="M218.3,122.3c-16.2,0-29.3,13.1-29.3,29.3V115c0-8.1,6.6-14.7,14.7-14.7s14.7,6.6,14.7,14.7V122.3z"/>
			<circle class="st3" cx="174.3" cy="115" r="14.7"/>
			<circle class="st3" cx="174.3" cy="144.3" r="14.7"/>
			<circle class="st3" cx="174.3" cy="173.7" r="14.7"/>
			<circle class="st3" cx="335.7" cy="115" r="14.7"/>
			<circle class="st3" cx="335.7" cy="144.3" r="14.7"/>
			<circle class="st3" cx="335.7" cy="173.7" r="14.7"/>
			<path class="st3" d="M284.3,56.3c-8.1,0-14.7,6.6-14.7,14.7c0-8.1-6.6-14.7-14.7-14.7c-8.1,0-14.7,6.6-14.7,14.7
				c0-8.1-6.6-14.7-14.7-14.7S211,62.9,211,71v29.3h88V71C299,62.9,292.4,56.3,284.3,56.3z"/>
		</g>
		<path class="st4" d="M284.3,85.7c-8.1,0-14.7,6.6-14.7,14.7c0-8.1-6.6-14.7-14.7-14.7c-8.1,0-14.7,6.6-14.7,14.7
			c0-8.1-6.6-14.7-14.7-14.7S211,92.2,211,100.3v22h88v-22C299,92.2,292.4,85.7,284.3,85.7z"/>
		<path class="st0" d="M299,283.7l14.7,29.3L255,459.7L196.3,313l14.7-29.3l44,22L299,283.7z"/>
		<path class="st5" d="M196.3,313l-36.7,7.3l66,161.3H255v-22L196.3,313z"/>
		<path class="st5" d="M313.7,313l36.7,7.3l-66,161.3H255v-22L313.7,313z"/>
		<path class="st3" d="M255,305.7l-14.7,88l-29.3-7.3l14.7-66L255,305.7z"/>
		<path class="st3" d="M255,305.7l14.7,88l29.3-7.3l-14.7-66L255,305.7z"/>
		<path class="st4" d="M255,305.7l-29.3,14.7L211,283.7L255,305.7z"/>
		<path class="st4" d="M299,283.7l-44,22l29.3,14.7L299,283.7z"/>
		<path class="st4" d="M88.6,224.2l-46.1,6.1L76.8,440c1.9,12.5,13.5,21.2,26,19.5c12.7-1.7,21.7-13.4,20-26.1c0-0.2,0-0.3-0.1-0.5
			L88.6,224.2z"/>
		<path class="st6" d="M88.6,224.2c-1.6-13.3-13.3-22.7-26-21c-12.7,1.7-21.7,13.8-20.1,27.1c1.6,13.3,13.3,22.7,26,21
			S90.2,237.5,88.6,224.2L88.6,224.2z"/>
		<path class="st1" d="M131.9,444.5l-43.8,37.2H42.3v-82.5c0-2.1,0.6-4.1,1.8-5.9c1.2-1.8,2.8-3.2,4.7-4c5.6-2.5,12.2,0,14.8,5.6
			c0.2,0.5,0.4,1.1,0.6,1.7l4.4,17.2l27.5-23.7c6.5-5.6,16.2-4.8,21.8,1.7c0.8,0.9,1.4,1.8,1.9,2.9l9,17.7l7.1,13.9
			C139.3,432.4,137.5,440.1,131.9,444.5L131.9,444.5z"/>
		<path class="st7" d="M131.9,444.5l-43.8,37.2H42.3v-3.6c32-17.5,61.2-39.7,86.6-65.9l7.1,13.9
			C139.3,432.4,137.5,440.1,131.9,444.5L131.9,444.5z"/>
		<path class="st8" d="M453,298.3v139.3c0,8.1-6.6,14.7-14.7,14.7h-110V313c8.1-8.1,8.1-21.2,0-29.3c0,0,0,0,0,0h110
			c0.6,0,1.2,0,1.7,0.1C447.4,284.6,453,290.9,453,298.3z"/>
		<path class="st4" d="M438.3,283.7h-110c8.1,8.1,8.1,21.2,0,29.3c0,0,0,0,0,0h110c8.1,0,14.7-6.6,14.7-14.7
			S446.4,283.7,438.3,283.7z"/>
		<path class="st1" d="M467.7,399.2v82.5h-45.8l-6.5-5.5l-37.3-31.7c-5.6-4.3-7.3-12-4.1-18.3l16.2-31.6c4-7.6,13.3-10.5,20.9-6.5
			c1,0.5,2,1.2,2.9,1.9l27.5,23.7l4.4-17.2c1.6-6,7.7-9.5,13.7-7.9c0.6,0.2,1.1,0.4,1.7,0.6c1.9,0.9,3.6,2.2,4.7,4
			C467,395,467.7,397.1,467.7,399.2L467.7,399.2z"/>
		<path class="st7" d="M467.7,405.8v75.8h-45.8l-6.5-5.5C432.5,459.2,451.1,436.2,467.7,405.8z"/>
		<circle class="st9" cx="222" cy="170" r="11"/>
		<circle class="st9" cx="288" cy="170" r="11"/>
		<path class="st9" d="M233,225h13.6c12.7,0,24.8-3,34-8.3l-7.4-12.7c-6.9,4-16.6,6.3-26.7,6.3H233L233,225z"/>
		<path class="st9" d="M464.1,382.6c-1.2-0.5-2.5-0.9-3.8-1.2v-83c0-12.1-9.9-22-22-22h-110c-4.1,0-7.3,3.3-7.3,7.3
			c0,1.9,0.8,3.8,2.1,5.2c5.1,5.1,5.2,13.4,0.3,18.6l-4.8-1l-13.1-26.1c-1.2-2.5-3.8-4.1-6.6-4v-14.7c18.5-13.8,29.3-35.6,29.3-58.7
			v-8.6c11.4,4.1,24-1.9,28.1-13.4c2.7-7.6,1-16-4.4-22c7.5-8.3,7.5-21,0-29.3c8.1-9,7.3-22.9-1.7-31.1c-6-5.4-14.4-7-22-4.4v-8.6
			c0-12.1-9.8-22-22-22c0,0,0,0,0,0c-0.4,0-0.8,0-1.2,0c-4-11.5-16.6-17.5-28-13.5c-2.7,1-5.2,2.4-7.4,4.4c-8.3-7.5-21-7.5-29.3,0
			c-9.1-8.1-23-7.3-31.1,1.7c-1.9,2.2-3.4,4.7-4.4,7.4c-0.4,0-0.8,0-1.2,0c-12.1,0-22,9.9-22,22v8.6c-11.4-4.1-24,1.9-28.1,13.4
			c-2.7,7.6-1,16,4.4,22c-7.5,8.3-7.5,21,0,29.3c-8.1,9-7.3,22.9,1.7,31.1c6,5.4,14.4,7,22,4.4v8.6c0,23.1,10.9,44.8,29.3,58.7v14.7
			c-2.8,0-5.3,1.6-6.6,4l-13.1,26.1l-49.8,9c-10.7,1.5-20.6,6.3-28.4,13.8L95.9,223c-1-8.3-5.3-15.9-12-21.1
			c-6.3-4.9-14.3-7.1-22.2-6C45,198.1,33.1,214,35.2,231.2c0.1,0.8,0.2,1.6,0.4,2.3c0,0,0,0.1,0,0.1l24.2,148.4
			c-4.6-1.7-9.6-1.5-14,0.5C39.3,385.5,35,392,35,399.2v82.5c0,4.1,3.3,7.3,7.3,7.3h45.8c1.7,0,3.4-0.6,4.7-1.7l30.1-25.6V489h14.7
			v-39.8c7.4-6.7,9.4-17.5,4.9-26.4l-4.9-9.6v-48.9H123v22c-0.2-0.2-0.4-0.4-0.5-0.6l-6-36.6c5.5-10.4,15.6-17.5,27.2-19.1l8.7-1.2
			V489H167V357.6l51.9,126.8l13.6-5.6l-62.6-153.1l22-4.4l16.8,42l-4.7,21.4c-0.9,3.9,1.5,7.7,5.4,8.7l12.7,3.2l25.8,64.5v20.6h14.7
			v-20.6l25.8-64.5l12.7-3.2c3.9-1,6.2-4.8,5.4-8.7l-4.7-21.4l16.8-42l2.8,0.6v50.7l-43.4,106.2l13.6,5.6l29.9-73v40.9
			c0,4.1,3.3,7.3,7.3,7.3H343V489h14.7v-29.3h14.7V489H387v-27.3l30.1,25.6c1.3,1.1,3,1.7,4.7,1.7h45.8c4.1,0,7.3-3.3,7.3-7.3v-82.5
			C475,392,470.7,385.5,464.1,382.6L464.1,382.6z M335.7,107.7c4.1,0,7.3,3.3,7.3,7.3s-3.3,7.3-7.3,7.3c-4.1,0-7.3-3.3-7.3-7.3
			C328.3,111,331.6,107.7,335.7,107.7z M335.7,137c4.1,0,7.3,3.3,7.3,7.3c0,4.1-3.3,7.3-7.3,7.3c-4.1,0-7.3-3.3-7.3-7.3
			C328.3,140.3,331.6,137,335.7,137z M335.7,166.3c4.1,0,7.3,3.3,7.3,7.3s-3.3,7.3-7.3,7.3c-4.1,0-7.3-3.3-7.3-7.3
			C328.3,169.6,331.6,166.3,335.7,166.3z M174.3,181c-4.1,0-7.3-3.3-7.3-7.3s3.3-7.3,7.3-7.3s7.3,3.3,7.3,7.3
			C181.7,177.7,178.4,181,174.3,181z M174.3,151.7c-4.1,0-7.3-3.3-7.3-7.3c0-4.1,3.3-7.3,7.3-7.3s7.3,3.3,7.3,7.3
			C181.7,148.4,178.4,151.7,174.3,151.7z M174.3,122.3c-4.1,0-7.3-3.3-7.3-7.3s3.3-7.3,7.3-7.3s7.3,3.3,7.3,7.3
			C181.7,119.1,178.4,122.3,174.3,122.3z M106.5,379c-5.5-0.1-10.9,1.9-15.1,5.5l-14.2,12.2L68,341l31.4-5.2L106.5,379z M49.8,229.3
			c-1.1-9.3,5.1-17.7,13.8-18.9c4-0.5,8.1,0.6,11.3,3.1c3.6,2.8,5.9,7,6.4,11.5c1.1,9.3-5.1,17.8-13.8,19c-4,0.5-8.1-0.6-11.3-3.1
			c-3.2-2.5-5.4-6-6.2-9.9L49.8,229.3z M54.2,256.6c3.6,1.5,7.4,2.3,11.3,2.3c7.4,0,14.6-2.8,20.1-7.7l11.5,70.1l-31.4,5.2
			L54.2,256.6z M129.5,429.5c1.6,3.2,0.7,7.1-2.1,9.2c-0.1,0.1-0.2,0.1-0.2,0.2l-41.7,35.5H49.7v-75.2c0-1.4,0.9-2.6,2.2-3.2
			c1.1-0.5,2.3-0.5,3.4,0.1c1,0.4,1.7,1.3,1.9,2.3l4.4,17.2c1,3.9,5,6.3,8.9,5.3c1.1-0.3,2.1-0.8,3-1.5l27.5-23.7
			c1.9-1.6,4.4-2.3,6.9-1.8c2.4,0.4,4.4,2,5.5,4.1L129.5,429.5z M306.3,78.3c4,0,7.3,3.3,7.3,7.3c0,0,0,0,0,0v8.6
			c-2.4-0.8-4.8-1.3-7.3-1.2V78.3z M306.3,107.7c4,0,7.3,3.3,7.3,7.3c0,0,0,0,0,0v7.4c-2.3-1.7-4.7-3.1-7.3-4.3V107.7z M277,71
			c0-4.1,3.3-7.3,7.3-7.3c4.1,0,7.3,3.3,7.3,7.3v8.6c-4.7-1.7-9.9-1.7-14.7,0V71z M277,100.3c0-4.1,3.3-7.3,7.3-7.3
			c4.1,0,7.3,3.3,7.3,7.3V115H277V100.3z M247.7,71c0-4.1,3.3-7.3,7.3-7.3c4.1,0,7.3,3.3,7.3,7.3v8.6c-4.7-1.7-9.9-1.7-14.7,0V71z
			 M247.7,100.3c0-4.1,3.3-7.3,7.3-7.3c4.1,0,7.3,3.3,7.3,7.3V115h-14.7V100.3z M218.3,71c0-4.1,3.3-7.3,7.3-7.3S233,67,233,71v8.6
			c-4.7-1.7-9.9-1.7-14.7,0V71z M218.3,100.3c0-4.1,3.3-7.3,7.3-7.3s7.3,3.3,7.3,7.3V115h-14.7V100.3z M196.3,85.7
			c0-4,3.3-7.3,7.3-7.3V93c-2.5,0-5,0.4-7.3,1.3V85.7z M196.3,115c0-4,3.3-7.3,7.3-7.3v10.4c-2.6,1.1-5.1,2.6-7.3,4.3V115z
			 M196.3,203v-51.3c0-12.1,9.9-22,22-22h73.3c12.1,0,22,9.9,22,22V203c0,32.4-26.3,58.7-58.7,58.7S196.3,235.4,196.3,203z
			 M225.7,282.8v-12.6c18.7,8.2,40,8.2,58.7,0v12.6L255,297.5L225.7,282.8z M238.6,305.7l-9.1,4.5l-4.5-11.4L238.6,305.7z
			 M285,298.9l-4.5,11.4l-9.1-4.5L285,298.9z M214.2,338l-9.9-24.7l5.9-11.8L218,321L214.2,338z M219.7,381l12.4-55.6l13.3-6.7
			l-11,66L219.7,381z M255,439.9l-15.6-39c3.9,0.5,7.5-2.2,8.2-6.1l7.4-44.6l7.4,44.6c0.6,3.9,4.2,6.6,8.2,6.1L255,439.9z
			 M275.6,384.6l-11-66l13.3,6.7l12.4,55.6L275.6,384.6z M295.8,338l-3.8-17l7.8-19.4l5.9,11.8L295.8,338z M340.8,291h97.6
			c4.1,0,7.3,3.3,7.3,7.3c0,4.1-3.3,7.3-7.3,7.3h-97.6C342.1,300.9,342.1,295.8,340.8,291z M368.7,445h-33.1V320.3h102.7
			c2.5,0,5-0.4,7.3-1.3v65.4c-3.5,2.5-5.9,6.1-7,10.2l-1.5,5.7l-18.6-16c-5.3-4.6-12.4-6.4-19.3-5.1c-6.8,1.3-12.6,5.6-15.8,11.8
			l-16.2,31.6C363.8,429.9,364.3,438.4,368.7,445L368.7,445z M460.3,474.3h-35.8l-41.7-35.5c-0.1-0.1-0.2-0.1-0.2-0.2
			c-2.8-2.1-3.7-6-2.1-9.2l16.2-31.6c1.1-2.1,3.2-3.7,5.5-4.1c2.5-0.5,5,0.2,6.9,1.8l27.5,23.7c3.1,2.6,7.7,2.3,10.3-0.8
			c0.7-0.9,1.3-1.9,1.5-3l4.4-17.2c0.3-1,1-1.9,1.9-2.3c1.1-0.5,2.3-0.5,3.4-0.1c1.3,0.5,2.1,1.8,2.2,3.2L460.3,474.3z"/>
	</g>
</g>
<g id="Слой_2">
	<path class="st10" d="M422,499.5H88c-42.6,0-77.5-34.9-77.5-77.5V88c0-42.6,34.9-77.5,77.5-77.5h334c42.6,0,77.5,34.9,77.5,77.5
		v334C499.5,464.6,464.6,499.5,422,499.5z"/>
</g>
</svg>
