<?xml version="1.0" encoding="utf-8"?>
<!-- Generator: Adobe Illustrator 22.1.0, SVG Export Plug-In . SVG Version: 6.00 Build 0)  -->
<svg version="1.1" id="Capa_1" xmlns="http://www.w3.org/2000/svg" xmlns:xlink="http://www.w3.org/1999/xlink" x="0px" y="0px"
	 viewBox="0 0 512 512" style="enable-background:new 0 0 512 512;" xml:space="preserve">
<style type="text/css">
	.st0{fill:#002E57;}
	.st1{fill:#F6F1E5;}
	.st2{fill:#C9D8E5;}
	.st3{fill:none;stroke:#002E57;stroke-width:30;stroke-miterlimit:10;}
</style>
<g>
	<g>
		<path class="st0" d="M439.6,281.3c0-20.2-16.5-36.7-36.7-36.7h-54.5c6.8-18.3,10.9-40,13.4-56.4c2.5-16.6-2.4-33.4-13.3-46.1
			c-10.9-12.7-26.7-19.9-43.4-19.9c-6.8,0-12.2,5.5-12.2,12.2c0,29.6-17,74.2-36.8,84.1c-22.3,11.2-66.2,23.6-75,26H58.7
			c-6.8,0-12.2,5.5-12.2,12.2v171.3c0,6.8,5.5,12.2,12.2,12.2h36.7v12.2c0,6.8,5.5,12.2,12.2,12.2h50.6c14.9,0,27.8-9,33.5-21.8
			l85.8,21.5c1,0.2,2,0.4,3,0.4h73.4c20.2,0,36.7-16.5,36.7-36.7c0-4.8-0.9-9.3-2.6-13.5c15.6-4.3,27-18.5,27-35.4
			c0-4.8-0.9-9.3-2.6-13.5c15.6-4.3,27-18.5,27-35.4c0-9.4-3.5-18-9.4-24.5C436,299.3,439.6,290.7,439.6,281.3z M95.4,415.9H70.9
			V269h24.5V415.9z M170.4,428.1c0,6.7-5.5,12.2-12.2,12.2h-38.3V269h50.6V428.1z M329.5,318h73.4c6.7,0,12.2,5.5,12.2,12.2
			c0,6.8-5.5,12.2-12.2,12.2h-73.4c-6.8,0-12.2,5.5-12.2,12.2s5.5,12.2,12.2,12.2h48.9c6.8,0,12.2,5.5,12.2,12.2
			s-5.5,12.2-12.2,12.2h-48.9c-6.8,0-12.2,5.5-12.2,12.2s5.5,12.2,12.2,12.2h24.5c6.8,0,12.2,5.5,12.2,12.2
			c0,6.7-5.5,12.2-12.2,12.2H282l-87.1-21.8V266.1c16.5-4.7,51.5-15.4,72-25.6c28.1-14.1,45.3-58.6,49.4-91.8
			c5.2,1.9,9.9,5.1,13.6,9.4c6.3,7.3,9.1,16.9,7.7,26.5c-5.8,38.9-13.1,54.8-19,66.7c-1.9,3.8-1.7,8.3,0.5,11.9
			c2.2,3.6,6.2,5.8,10.4,5.8h73.4c6.7,0,12.2,5.5,12.2,12.2c0,6.8-5.5,12.2-12.2,12.2h-73.4c-6.8,0-12.2,5.5-12.2,12.2
			C317.2,312.5,322.7,318,329.5,318z"/>
		<path class="st1" d="M170.4,269v159c0,6.7-5.5,12.2-12.2,12.2h-38.3V269H170.4z"/>
		<rect x="70.9" y="269" class="st2" width="24.5" height="146.8"/>
		<path class="st2" d="M415.1,330.2c0,6.8-5.5,12.2-12.2,12.2h-73.4c-6.8,0-12.2,5.5-12.2,12.2s5.5,12.2,12.2,12.2h48.9
			c6.8,0,12.2,5.5,12.2,12.2s-5.5,12.2-12.2,12.2h-48.9c-6.8,0-12.2,5.5-12.2,12.2s5.5,12.2,12.2,12.2h24.5
			c6.8,0,12.2,5.5,12.2,12.2c0,6.7-5.5,12.2-12.2,12.2H282l-87.1-21.8V266.1c16.5-4.7,51.5-15.4,72-25.6
			c28.1-14.1,45.3-58.6,49.4-91.8c5.2,1.9,9.9,5.1,13.6,9.4c6.3,7.3,9.1,16.9,7.7,26.5c-5.8,38.9-13.1,54.8-19,66.7
			c-1.9,3.8-1.7,8.3,0.5,11.9c2.2,3.6,6.2,5.8,10.4,5.8h73.4c6.7,0,12.2,5.5,12.2,12.2c0,6.8-5.5,12.2-12.2,12.2h-73.4
			c-6.8,0-12.2,5.5-12.2,12.2c0,6.8,5.5,12.2,12.2,12.2h73.4C409.6,318,415.1,323.5,415.1,330.2z"/>
	</g>
</g>
<g>
	<g>
		<path class="st0" d="M317.2,47.2c-6.8,0-12.2,5.5-12.2,12.2v26.1c0,6.8,5.5,12.2,12.2,12.2s12.2-5.5,12.2-12.2V59.4
			C329.5,52.7,324,47.2,317.2,47.2z"/>
	</g>
</g>
<g>
	<g>
		<path class="st0" d="M248,109.1l-17.3-17.3c-4.8-4.8-12.5-4.8-17.3,0c-4.8,4.8-4.8,12.5,0,17.3l17.3,17.3c4.8,4.8,12.5,4.8,17.3,0
			C252.8,121.7,252.8,113.9,248,109.1z"/>
	</g>
</g>
<g>
	<g>
		<path class="st0" d="M207.1,183.4h-24.5c-6.8,0-12.2,5.5-12.2,12.2c0,6.8,5.5,12.2,12.2,12.2h24.5c6.8,0,12.2-5.5,12.2-12.2
			C219.4,188.9,213.9,183.4,207.1,183.4z"/>
	</g>
</g>
<g>
	<g>
		<path class="st0" d="M451.8,183.4h-24.5c-6.8,0-12.2,5.5-12.2,12.2c0,6.8,5.5,12.2,12.2,12.2h24.5c6.8,0,12.2-5.5,12.2-12.2
			C464.1,188.9,458.6,183.4,451.8,183.4z"/>
	</g>
</g>
<g>
	<g>
		<path class="st0" d="M421,91.8c-4.8-4.8-12.5-4.8-17.3,0l-17.3,17.3c-4.8,4.8-4.8,12.5,0,17.3c4.8,4.8,12.5,4.8,17.3,0l17.3-17.3
			C425.8,104.4,425.8,96.6,421,91.8z"/>
	</g>
</g>
<path class="st3" d="M419,496.5H91.5C48.9,496.5,14,461.6,14,419V91.5C14,48.9,48.9,14,91.5,14H419c42.6,0,77.5,34.9,77.5,77.5V419
	C496.5,461.6,461.6,496.5,419,496.5z"/>
</svg>
