<?xml version="1.0" encoding="utf-8"?>
<!-- Generator: Adobe Illustrator 22.1.0, SVG Export Plug-In . SVG Version: 6.00 Build 0)  -->
<svg version="1.1" xmlns="http://www.w3.org/2000/svg" xmlns:xlink="http://www.w3.org/1999/xlink" x="0px" y="0px"
	 viewBox="0 0 511 511" style="enable-background:new 0 0 511 511;" xml:space="preserve">
<style type="text/css">
	.st0{fill:#BEBEBE;}
	.st1{fill:#676A75;}
	.st2{fill:#454851;}
	.st3{fill:#002E57;}
	.st4{fill:none;stroke:#002E57;stroke-width:30;stroke-miterlimit:10;}
</style>
<g id="Слой_1">
	<path class="st0" d="M85.7,233.4c-11.4-11.9-19.6-26-24.3-41.9c-7.9-26.5-5-54.5,8.2-78.8s35-42,61.5-49.9
		c37.4-11.1,77.4-0.5,104.4,27.7c11.4,11.9,19.6,26,24.3,41.9c16.3,54.7-14.9,112.4-69.6,128.7C152.7,272.2,112.7,261.6,85.7,233.4
		C85.7,233.4,85.7,233.4,85.7,233.4z M220.5,104.7c-21.6-22.6-53.6-31.1-83.6-22.2c-21.2,6.3-38.7,20.5-49.2,40
		c-10.5,19.5-12.8,41.8-6.5,63c3.8,12.7,10.3,24,19.5,33.6c21.6,22.6,53.6,31.1,83.6,22.2c21.2-6.3,38.7-20.5,49.2-40
		c10.5-19.5,12.8-41.8,6.5-63C236.2,125.6,229.6,114.3,220.5,104.7z"/>
	<path class="st1" d="M235.2,139.7l9.1,30.3c3.7,12.5,17.4,19,29.4,14.1l32.5-13.2c4.3-1.8,6.6-6.5,5.3-11L288,81
		c-1.3-4.5-5.9-7.2-10.4-6.3L235,83.1C207.8,57.5,168,46.6,129.6,58c-51.2,15.3-82.8,65-76.8,116.4c1.1,9.4,9.6,15.7,18.9,13.4
		c7.6-1.8,12.5-9,11.5-16.7c-4.5-37,18.2-72.9,55.1-83.9C179.6,75,222.9,98.5,235.2,139.7z"/>
	<path class="st2" d="M301.8,127.2l-62.7,25.5l5.2,17.3c3.7,12.5,17.4,19,29.4,14.1l32.5-13.2c4.3-1.8,6.6-6.5,5.3-11L301.8,127.2z"
		/>
	<path class="st0" d="M373.6,460c-16.3,2.7-32.5,1.5-48.3-3.6c-26.3-8.4-47.8-26.6-60.4-51.2c-12.6-24.6-15-52.6-6.5-78.9
		c11.9-37.2,43.3-64.2,81.8-70.5c16.3-2.7,32.5-1.5,48.3,3.6c54.3,17.4,84.3,75.8,66.9,130.1C443.5,426.6,412.1,453.7,373.6,460
		C373.6,460,373.6,460,373.6,460z M343.5,276.1c-30.9,5.1-55.9,26.7-65.5,56.5c-6.8,21.1-4.9,43.5,5.2,63.2
		c10.1,19.7,27.3,34.2,48.4,41c12.6,4.1,25.7,5,38.7,2.9c30.8-5.1,55.9-26.7,65.5-56.5c6.8-21.1,4.9-43.5-5.2-63.2
		c-10.1-19.7-27.3-34.2-48.4-41C369.5,275,356.5,274,343.5,276.1z"/>
	<path class="st1" d="M380.7,283.7l30.1,9.6c12.4,4,25.5-3.6,28.3-16.3l7.4-34.3c1-4.6-1.6-9.1-6.1-10.6L362.1,207
		c-4.5-1.4-9.3,0.8-11.1,5.1l-17.1,39.9c-36.5,8-68,34.7-80.2,72.8c-16.3,50.9,7,105,52.7,129.1c8.4,4.4,18.4,0.9,21.7-8
		c2.7-7.3-0.4-15.4-7.2-18.9c-33-17.2-49.9-56.2-38.1-92.8C295.9,293.1,339.7,270.6,380.7,283.7z"/>
	<path class="st2" d="M440.4,232.2l-31.8-10.2l-14.3,66.1l16.6,5.3c12.4,4,25.5-3.6,28.3-16.3l7.4-34.3
		C447.5,238.2,444.9,233.6,440.4,232.2z"/>
	<path class="st3" d="M354.3,467.5c-3.4-0.1-6.1-2.9-6-6.3c0.1-3.4,2.9-6.1,6.3-6c6,0.1,12-0.3,18-1.3c36.3-6,65.7-31.4,77-66.3
		c7.6-23.7,5.9-49.1-4.9-71.6c-1.5-3.1-0.2-6.7,2.9-8.2c3.1-1.5,6.7-0.2,8.2,2.9c12.1,25.3,14,54,5.5,80.7
		c-12.6,39.4-45.8,68-86.7,74.7C368.7,467,360.1,467.7,354.3,467.5z"/>
	<path class="st3" d="M442.3,226.2l-36.6-11.7l3-10.4c8.1,1,16.3-3.9,18.9-12l6.3-19.3c2.9-8.8-1.6-18.2-9.9-21.6l0.8-21.4
		c9.1-7.7,7.4-18.7,0.7-25.5L411.1,90c-6.8-6.9-17.1-8.1-25.2,0.4l-21.9,0.8c-3.6-8-12.9-12.3-21.4-9.6l-19.3,6.2
		c-8,2.6-12.9,10.4-12.1,18.5l-8.4,2.2l-8.7-29.3c-2.3-7.6-9.8-12.1-17.5-10.6l-39.5,7.8c-29.6-26.3-71.1-35.7-109-24.4
		c-26,7.7-48.5,24.5-63.3,47.2c-14.6,22.4-21.1,49.4-17.9,75.8c2.2,18.1,19,20.3,26.4,18.7c10.6-2.3,17.5-12.6,16.2-23.4
		c-4.2-34.7,17.1-67.2,50.7-77.2c18.4-5.5,37.7-3.5,54.6,5.7c16.8,9.1,29.1,24.2,34.6,42.6v0l9.1,30.3c2.3,7.6,7.7,13.9,14.8,17.4
		c7.2,3.4,15.5,3.7,22.8,0.7l32.5-13.2c7.3-3,11.1-10.9,8.9-18.5l-11.2-37.7l8.5-2.3c5.1,10.7,16.3,10,21,8.5l19.3-6.2
		c7.5-2.4,12.3-9.5,12.2-17l9.9-0.3c-1.4,6.9,2.5,13.1,5.2,15.8l14.3,14.4c4.2,4.2,10.1,5.9,15.6,4.9l-0.3,9.9
		c-9.9-0.4-15.2,8-16.6,12.3l-6.3,19.3c-2.6,8.1,0.9,16.7,8.1,20.7l-3,10.5l-30-9.6c-7.5-2.4-15.5,1.2-18.6,8.5l-15.9,37
		c-38.4,9.6-69.6,38.5-81.7,76.2c-8.3,25.8-7.1,53.8,3.2,78.9c10.3,24.7,28.9,45.1,52.5,57.5c14.7,7.7,27.3-2.2,30.4-11.3
		c3.5-10.3-0.6-21.6-10.2-26.6c-31-16.2-45.8-52.1-35.1-85.5c5.9-18.2,18.5-33.1,35.5-41.9c17-8.8,36.5-10.4,54.7-4.5l0,0l30.1,9.6
		c7.6,2.4,15.8,1.5,22.7-2.4c6.9-4,11.8-10.7,13.5-18.5l7.4-34.3C454.2,236.3,449.8,228.7,442.3,226.2z M303.9,165.2l-32.5,13.2
		c-4.2,1.7-8.8,1.6-12.9-0.4c-4.1-2-7.1-5.4-8.4-9.8l-9.1-30.3c-6.4-21.5-20.8-39.2-40.5-49.9c-19.7-10.7-42.5-13-64-6.6
		c-19.1,5.7-35.6,18-46.5,34.7c-10.7,16.5-15.3,36.3-13,55.8c0.6,4.6-2.5,8.7-6.9,9.9c-3.7,1-10.4-0.9-11.3-8.2
		C56.3,150,61.9,126,75,106c13.2-20.2,33.2-35.2,56.4-42.1c9.5-2.8,19.3-4.2,29-4.2c25.8,0,51.2,9.8,70.5,27.9
		c1.4,1.4,3.5,1.9,5.4,1.6l42.6-8.4c1.5-0.3,2.9,0.6,3.3,2l23.5,78.9C306,163.1,305.3,164.6,303.9,165.2z M351.2,108.6l-19.3,6.2
		c-2.7,0.9-5.7-0.6-6.6-3.4l-1.7-5.4c-0.9-2.7,0.6-5.7,3.4-6.6l19.3-6.2c4.9-1.5,6.2,2,6.6,3.4l1.7,5.4
		C355,103.4,356.4,107.1,351.2,108.6z M405.3,124.5l-14.3-14.4c-2-2-2-5.4,0-7.4l4-4c2-2,5.4-2,7.4,0l14.3,14.4c3.6,3.7,1,6.4,0,7.4
		l-4,4C411.7,125.5,409,128.4,405.3,124.5z M400.6,183.3l6.3-19.3c0.9-2.7,3.9-4.2,6.6-3.3l5.4,1.7c2.7,0.9,4.2,3.9,3.3,6.6
		l-6.3,19.3c-1.6,4.9-5.3,3.8-6.6,3.4l-5.4-1.8C402.6,189.5,398.8,188.5,400.6,183.3z M440.5,241.4l-7.4,34.3
		c-1,4.4-3.7,8.1-7.6,10.4c-3.9,2.3-8.5,2.8-12.8,1.4l-30.1-9.6c-21.4-6.9-44.1-5-64.1,5.3c-20,10.3-34.7,27.7-41.6,49.1
		c-6.1,19-5.2,39.6,2.4,58c7.6,18.2,21.3,33.2,38.7,42.2c4.1,2.1,6,7,4.3,11.3c-2.8,7.1-10.5,6-13.1,4.7
		c-44-23.1-64.9-74.3-49.7-121.7c11.1-34.6,40.1-60.9,75.7-68.7c1.9-0.4,3.6-1.8,4.3-3.6l17.1-39.9c0.5-1.1,1.5-1.8,2.7-1.8
		c0.3,0,0.6,0,0.9,0.1l78.4,25.1C440,238.4,440.8,239.9,440.5,241.4z"/>
	<path class="st3" d="M252.9,208.9c-2.9-1.7-6.7-0.7-8.4,2.2c-12.5,21.4-32.5,37-56.1,44.1c-35.2,10.5-72.8,0.5-98.2-26.1
		c-4.2-4.4-8-9.2-11.2-14.2c-1.9-2.9-5.7-3.7-8.5-1.8c-2.9,1.9-3.7,5.7-1.8,8.5c3.7,5.6,7.9,11,12.7,16c21.1,22.1,49.7,34,79.1,34
		c10.5,0,21.1-1.5,31.5-4.6c26.7-8,49.2-25.6,63.3-49.7C256.9,214.3,255.9,210.6,252.9,208.9z"/>
	<path class="st3" d="M160.4,250.9c8.5,0,17.1-1.2,25.6-3.7c21.6-6.4,39.8-20.7,51.2-40c1.7-2.9,0.8-6.7-2.2-8.4
		c-2.9-1.7-6.7-0.8-8.4,2.2c-9.8,16.7-25.5,28.9-44.1,34.5c-27.7,8.3-57.4,0.4-77.4-20.5c-2.3-2.5-4.5-5.1-6.5-7.8
		c-2-2.7-5.9-3.3-8.6-1.3c-2.7,2-3.3,5.9-1.3,8.6c2.3,3.1,4.8,6.2,7.6,9C113.3,241.3,136.5,250.9,160.4,250.9z"/>
	<path class="st3" d="M429.3,317.2c-3.1,1.4-4.4,5.1-3,8.2c8.2,17.5,9.5,37.4,3.6,55.9c-8.8,27.5-32.1,47.6-60.6,52.3
		c-3.3,0.5-6.7,0.9-10,1c-3.4,0.1-6.1,3-6,6.4c0.1,3.3,2.8,6,6.2,6c0.1,0,0.1,0,0.2,0c3.9-0.1,7.8-0.5,11.6-1.1
		c33.1-5.5,60.1-28.7,70.3-60.7c6.9-21.5,5.4-44.5-4.1-64.9C436.1,317,432.4,315.7,429.3,317.2z"/>
	<path class="st3" d="M396.2,232.1c-5.4-1.6-15.7-2.4-20.7,10.7l-1.7,5.5c-2.8,8.7,2,18,10.7,20.7c6.2,2,16.8,0.5,20.7-10.7l1.8-5.5
		C410.2,243.6,405.3,234.8,396.2,232.1z M395.2,249l-1.8,5.5c-0.3,1.1-2.5,3.5-5.2,2.7c-2.2-0.7-3.4-3-2.7-5.2l1.8-5.5
		c1.4-3.4,4.3-3,5.2-2.7C395.9,244.8,395.5,248,395.2,249z"/>
	<path class="st3" d="M266,112.3l-5.5,1.7c-8.7,2.6-13.7,11.9-11,20.5c1.9,6.2,9.1,14.1,20.5,11l5.5-1.7c9.4-2.5,13.9-11.5,11-20.5
		C284.8,118,279.6,109,266,112.3z M271.9,132.1l-5.5,1.7c-1.1,0.3-4.3,0-5.2-2.8c-0.7-2.2,0.6-4.5,2.8-5.2l5.5-1.7
		c3.6-0.8,4.9,1.8,5.2,2.8C275.8,130.3,273,131.7,271.9,132.1z"/>
	<path class="st4" d="M418.5,498.5H94c-43.5,0-79-35.5-79-79V95c0-43.5,35.5-79,79-79h324.5c43.5,0,79,35.5,79,79v324.5
		C497.5,463,462,498.5,418.5,498.5z"/>
</g>
<g id="Слой_2">
</g>
</svg>
