<?xml version="1.0" encoding="utf-8"?>
<!-- Generator: Adobe Illustrator 22.1.0, SVG Export Plug-In . SVG Version: 6.00 Build 0)  -->
<svg version="1.1" id="Capa_1" xmlns="http://www.w3.org/2000/svg" xmlns:xlink="http://www.w3.org/1999/xlink" x="0px" y="0px"
	 viewBox="0 0 612 612" style="enable-background:new 0 0 612 612;" xml:space="preserve">
<style type="text/css">
	.st0{fill:#6392F7;}
	.st1{fill:#E2E2E2;stroke:#201600;stroke-linecap:round;stroke-miterlimit:10;}
	.st2{fill:#002E57;stroke:#000000;stroke-width:0.25;stroke-miterlimit:10;}
	.st3{fill:none;stroke:#002E57;stroke-width:40;stroke-miterlimit:10;}
</style>
<g>
	<path class="st0" d="M603.1,437.1v50.7c0,55.1-44.7,99.7-99.7,99.7H120.8c-55.1,0-99.7-44.7-99.7-99.7v-50.7H603.1z"/>
	<circle class="st1" cx="519.3" cy="403.1" r="36.1"/>
	<circle class="st1" cx="280.6" cy="410.4" r="36.1"/>
	<circle class="st1" cx="87.6" cy="410.4" r="36.1"/>
	<path class="st2" d="M362.7,202.8l-43.3,56.7l27.7-66.2c0.7-3.4,3.4-5.4,5.4-5.4c0.7,0,1.3,0.7,2.7,1.3l4,2l4,2
		C366.8,195.4,366.1,198.7,362.7,202.8z M304,264.9l12.1-95.2c1.3-6.7-0.7-11.4-5.4-11.4h-6.1c-1.3,0-7.4,0-7.4,0
		c-4.7,0-6.7,4-5.4,11.4L304,264.9z M320.9,368.1c4,9.5,5.4,15.6,5.4,24.3v79v10.8c0,3.4-2.7,6.7-6.7,6.7h-35.1
		c-4,0-6.7-2.7-6.7-6.7v-10.8v-11.4H90.7v11.4v10.8c0,3.4-2.7,6.7-6.7,6.7H48.7c-4,0-6.7-2.7-6.7-6.7v-10.8v-79
		c0-8.9,1.3-15.6,5.4-24.3l43.9-91.8c4.7-10.8,18.2-19.5,30.4-19.5h124.2c12.1,0,25.7,8.9,31.1,19.5L320.9,368.1z M81.1,364.2h205.2
		l-29.7-63.4c-6.1-12.1-11.4-14.9-24.3-14.9h-97.2c-2,0-3.4,0-4.7,0c-9.5,1.3-14.2,4.7-18.8,14.9L81.1,364.2z M109.5,410
		c0-12.1-10.2-21.6-22.3-21.6s-21.6,9.5-21.6,21.6s9.5,22.3,21.6,22.3S109.5,422.3,109.5,410z M302.6,410
		c0-12.1-10.2-21.6-22.3-21.6s-21.6,9.5-21.6,21.6s9.5,22.3,21.6,22.3C292.4,432.4,302.6,422.3,302.6,410z M289.1,265.5l-27.7-66.2
		c-1.3-3.4-3.4-5.4-5.4-5.4c-0.7,0-1.3,0-2,0c-0.7,0-0.7,0.7-1.3,0.7l-4,2l-3.4,2.7c-3.4,2-2.7,5.4,0.7,9.5L289.1,265.5z
		 M566.5,395.2l-20.3,76.3l-2.7,10.2c-0.7,3.4-4.7,5.4-8.1,4.7l-33.7-8.9c-3.4-0.7-5.4-4.7-4.7-8.1l2.7-10.2l3.4-10.8l-166.8-44.6
		V391c0-5.4-0.7-11.4-2-16.9c8.9-0.7,16.9-6.7,19.5-16.3c3.4-11.4-4-23.6-15.6-27c-7.4-1.3-14.9,0.7-20.3,5.4l-15.6-32.4
		c0.7-0.7,1.3-2,2-2.7l66.2-77c6.1-7.4,16.3-11.4,25.7-12.1c3.4,0,6.1,0,8.9,0.7l118.2,30.4c12.1,3.4,23,15.6,24.9,27l18.8,100
		C569.2,380.3,568.6,387.2,566.5,395.2z M537.5,360.1l-12.8-68.8c-2.7-13.4-7.4-17.5-19.5-21l-93.9-25.7c-4.7-1.3-8.1-1.3-11.4-1.3
		c-5.4,0.7-10.2,4-15.6,10.2l-45.9,53.2L537.5,360.1z M524.7,381.7c-1.3-0.7-2.7-0.7-4-0.7c-1.4,0-2.7,0-4,0
		c-8.9,0.7-16.3,6.7-18.2,16.3c-3.4,11.4,3.4,23.6,14.9,27c11.4,3.4,23.6-4,27-15.6C543.5,397.1,536.2,385,524.7,381.7z"/>
</g>
<path class="st3" d="M513.4,592.3H97c-42.8,0-77.9-35-77.9-77.9V98c0-42.8,35-77.9,77.9-77.9h416.5c42.8,0,77.9,35,77.9,77.9v416.5
	C591.3,557.3,556.3,592.3,513.4,592.3z"/>
</svg>
