<svg xmlns="http://www.w3.org/2000/svg" viewBox="0 0 703.1 229.38"><defs><style>.cls-1,.cls-2,.cls-5,.cls-9{fill:#00549e;}.cls-2{stroke:#00549e;}.cls-2,.cls-4{stroke-miterlimit:10;stroke-width:8px;}.cls-3,.cls-4{fill:#0071d4;}.cls-4{stroke:#0071d4;}.cls-5{font-size:88.31px;}.cls-5,.cls-9{font-family:MyriadPro-Regular, Myriad Pro;}.cls-6{letter-spacing:0em;}.cls-7{letter-spacing:0em;}.cls-8{letter-spacing:0em;}.cls-9{font-size:88.31px;}.cls-10{letter-spacing:0em;}.cls-11{letter-spacing:-0.01em;}</style></defs><title>лого1</title><g id="Слой_1" data-name="Слой 1"><path class="cls-1" d="M630,573.81c-.89-.67-1.36-.72-2.11.2-1.85,2.27-3.76,4.49-5.76,6.62-6.26,6.65-13.86,10-23.11,9.71a49.67,49.67,0,0,1-25.52-8.1c-8.48-5.43-15.28-12.61-21.42-20.51a2.25,2.25,0,0,1-.07-3.29c6.05-8.3,11.94-16.72,17.5-25.36.6-.93,1.19-1.86,1.78-2.8l-13.56-.23c-4.18,6.73-8.72,13.21-13.31,19.67-1,1.36-1.35.66-2-.16-4.45-5.76-8.82-11.58-13-17.55-10.47-15-19.17-31-27.38-47.26-.62-1.23-.41-1.72.78-2.29q5.77-2.82,11.45-5.81a98.05,98.05,0,0,0,18.46-12.33c12.37-10.72,19-24,17.89-40.58-.79-11.8-5.95-21.42-15.68-28.25-10.49-7.38-22.28-9.32-34.81-7.48a49,49,0,0,0-39.83,36.33c-2.77,11.2-1.9,22.26.72,33.31,2.13,8.94,5.22,17.58,8.18,26.25.42,1.24.28,1.87-.92,2.56-5.35,3.11-10.69,6.23-15.91,9.56-12.19,7.76-23.36,16.72-31.91,28.55-11.4,15.77-15.49,33.24-11.56,52.35a42.17,42.17,0,0,0,19.67,28.34c8.47,5.27,17.86,7.6,27.67,8.2,17.27,1.06,33.73-1.93,49-10.53a143.64,143.64,0,0,0,24.44-18c1-.89,1.59-1.08,2.61,0a131.31,131.31,0,0,0,12.26,11.68c6.17,5.18,12.67,9.91,20.21,12.9,15.52,6.17,30.7,5.88,45.13-3.18,9.92-6.23,16.76-15.19,21.82-25.61C633.74,576.54,633.71,576.57,630,573.81ZM494.76,401.86c13.5-9.19,32.45-2.44,37.44,13.49,4.13,13.18,1,25.1-7.46,35.75C519.28,458,512.26,463,505,467.72c-2.33,1.52-4.8,2.84-7.18,4.3-.8.49-1.28.7-1.8-.45-5-11.25-9.66-22.63-11.42-34.94a94.82,94.82,0,0,1-.78-10.39C483.78,416.47,486.18,407.7,494.76,401.86Zm26.45,174.91c-6.82,5.32-13.76,10.45-21.53,14.34-7.95,4-16.31,6.13-25.22,5.26s-16.25-4.69-22.65-10.67c-17.19-16.07-19.61-44.4-7-62.46a70.84,70.84,0,0,1,11.77-13,158.21,158.21,0,0,1,18-13.43c3.83,7.23,7.6,14.39,11.41,21.52a355.89,355.89,0,0,0,35.77,55C523,575,522.71,575.6,521.21,576.77Z" transform="translate(-100.97 -384.36)"/><line class="cls-2" x1="448.4" y1="145.83" x2="696.7" y2="146.58"/><path class="cls-3" d="M633,570.81c-.89-.67-1.36-.72-2.11.2-1.85,2.27-3.76,4.49-5.76,6.62-6.26,6.65-13.86,10-23.11,9.71a49.67,49.67,0,0,1-25.52-8.1c-8.48-5.43-15.28-12.61-21.42-20.51a2.25,2.25,0,0,1-.07-3.29c6.05-8.3,11.94-16.72,17.5-25.36.6-.93,1.19-1.86,1.78-2.8l-13.56-.23c-4.18,6.73-8.72,13.21-13.31,19.67-1,1.36-1.35.66-2-.16-4.45-5.76-8.82-11.58-13-17.55-10.47-15-19.17-31-27.38-47.26-.62-1.23-.41-1.72.78-2.29q5.77-2.82,11.45-5.81a98.05,98.05,0,0,0,18.46-12.33c12.37-10.72,19-24,17.89-40.58-.79-11.8-5.95-21.42-15.68-28.25-10.49-7.38-22.28-9.32-34.81-7.48a49,49,0,0,0-39.83,36.33c-2.77,11.2-1.9,22.26.72,33.31,2.13,8.94,5.22,17.58,8.18,26.25.42,1.24.28,1.87-.92,2.56-5.35,3.11-10.69,6.23-15.91,9.56-12.19,7.76-23.36,16.72-31.91,28.55-11.4,15.77-15.49,33.24-11.56,52.35a42.17,42.17,0,0,0,19.67,28.34c8.47,5.27,17.86,7.6,27.67,8.2,17.27,1.06,33.73-1.93,49-10.53a143.64,143.64,0,0,0,24.44-18c1-.89,1.59-1.08,2.61,0a131.31,131.31,0,0,0,12.26,11.68c6.17,5.18,12.67,9.91,20.21,12.9,15.52,6.17,30.7,5.88,45.13-3.18,9.92-6.23,16.76-15.19,21.82-25.61C636.74,573.54,636.71,573.57,633,570.81ZM497.76,398.86c13.5-9.19,32.45-2.44,37.44,13.49,4.13,13.18,1,25.1-7.46,35.75C522.28,455,515.26,460,508,464.72c-2.33,1.52-4.8,2.84-7.18,4.3-.8.49-1.28.7-1.8-.45-5-11.25-9.66-22.63-11.42-34.94a94.82,94.82,0,0,1-.78-10.39C486.78,413.47,489.18,404.7,497.76,398.86Zm26.45,174.91c-6.82,5.32-13.76,10.45-21.53,14.34-7.95,4-16.31,6.13-25.22,5.26s-16.25-4.69-22.65-10.67c-17.19-16.07-19.61-44.4-7-62.46a70.84,70.84,0,0,1,11.77-13,158.21,158.21,0,0,1,18-13.43c3.83,7.23,7.6,14.39,11.41,21.52a355.89,355.89,0,0,0,35.77,55C526,572,525.71,572.6,524.21,573.77Z" transform="translate(-100.97 -384.36)"/><line class="cls-2" x1="0.01" y1="145.98" x2="305.04" y2="146.9"/><line class="cls-4" x1="7.09" y1="143.68" x2="312.12" y2="144.6"/><line class="cls-4" x1="452.74" y1="142.83" x2="701.03" y2="143.59"/></g><g id="Слой_2" data-name="Слой 2"><text class="cls-5" transform="translate(0.03 122.05)">Б<tspan class="cls-6" x="48.22" y="0">е</tspan><tspan x="92.72" y="0">з</tspan><tspan class="cls-7" x="130.79" y="0">д</tspan><tspan class="cls-8" x="177.24" y="0">ол</tspan><tspan x="271.2" y="0">я</tspan></text><text class="cls-9" transform="translate(449.03 121.64)"><tspan class="cls-10">Д</tspan><tspan x="56.08" y="0">аш</tspan><tspan class="cls-11" x="163.81" y="0">к</tspan><tspan x="205.58" y="0">о</tspan></text></g></svg>